<?xml version="1.0" ?><svg viewBox="0 0 1000 1000" xmlns="http://www.w3.org/2000/svg"><path d="m224.66 238.4c11.2 2.06 21.88 6.27 32.29 10.87a434.18 434.18 0 0 1 66.41 36.59 11.61 11.61 0 0 1 3.86 3.57c1 1.79 1 4 1 6.05q-.09 18.79-.19 37.59c0 2-.09 4.23-1.43 5.75-2.49 2.84-7.09 1.26-10.5-.37-28.59-13.67-61.85-16.72-88.7-33.54" fill="#18c4ff"/><path d="m117.54 409c-19.43 31.81-29.14 68.75-33.15 105.76s-2.58 74.39-1.14 111.59c.21 5.36.73 11.38 4.86 14.8 2.84 2.36 6.75 2.86 10.43 3.25a639.35 639.35 0 0 0 164.46-4.24c1.92-.3 4-.67 5.39-2s2-3.67 2.4-5.76a471.59 471.59 0 0 0 3.68-143.28c-4.17-32.59-13-67-37.65-88.75"/><path d="m116.77 408.6a217.94 217.94 0 0 0 -25.16 58.89c-5.76 21.39-8.85 43.41-10.32 65.51-1.58 23.84-1.18 47.78-.39 71.64q.3 8.89.65 17.79c.19 4.76 0 9.87 1.77 14.39a13.3 13.3 0 0 0 10.05 8.4 62.72 62.72 0 0 0 7.6 1c2.92.29 5.85.57 8.78.82a638.42 638.42 0 0 0 70.93 2.13 642.53 642.53 0 0 0 70.65-5.73q4.36-.6 8.72-1.26c2.5-.37 5.22-.54 7.54-1.62 4.81-2.24 4.91-8.7 5.67-13.22q2.91-17.34 4.53-34.86a472.89 472.89 0 0 0 1.26-70.48c-1.2-21-3.37-42.22-8.4-62.66-4.45-18.08-11.52-35.87-23.43-50.38a85.15 85.15 0 0 0 -9.31-9.68c-1.44-1.28-3.58.84-2.13 2.13 13.74 12.2 22.64 28.6 28.31 45.9 6.09 18.56 8.82 38.09 10.64 57.48a471.91 471.91 0 0 1 1.39 68.71q-.9 17.24-3.07 34.37-1.08 8.48-2.46 16.91c-.46 2.77-.88 5.56-1.46 8.3-.5 2.36-1.35 4.27-3.81 5a56.43 56.43 0 0 1 -7.78 1.32c-2.85.42-5.7.83-8.56 1.21q-8.61 1.14-17.26 2.06-17.28 1.83-34.65 2.71a642.44 642.44 0 0 1 -69.25-.22q-8.68-.5-17.34-1.23c-2.85-.24-5.69-.51-8.53-.78a67.18 67.18 0 0 1 -7.76-1 11.16 11.16 0 0 1 -5.91-3 11.94 11.94 0 0 1 -2.67-5.48c-1.16-4.84-.92-10.07-1.11-15-.88-23.3-1.62-46.63-.88-70 .72-22.21 2.72-44.42 7.27-66.2a248.73 248.73 0 0 1 20.11-59.47q3.41-6.87 7.33-13.46a.89.89 0 0 0 -1.53-.89z"/><path d="m148.38 233.65a156.3 156.3 0 0 0 -41 20.13c-5.57 3.84-11 8.14-14.71 13.77-4.37 6.58-6.15 14.54-7 22.39-3.38 30.46 6 61.65 23.28 87 2.09 3 4.39 6.39 4.06 10.08a15.36 15.36 0 0 1 -2 5.49l-15.66 30.6c-.93 1.83-1.89 3.79-1.62 5.82s1.56 3.54 2.89 5c17 18.33 42.87 25.21 67.53 29.34a4.32 4.32 0 0 0 5.51-2.72 322.29 322.29 0 0 0 23.66-46.89l14.27 41.73c1.06 3.1 2.59 6.66 5.78 7.43 1.92.46 3.9-.26 5.72-1a99.48 99.48 0 0 0 41-32c1.68-2.24 3.32-4.7 3.57-7.49.28-3.18-1.26-6.2-2.76-9l-15.66-29.63c-1.41-2.63-2.84-5.36-3.07-8.34-.28-3.61 1.24-7.08 2.62-10.43a180.34 180.34 0 0 0 11.61-95.49c-.81-5.32-1.9-10.74-4.67-15.35-5.92-9.85-18-13.93-29.14-16.59a290.56 290.56 0 0 0 -36.69-6.29" fill="#18c4ff"/><path d="m246.14 383.45c-1-2.5-2.31-5.15-2.56-7.86s.66-5.57 1.7-8.18c2.1-5.24 4.29-10.41 6-15.8a182.46 182.46 0 0 0 7.1-33q.57-4.72.88-9.47c.21-3.25.53-6.48.62-9.74.05-1.92-3-1.92-3 0 0 2.93 0 5.89-.19 8.81s-.49 5.71-.83 8.55c-.69 5.71-1.61 11.42-2.86 17a215.33 215.33 0 0 1 -10.43 32.87c-1.14 2.89-2.11 6-1.74 9.14s1.88 5.78 3.6 8.36c.55.83 2.14.32 1.71-.72z"/><path d="m160.5 212.24c-3.58 8.14-7.23 16.64-6.89 25.53.23 5.87 2.2 11.51 4.26 17a422.07 422.07 0 0 0 35.66 72.91 247.83 247.83 0 0 0 -.8-93.44 26.38 26.38 0 0 1 -.75-5.58c0-2.65.89-5.2 1.55-7.76 1.95-7.59 1.95-16.48-3.28-22.31-5-5.55-13.11-6.71-20.52-7.52a9 9 0 0 0 -3.84.13c-1.92.64-3.16 2.44-4.26 4.14" fill="#fff"/><path d="m192 230a273.79 273.79 0 0 1 1.58 99.19c11.89-14.3 17.06-32.86 21.93-50.82 1-3.73 2-7.67 1-11.4s-4.8-7-8.53-6c.12-4.61 5.86-7.6 6-12.21a10.12 10.12 0 0 0 -1.59-4.91 76.39 76.39 0 0 0 -15.44-19.77c-1.26-1.15-4-1.76-4.05-.06" fill="#fff"/><path d="m191.12 230.25a282.19 282.19 0 0 1 4 77q-.93 10.88-2.74 21.64c-.19 1.12 1.23 2.34 2.14 1.25 6.92-8.38 11.67-18.18 15.32-28.35 1.85-5.17 3.43-10.44 4.92-15.73q1.11-4 2.18-8a26.94 26.94 0 0 0 1.27-8.81c-.4-5.26-4.69-10.87-10.52-9.48l1.62 1.24c.16-2.94 2.79-5.18 4.32-7.5a9.43 9.43 0 0 0 1.62-4.1 9.67 9.67 0 0 0 -1.31-5.4 72.23 72.23 0 0 0 -14.94-19.8c-1.28-1.2-2.56-2.31-4.38-2.47a2.53 2.53 0 0 0 -3 2.31c-.18 1.39 2.25 1.73 2.47.33.06-.4-.19-.11.13-.11a2.53 2.53 0 0 1 .9.22 7.47 7.47 0 0 1 2.13 1.75c1.56 1.52 3.07 3.07 4.51 4.71a74 74 0 0 1 8 11c1.09 1.82 2.49 3.82 2.86 5.95a6.41 6.41 0 0 1 -1.5 4.74c-1.83 2.66-4.2 5-4.38 8.41a1.29 1.29 0 0 0 1.62 1.23 5.67 5.67 0 0 1 5.65 2.43 9.85 9.85 0 0 1 1.63 6.87 44.64 44.64 0 0 1 -1.78 8.14c-.63 2.3-1.26 4.61-1.91 6.91-2.69 9.45-5.72 18.89-10.19 27.68a76 76 0 0 1 -9.06 14l2.14 1.24a272.34 272.34 0 0 0 1.69-78.12c-.9-7.27-2.14-14.49-3.64-21.65-.24-1.14-2-.65-1.74.48z"/><path d="m209.89 151.27a50.55 50.55 0 0 0 9.26 22.07c1.62 2.18 3.38 5.41 1.39 7.26a12.18 12.18 0 0 1 -2 1.2c-2.85 1.8-2.88 5.86-2.71 9.22.37 7.17-.14 15.22-5.37 20.14s-13.1 4.94-20 3.65c-19.06-3.54-37.13-17-41.68-35.87-2.13-8.82-1.23-18.17 1.34-26.87 1.92-6.48 4.88-12.84 9.8-17.48 8.88-8.36 23-9.49 34.28-5 7.76 3.08 15.24 13.35 15.73 21.68" fill="#fff"/><path d="m149.62 178.7c-1.66-8.1-.8-16.55 1.31-24.48 1.89-7.06 4.91-14.18 10.48-19.13a28.34 28.34 0 0 1 17.83-6.67c6.21-.23 13.19 1 18.33 4.67 5.72 4.1 10.37 11.14 11.27 18.18.17 1.29 2.11 1.39 2.09 0-.07-6.9-4.26-13.7-9.17-18.3-5.21-4.87-12.16-6.93-19.18-7.32a32.81 32.81 0 0 0 -20.42 5.35c-6.51 4.5-10.44 11.56-12.87 18.95-3.11 9.45-4 19.57-1.43 29.26a.91.91 0 0 0 1.76-.48z"/><path d="m209 151.27a47.78 47.78 0 0 0 5.65 17.73c1.45 2.55 3.49 4.81 4.78 7.44.46.94 1 2.33.12 3.18a10.67 10.67 0 0 1 -1.71 1 6.6 6.6 0 0 0 -1.49 1.3c-1.63 1.94-2 4.6-2 7.05 0 2.65.23 5.29.09 7.94-.27 5.27-1.66 11-6.15 14.26-5.12 3.75-11.92 3.25-17.89 2.62-1.18-.12-1.39 1.76-.28 2.06 5.57 1.45 11.89 1.55 17.2-.9s8.39-7.7 9.4-13.35a42.71 42.71 0 0 0 .56-8.68c-.06-2.59-.53-5.49.47-8a4.75 4.75 0 0 1 2.51-2.46 4.52 4.52 0 0 0 2.47-3.17c.5-2.91-1.59-5.5-3.15-7.71a55.15 55.15 0 0 1 -8.81-20.58c-.2-1-1.92-.79-1.79.24z"/><path d="m207.41 165.3c-.14.07-.27.13-.4.21a3.5 3.5 0 0 0 -.55.4 2.69 2.69 0 0 0 -.7.87 2.48 2.48 0 0 0 -.29 1.12 4 4 0 0 0 .07.5 2.07 2.07 0 0 0 .67 1.17l.28.21a1 1 0 0 0 .5.16 1.39 1.39 0 0 0 .87-.16 1.42 1.42 0 0 0 .28-.2 1.78 1.78 0 0 0 .26-.22 2.66 2.66 0 0 0 .5-.86 2.39 2.39 0 0 0 .12-.7 2.84 2.84 0 0 0 -.06-.5 1.05 1.05 0 0 0 -.05-.19 1.44 1.44 0 0 0 -.37-.63l-.29-.22a1.41 1.41 0 0 0 -2 .68 1.42 1.42 0 0 0 .07 1.27v.06l-.15-.34a.79.79 0 0 1 .06.22l-.05-.38a.89.89 0 0 1 0 .23l.05-.37a.9.9 0 0 1 -.06.22l.14-.33a2 2 0 0 1 -.11.2l.21-.28a.81.81 0 0 1 -.16.16l.28-.22h1.37-.05l.28.22a.87.87 0 0 1 -.17-.16l.22.27a.82.82 0 0 1 -.12-.2l.14.32a1.65 1.65 0 0 1 -.11-.45v.35a2.29 2.29 0 0 1 0-.37v.33a1.6 1.6 0 0 1 .11-.39l-.12.28a6.57 6.57 0 0 1 .63-1l.1-.22a.78.78 0 0 0 0-.37.8.8 0 0 0 -.25-.53 1 1 0 0 0 -1.12-.15z"/><path d="m178.29 169.33c.13 0 0 0-.07 0h.14c.1 0-.16-.05-.07 0a.23.23 0 0 0 .11 0c.11 0-.17-.09 0 0l.11.06c.1.06 0 0 0 0a.36.36 0 0 0 .11.1.6.6 0 0 0 .08.08c.07.08-.12-.18 0 0s.09.15.12.22a1.34 1.34 0 0 0 .06.12c-.05-.12-.06-.14 0-.08a.14.14 0 0 0 0 .06c0 .09.06.19.08.28a5.23 5.23 0 0 1 .12.54s0 .08 0 .13 0-.25 0 0 0 .17 0 .26a1.41 1.41 0 0 1 0 .29s0 .09 0 .13 0-.21 0 0l-.06.25s-.09.2 0 .06v.06l1.35-.35c.13.11.16.13.11.08l.09.11s-.09-.17 0 0 0 0 0 0c0 .18 0 .23 0 .15v-.07s-.07.3 0 .11-.05.1-.05.1v-.06c0-.06 0 0-.1.12.11-.12-.22.15-.07.05a1 1 0 0 0 .37-1.41 1.05 1.05 0 0 0 -1.41-.37 1.81 1.81 0 0 0 -.57.63 1.72 1.72 0 0 0 -.2.83 1.77 1.77 0 0 0 .78 1.43 1 1 0 0 0 1.35-.36 3.48 3.48 0 0 0 .33-1.88 6.08 6.08 0 0 0 -.32-1.58 3.06 3.06 0 0 0 -1.08-1.53 2.08 2.08 0 0 0 -1.74-.33.91.91 0 0 0 -.63 1.11.92.92 0 0 0 1.11.63z"/><path d="m310.29 224.36v304.81a38.76 38.76 0 0 0 38.76 38.77h556.33a38.76 38.76 0 0 0 38.76-38.77v-304.81a38.77 38.77 0 0 0 -19.38-33.57l-278.17-160.6a38.78 38.78 0 0 0 -38.76 0l-278.16 160.6a38.75 38.75 0 0 0 -19.38 33.57z" fill="#18c4ff"/><path d="m309 224.36v300.38c0 2.8-.08 5.61.2 8.4a40.41 40.41 0 0 0 25.57 33.44c7.35 2.82 14.72 2.62 22.36 2.62h538.11c5.13 0 10.47.32 15.57-.37a40.39 40.39 0 0 0 32.41-26.59 47.38 47.38 0 0 0 2.19-15.77v-278.58c0-7.77.06-15.54 0-23.3a40.59 40.59 0 0 0 -17.24-33.13c-2.09-1.46-4.35-2.68-6.56-4l-29.4-17-50-28.89-59.69-34.46-59.32-34.11-47.8-27.64-26.15-15.1a45 45 0 0 0 -18.44-6.36c-8.85-.83-17.31 1.55-24.92 6l-24.31 14-46.67 26.93-58.85 34-60 34.63-51.06 29.44-31.1 18c-1.62.93-3.25 1.86-4.86 2.81a40.64 40.64 0 0 0 -20.04 34.65 1.27 1.27 0 0 0 2.54 0 38.11 38.11 0 0 1 19.09-32.67c2.12-1.24 4.25-2.46 6.38-3.68l32.99-19.01 51.71-29.85 59.7-34.47 57.69-33.34 45.41-26.22q11.49-6.61 22.94-13.24c9.68-5.57 20.89-7.24 31.62-3.69a55.33 55.33 0 0 1 10.13 5l28.29 16.31 48.66 28.09 58.89 34 58.88 34 48.66 28.1 28.23 16.31a58 58 0 0 1 8.77 5.74 38.27 38.27 0 0 1 13.29 29.47v26.2 275.51c0 6.44-.88 12.72-3.74 18.61a38 38 0 0 1 -33.81 21.14c-4.22 0-8.43 0-12.64 0h-535.68c-8.25 0-16.13.12-23.91-3.56a38 38 0 0 1 -21.51-34c0-2.12 0-4.25 0-6.37v-298.38a1.27 1.27 0 0 0 -2.58 0z"/><path d="m395.28 492.69c-9.49-83.37-10.83-283.93-2.06-367.38.38-3.62.85-7.44 3.06-10.33 2.42-3.18 6.45-4.62 10.28-5.75 15.13-4.45 30.83-6.56 46.47-8.62 128.23-16.93 257.91-32 386.68-19.73 6.78.64 14 1.56 19.17 6 7.08 6.12 7.82 16.64 8 26q4.27 179.33 8.57 358.65"/><path d="m396.25 492.69c-2.87-25.69-4.25-51.53-5.25-77.34-1.37-32.81-2.05-65.65-2.28-98.48-.23-33.23 0-66.47.88-99.69.72-27.34 1.74-54.72 4.12-82 .22-2.63.47-5.25.73-7.87.46-4.54.68-9.78 4.39-13 4-3.47 10.32-4.47 15.3-5.7 5.71-1.4 11.47-2.53 17.26-3.5 23.49-4 47.26-6.53 70.89-9.47 47.38-5.91 94.86-11.11 142.5-14.36s95.47-4.52 143.2-2.51q17.82.75 35.63 2.13c5.89.46 11.78.94 17.65 1.55 5 .52 10.18 1.27 14.5 3.92 8.25 5 9.34 15.59 9.65 24.36.41 12 .56 23.91.83 35.86q1.66 72.32 3.33 144.62 1.66 72.56 3.37 145.1.44 17.59.88 35.19c.05 2.21 3.49 2.22 3.44 0q-1.77-73.76-3.56-147.51-1.81-73.51-3.64-147l-.92-37.12c-.28-11.33 0-22.84-1-34.14-.75-8.41-3.2-17.21-10.85-21.87-3.9-2.38-8.47-3.36-12.94-4-5.61-.75-11.27-1.14-16.9-1.6-48.39-4-97-4.17-145.52-2s-96.8 6.74-145 12.33c-24.19 2.81-48.34 5.87-72.49 9-11.57 1.52-23.17 2.91-34.68 4.88-5.79 1-11.55 2.15-17.24 3.58-4.74 1.2-10.09 2.27-14.19 5.08-6.62 4.54-6.41 13.28-7.07 20.48q-.81 8.72-1.4 17.44c-1 13.75-1.62 27.53-2.13 41.31-1.2 32.69-1.6 65.41-1.57 98.13q.06 51.08 1.73 102.14c1 28.67 2.3 57.37 4.86 85.95.48 5.34 1 10.67 1.62 16 .14 1.24 2.09 1.25 1.95 0z"/><path d="m924.76 279.72-278.17 160.6a38.78 38.78 0 0 1 -38.76 0l-278.16-160.6a38.77 38.77 0 0 1 -19.38-33.57v-21.79 304.81a38.76 38.76 0 0 0 38.76 38.77h556.33a38.76 38.76 0 0 0 38.76-38.77v-283a38.77 38.77 0 0 1 -19.38 33.55z" fill="#fff"/><path d="m924.12 278.62-32.12 18.52-75.18 43.41-86.66 50-66.5 38.45-15.9 9.18c-12.39 7.15-26.67 8.16-39.4 1-11.84-6.68-23.56-13.59-35.33-20.39l-76.65-44.29-86.38-49.86-64.48-37.23-14.12-8.15a41.19 41.19 0 0 1 -10.8-8.68c-6.88-8-9.05-17.58-9.05-27.84v-18.38a1.27 1.27 0 0 0 -2.54 0v265.22q0 19.35 0 38.69a40.78 40.78 0 0 0 16.36 33.18c7.34 5.42 16.05 7.75 25.07 7.75h532.56 22a40.59 40.59 0 0 0 34.49-19.11c4.58-7.46 5.89-15.7 5.89-24.26v-279.68a1.27 1.27 0 0 0 -2.54 0 38.07 38.07 0 0 1 -18.75 32.47 1.27 1.27 0 0 0 1.28 2.19 40.7 40.7 0 0 0 20-34.66h-2.54v260.85c0 14.09 2 30.12-6 42.49a38.08 38.08 0 0 1 -32.19 17.16h-554.01c-9.09 0-17.83-2.44-25-8.22-9.54-7.68-14.05-18.93-14.05-31v-303.07a1.27 1.27 0 0 0 -2.54 0v19.28c0 9.7 2.18 18.85 8.15 26.7 4.67 6.14 10.79 9.86 17.26 13.59l53.17 30.7 84.62 48.86 82.68 47.73 49.08 28.36c1 .59 2.06 1.2 3.1 1.79a40.68 40.68 0 0 0 31.14 3.86c5.75-1.65 10.77-4.85 15.89-7.81l55.87-32.22 85.12-49.15 81.88-47.3 46.22-26.68 2.17-1.26a1.27 1.27 0 0 0 -1.27-2.19z"/><path d="m318.08 306.05c1-7.14 2-14.32 4.3-21.16 1.08-3.25 2.58-6.58 5.38-8.57s7.2-2.06 9.27.67a20.17 20.17 0 0 1 10-6.6 12.33 12.33 0 0 1 11.35 2.51 2.57 2.57 0 0 1 .91 1.43c.32 2.23-3.78 2.26-4.69 4.32a3.85 3.85 0 0 1 3.51 6.37 5.49 5.49 0 0 1 4.71 5.09c0 .86-.15 1.72-.07 2.58a19.23 19.23 0 0 0 .59 2.35c1.23 5-2.24 9.8-5.77 13.51a102.74 102.74 0 0 1 -14.15 12.36c-3.38 2.44-7.11 4.75-11.27 5" fill="#fff"/><path d="m205.75 195.08.12-.16s-.13.17-.05.06a2.43 2.43 0 0 0 .33-.46 5.82 5.82 0 0 1 .34-.6c.12-.19.25-.37.38-.55s-.13.16 0 0a1.47 1.47 0 0 0 .1-.13l.24-.27a8.62 8.62 0 0 1 1-.93h-.06l.13-.1.27-.19c.2-.13.41-.26.62-.37a1.25 1.25 0 0 0 -1.26-2.17 9.19 9.19 0 0 0 -2.37 2.11 10 10 0 0 0 -.95 1.39c-.11.21-.22.43-.32.65a2.53 2.53 0 0 0 -.18.55c0 .2-.06.39-.08.59a1 1 0 0 0 .71.93 1 1 0 0 0 1.09-.45z"/><path d="m201.41 157.5h.12l-.62-.26c.54.57 1.42.31 2.1.2l1.57-.23c1.09-.17 2.19-.28 3.26-.52a1.23 1.23 0 0 0 .85-1.5 1.26 1.26 0 0 0 -1.5-.85c-1.06.16-2.11.44-3.15.67l-1.54.33c-.58.13-1.46.22-1.73.84l.53-.4h-.12a.86.86 0 0 0 .23 1.68z"/><path d="m212.63 147.79q-12.47 3.61-25 6.9a43.91 43.91 0 0 1 -1.32 11.13c-2.83-4.31-9.83-5-13.43-1.29s-2.76 10.67 1.62 13.4l-8.29 30a13 13 0 0 1 -1.51 3.8 9.57 9.57 0 0 1 -4.93 3.38c-6.63 2.3-13.92.75-20.66-1.18q-8.79-2.52-17.32-5.85c-3.65-1.43-7.34-3-10.21-5.7s-4.79-6.68-4-10.52c.59-2.92 2.59-5.33 4.48-7.62 5.24-6.35 10.72-12.63 15.1-19.62 4.78-7.65 9.19-15.57 14.1-23.12 3.74-5.76 8.58-11.82 15.95-12.44a9.19 9.19 0 0 0 3.77-.69 10.14 10.14 0 0 0 2.42-2.3 19.25 19.25 0 0 1 8.85-5 40.11 40.11 0 0 1 26.24 1.59 52 52 0 0 1 21 16.18 6.85 6.85 0 0 1 1.67 3.25 6.67 6.67 0 0 1 -1.56 4.38 40.08 40.08 0 0 1 -7 7.77l-1-5"/><path d="m212.4 147c-8.42 2-16.76 4.33-25.13 6.51a1.29 1.29 0 0 0 -.94 1.22 44.61 44.61 0 0 1 -1.33 10.75l2.36-.31c-3.38-4.93-11.2-5.94-15.48-1.56s-3.13 12.18 1.89 15.46l-.61-1.49q-3.93 14.14-7.87 28.3c-.54 1.94-.9 4.22-2.34 5.73a10.76 10.76 0 0 1 -5.36 2.66c-4.51 1.1-9.26.49-13.72-.55s-9-2.49-13.41-4a103.93 103.93 0 0 1 -12.66-4.92c-3.58-1.77-7.09-4.31-8.46-8.22-1.5-4.24.65-7.67 3.27-10.88 5.69-7 11.57-13.77 16.29-21.45 4.89-7.95 9.31-16.23 14.63-23.9a27.83 27.83 0 0 1 7.34-7.72 14.33 14.33 0 0 1 4.94-2.06c2-.4 4.13-.08 5.92-1.16 1.6-1 2.59-2.67 4-3.82a18.59 18.59 0 0 1 5.57-2.89 35.68 35.68 0 0 1 12.93-1.79 43.2 43.2 0 0 1 23.77 8.66 53.17 53.17 0 0 1 8.77 8.19c1.21 1.41 3.3 3.32 2.86 5.36s-2.18 3.89-3.44 5.4a41.4 41.4 0 0 1 -4.6 4.67l2.34.62-1-5c-.34-1.73-3-1-2.65.73l1 5a1.42 1.42 0 0 0 2.34.62 41.9 41.9 0 0 0 4.92-5 19.08 19.08 0 0 0 3.83-5.91c.73-2.26-.09-4.28-1.46-6.07a55.06 55.06 0 0 0 -4.25-4.9 50.24 50.24 0 0 0 -22.4-13.66c-8.74-2.41-19.1-2.34-27.26 2a18.31 18.31 0 0 0 -5.14 4.12 4.42 4.42 0 0 1 -2.39 1.68c-1.14.26-2.35.2-3.51.38a18.47 18.47 0 0 0 -10 5.52 55.3 55.3 0 0 0 -7.33 9.87c-2.75 4.37-5.37 8.81-8 13.23s-5.18 8.66-8.16 12.73-6.19 7.87-9.41 11.71c-2.79 3.33-6.3 6.8-6.89 11.31-.55 4.19 1.52 8.34 4.53 11.16 3.3 3.1 7.58 4.8 11.75 6.4q7.18 2.76 14.58 4.94a59 59 0 0 0 14.64 2.89c4.31.14 9.29-.58 12.73-3.42a10.46 10.46 0 0 0 3.15-5.52c.71-2.51 1.38-5 2.07-7.54l4.2-15.23c.69-2.54 1.39-5.07 2.09-7.61a1.34 1.34 0 0 0 -.6-1.49c-3.61-2.35-4.42-8.2-1.37-11.34s8.93-2.54 11.4 1a1.31 1.31 0 0 0 2.36-.3 47.73 47.73 0 0 0 1.35-11.48l-.94 1.23c8.35-2.21 16.75-4.46 24.92-7.3a.86.86 0 0 0 -.46-1.66z"/><path d="m190.94 237.81c.78-3.44 1.49-6.9 2.21-10.36s1.64-6.87 2.07-10.33c.18-1.5-2.24-1.77-2.6-.35-.43 1.7-.62 3.49-.91 5.23s-.57 3.36-.85 5c-.57 3.42-1.15 6.85-1.66 10.29-.16 1.11 1.47 1.63 1.74.48z"/><path d="m152.74 232.15a89.51 89.51 0 0 0 4.39-9.92q.94-2.56 1.74-5.19a19.82 19.82 0 0 0 1.25-5.28c0-1.08-1.67-1.67-2.17-.58a31.67 31.67 0 0 0 -1.38 5.23c-.43 1.64-.91 3.28-1.44 4.9a84.77 84.77 0 0 1 -4 9.92c-.49 1 1 2 1.58.92z"/><path d="m153.49 229.08c-1.07 7.72 1 15.52 3.36 22.93 8.78 27.18 22.66 52.38 36.46 77.38-14.45-9.71-27.26-21.63-40-33.49-3.11-2.9-6.31-5.9-7.8-9.9-2.24-5.94-.15-12.59 2.48-18.37-4.11-1.32-8.64-3-10.52-6.87-1.69-3.5-.64-7.67.63-11.35a110.63 110.63 0 0 1 7.9-17.69c1.84-3.31 4.29-6.84 8-7.51l-.43 2.53" fill="#fff"/><path d="m152.61 228.84c-1 7.19.33 14.32 2.39 21.2s4.51 13.58 7.17 20.21a406.88 406.88 0 0 0 18.38 38.53c3.79 7.14 7.68 14.22 11.58 21.3l1.87-1.86a240.44 240.44 0 0 1 -25.57-20.32c-4.09-3.65-8.1-7.37-12.11-11.1-3.49-3.25-7.71-6.57-9.46-11.16-2.17-5.72 0-12 2.35-17.29a1.44 1.44 0 0 0 -.85-2.07c-3.46-1.12-7.68-2.46-9.51-5.9-2.17-4.07.05-9.27 1.5-13.2a108.46 108.46 0 0 1 5.87-13.18c1.82-3.45 4-7.73 8.13-8.61l-1.51-1.51c-.13.85-.25 1.7-.37 2.55-.21 1.44 1.94 2.12 2.24.62.17-.84.33-1.68.5-2.52a1.25 1.25 0 0 0 -1.52-1.51c-3.48.7-5.91 3.43-7.74 6.3a84.25 84.25 0 0 0 -5.81 11.25 71.69 71.69 0 0 0 -4.4 11.84c-.92 3.8-.79 7.83 1.78 11s6.47 4.43 10.09 5.6l-.84-2.07c-2.26 5-4.2 10.5-3.44 16.07.71 5.26 4.06 9.23 7.78 12.76 8.39 7.95 16.94 15.8 25.89 23.12 5 4.12 10.22 8.06 15.62 11.69 1.18.79 2.49-.73 1.87-1.86-13.49-24.47-27.12-49.12-36.06-75.72-2.59-7.69-5-15.74-4-23.94.11-1-1.65-1.26-1.8-.24z"/><path d="m208.58 351.34c-2.66 17.22-6.08 34.27-12 50.7q-2.53 7-5.5 13.91c-.56 1.3 1.32 2.45 1.94 1.13a195.09 195.09 0 0 0 15.78-50.48 122 122 0 0 0 1.5-15c0-1-1.57-1.22-1.72-.23z"/><path d="m189.68 327.91a10.16 10.16 0 0 0 2.19 2.34c.84.62 1.67 1.26 2.52 1.86 1.67 1.18 3.34 2.37 5.1 3.42 1.08.65 2.33-.89 1.36-1.76-1.52-1.37-3.16-2.6-4.77-3.85-.84-.66-1.71-1.28-2.57-1.91a10 10 0 0 0 -2.84-1.38.88.88 0 0 0 -1 1.28z"/><path d="m95.07 622.41c-8.29 30.06-12.8 61-16.27 92-3.53 31.49-6.06 63.13-8.47 94.73-2.64 34.58-4.1 69.27-8.06 103.75q-1.53 13.3-3.62 26.55-1 6.44-2.23 12.84a89.11 89.11 0 0 0 -1.86 10.87c-.19 2.91.24 6 2.12 8.29s5.08 3.3 8.09 3.7a175.06 175.06 0 0 0 23.68 1.2c4.14 0 8.28-.19 12.41-.45 3.11-.19 6.06-.28 9-1.51 4.26-1.82 10.71-6.19 8.75-11.7-1.11-3.1-4.21-4.73-6.5-6.85a26.88 26.88 0 0 1 -6.36-8.55 16.22 16.22 0 0 1 -1.15-11.28c1-3.43 2.55-6.68 3.64-10.08q11.27-35.34 21.68-70.94c8-27.39 15.57-54.91 22.41-82.61 6.77-27.42 12.87-55 17.56-82.89a636.8 636.8 0 0 0 8.08-75c.11-2.2 1.34-8.52-2.26-8.71-.3 0-.62 0-.92 0 .43 0-.35-.19 0 0l-.51-.3c-1.68-1.42-2.58-4.16-3.31-6.25a132.37 132.37 0 0 1 -4.59-17.55c-.33-1.58-2.75-.91-2.42.67a128.92 128.92 0 0 0 4.47 17.76c.85 2.38 1.81 5.09 3.61 6.94a4.41 4.41 0 0 0 3.15 1.44h.42.06c0 .24-.34-.77-.33-.16 0 .35.12 1.11.12 1.87 0 1.39 0 2.79-.12 4.18-.27 5.84-.69 11.67-1.07 17.5-.81 12.36-2.13 24.68-3.84 37-3.74 26.87-9.1 53.51-15.17 80-6.33 27.54-13.5 54.88-21.16 82.08-6.94 24.68-14.3 49.25-21.9 73.74l-5.2 16.31c-.86 2.74-1.63 5.52-2.65 8.21-1.27 3.33-2.83 6.67-2.89 10.3-.1 6.61 3.62 12.83 8.19 17.34 2.11 2.08 6.76 4.38 6.76 7.74 0 2.89-3.4 5.16-5.61 6.4-2.89 1.63-5.6 2-8.86 2.19-3.93.25-7.87.41-11.81.45a212.75 212.75 0 0 1 -24.07-1.11c-3.4-.35-7.17-1.18-8.41-4.82-1.07-3.16-.25-6.72.38-9.88 1.67-8.39 3.1-16.83 4.34-25.3 4.91-33.58 6.81-67.48 9.07-101.31 2.1-31.62 4.78-63.24 7.77-94.8 2.94-31 6.52-62 12.83-92.55q2.19-10.54 4.9-21a1 1 0 0 0 -1.91-.53z"/><path d="m189.57 637.15c-7.52 33.55-9.68 68-9 102.3.69 34.69 4 69.26 7.17 103.8 3.16 34.72 6.1 69.54 5.85 104.44q0 6.31-.23 12.63c-.11 3.29-.94 7.57 1 10.5 1.71 2.54 4.9 2.82 7.69 2.85 4.68.05 9.36 0 14-.14q13.65-.3 27.3-1.23c3.06-.21 5.82-.53 8.18-2.68a10 10 0 0 0 3.18-6.71c.19-3-1.23-5.48-3-7.82-2.19-2.91-4.69-5.56-7.14-8.24-2.63-2.87-5.73-5.77-7.67-9.18s-1.51-7.43-1-11.26q1.19-9.18 2.3-18.39 3.21-26.22 6.2-52.49 3.79-32.87 7.45-65.74 3.84-34.51 7.55-69 3.39-31.61 6.62-63.23c1.6-15.81 3.19-31.62 4.57-47.45.23-2.71.46-5.41.67-8.12.13-1.61-2.38-1.6-2.51 0-1.09 13.86-2.43 27.69-3.79 41.53q-2.9 29.41-6 58.8-3.56 33.59-7.27 67.15-3.66 33.36-7.46 66.69-3.24 28.36-6.6 56.72-1.29 10.92-2.64 21.82-.56 4.44-1.12 8.87c-.67 5.29-1.75 10.76 1.13 15.62 1.84 3.11 4.56 5.76 7 8.42 2.6 2.87 5.34 5.65 7.68 8.75 1.85 2.46 3.31 5 2.34 8.17a7.4 7.4 0 0 1 -6.41 5.18c-8.76 1-17.75 1-26.56 1.24q-6.82.17-13.66.17c-3.52 0-9 .87-9.58-3.86a32.82 32.82 0 0 1 .06-5.15q.12-3.33.19-6.66.13-6.31.12-12.63 0-12.84-.53-25.65c-.67-17-1.88-34-3.3-51-2.87-34.18-6.63-68.3-8.46-102.56-1.81-33.81-1.78-67.94 3-101.52q1.76-12.27 4.38-24.4c.25-1.15-1.5-1.64-1.76-.49z"/><path d="m117.66 965.2c.33-2.51-1.65-4.71-3.68-6.23a33 33 0 0 1 -5.75-5.48c-1.75.46-3.49 1-5.19 1.57a77.67 77.67 0 0 1 -28.21 3.39c-6-.39-12-1.45-18-1.4-.08.4-.15.81-.23 1.21-.89 4.41-1.61 9.64 1.56 12.82 2.16 2.16 5.46 2.61 8.5 2.89a213.32 213.32 0 0 0 38.74.29c4.05-.26 11.67-4.58 12.26-9.06z"/><path d="m242.27 946c-1.66.86-3.27 1.85-4.89 2.78a75.15 75.15 0 0 1 -42.7 9.74c-.06 2-.1 4-.17 6s-.1 4.49 1.33 6.06 4 1.79 6.24 1.79q21.79.07 43.55-1.46a8.53 8.53 0 0 0 6.57-13.14c-2.58-3.95-5.95-7.32-9.93-11.77z"/><path d="m90 272.3c-7.6 15.7-5.77 34.7 1.32 50.59s18.89 29.23 31.18 41.57a472.07 472.07 0 0 0 61.94 52.3c5.26 3.72 10.71 7.39 16.88 9.22 12.61 3.75 26.18-.65 37.93-6.55 34.12-17.12 60.34-46.33 85.7-74.87 5.87-6.6 12-13.62 13.85-22.25s-2.12-19.24-10.67-21.47c-7.87-2-15.51 3.4-22 8.25-27.9 20.76-59.44 36-90.77 51.09-2.55 1.23-5.31 2.49-8.1 2-2.61-.47-4.68-2.41-6.58-4.27q-27.4-26.82-53-55.4" fill="#18c4ff"/><path d="m305.54 308.13c-20.46 14.65-42.5 26.7-65 38q-8.43 4.23-16.93 8.33l-8.49 4.11c-2.61 1.26-5.69 2.93-8.65 1.82-2.59-1-4.57-3.36-6.48-5.24q-3.61-3.56-7.21-7.13-7-7-13.88-14.09c-10.28-10.62-20.47-21.37-30.39-32.33-1.13-1.25-3 .6-1.85 1.86 9 10.11 18.05 20.09 27.41 29.85q7 7.31 14.15 14.5 3.57 3.6 7.17 7.16a80.37 80.37 0 0 0 6.83 6.48 10 10 0 0 0 8 2.26c3.1-.51 6-2.19 8.75-3.53q8.72-4.2 17.39-8.44c11.56-5.69 23-11.6 34.18-18a315.29 315.29 0 0 0 36.07-23.65c1.11-.85.06-2.76-1.12-1.92z"/><path d="m121.72 365.25a440.72 440.72 0 0 0 43.55 39.07c7.56 5.95 15.21 11.93 23.28 17.18a47.52 47.52 0 0 0 12.56 6.08 37.47 37.47 0 0 0 13.62 1.22c9.48-.83 18.44-4.45 26.82-8.78a173.32 173.32 0 0 0 22.53-14c14.52-10.6 27.55-23 39.88-36.07 6.26-6.61 12.34-13.37 18.39-20.17 5.74-6.44 12-13 15.63-20.95a31.06 31.06 0 0 0 2.08-6.14c.37-1.64-2.14-2.34-2.52-.7-2 8.55-7.91 15.21-13.64 21.55-5.9 6.46-11.72 13.1-17.71 19.56-11.94 12.86-24.43 25.3-38.27 36.13a181.74 181.74 0 0 1 -21.64 14.64c-7.86 4.52-16.14 8.62-25 10.69a42.35 42.35 0 0 1 -13.51 1.07 34.15 34.15 0 0 1 -12.88-4.08 111.27 111.27 0 0 1 -11.53-7.47q-5.83-4.12-11.54-8.43a502.92 502.92 0 0 1 -43.37-37c-1.73-1.64-3.45-3.3-5.15-5a1.11 1.11 0 0 0 -1.57 1.57z"/><path d="m318.89 302.11c2.73-5.07 3.35-10.89 5.17-16.3a21 21 0 0 1 3.34-6.38 12.32 12.32 0 0 1 2.6-2.43c1-.68 2.13-1 3-1.72s.1-2.05-.85-2.05c-2.27 0-4.75 2.22-6.17 3.82a22.59 22.59 0 0 0 -4 6.72c-2.25 5.71-2.41 12-4.77 17.7-.38.93 1.15 1.56 1.62.68z"/><path d="m337.11 280a13 13 0 0 1 8.37-7.14 19.86 19.86 0 0 1 6.22-.86 17.44 17.44 0 0 1 3.23.24 18.81 18.81 0 0 1 2.93 1c1.11.42 1.91-1.16 1.12-1.92-1.72-1.67-4.6-2-6.89-2.07a20.5 20.5 0 0 0 -7.69 1.13 14.66 14.66 0 0 0 -9 9.12c-.37 1.14 1.33 1.54 1.76.48z"/><path d="m350.39 284.67a7.87 7.87 0 0 1 3.72-3.27 9.44 9.44 0 0 1 1.27-.42 6.75 6.75 0 0 1 1.13-.21 8.44 8.44 0 0 1 1.33 0 3.2 3.2 0 0 0 1.57 0 1.16 1.16 0 0 0 .51-1.92c-.93-.83-2.52-.62-3.66-.45a9.65 9.65 0 0 0 -3 1 10 10 0 0 0 -4.39 4.41c-.49 1 1 1.9 1.53.9z"/><path d="m355.89 291.09a5.62 5.62 0 0 1 3.21-2.36 6.93 6.93 0 0 1 1.16-.33 3.19 3.19 0 0 1 .45 0s.33 0 .17 0h.12l.28.08c.1 0 .14.06 0 0l.26.14s.21.14.1.06.32.35.14.13c.17.2.31.4.49.58a1.19 1.19 0 0 0 2-.83 3 3 0 0 0 -2.29-2.5 4.84 4.84 0 0 0 -3.29.2 8 8 0 0 0 -4.62 4.08 1 1 0 0 0 1.79.75z"/><path d="m362.43 294.62a15.6 15.6 0 0 1 -.51 5.61c-.24.67-.76 2.18-1.4 2.55-1 .61-1.26-1.13-1.4-1.87a1.33 1.33 0 0 0 -2.41-.31 40.28 40.28 0 0 1 -7.07 10.67 38.63 38.63 0 0 1 -4.57 4.2c-1.73 1.35-3.8 2.29-5.47 3.68-1.05.88.08 2.67 1.33 2.27 2.06-.65 4-2.27 5.7-3.58a39.88 39.88 0 0 0 12.49-16.23h-2.54c.34 1.52.93 3.09 2.5 3.69s2.95-.31 3.81-1.63c1.7-2.63 2.51-6.55 1.24-9.51-.38-.86-1.71-.38-1.7.46z"/><g fill="#18c4ff"><path d="m627.21 181.64c-31.9 0-57.77 37.09-57.77 82.83s25.87 82.83 57.77 82.83 57.79-37.08 57.79-82.83-25.88-82.83-57.79-82.83zm0 133.4c-13.59 0-24.61-22.64-24.61-50.57s11-50.57 24.61-50.57 24.62 22.64 24.62 50.57-11.02 50.53-24.62 50.53z"/><path d="m286.25 58.86a103.42 103.42 0 0 0 -26.25 70.27c.12 8 1 16.4 3.65 24 2.34 6.74 6.37 13.59 13 16.8 7.58 3.67 16.38 1.59 22.84-3.39 7-5.39 11.11-13.92 13.63-22.19.94-3.1 1.4-7.49-1.69-9.58-3.56-2.4-8.18.49-10.79 3-5.89 5.75-7.65 14.92-7.89 22.83a53.5 53.5 0 0 0 5.74 25.66 44.61 44.61 0 0 0 3.41 5.67c1 1.37 3.23.1 2.28-1.34a51.73 51.73 0 0 1 -8.41-22.77c-.84-7.6-.28-16.13 3.22-23.06 1.6-3.17 4-6.24 7.36-7.67 1.52-.65 3.61-.84 4.4 1a7.5 7.5 0 0 1 0 4.59 50.09 50.09 0 0 1 -4.45 11.17 33.71 33.71 0 0 1 -7.36 9.69c-5.58 4.91-13.93 7.5-20.94 4.14-6.07-2.91-9.71-9.09-11.88-15.22a74.16 74.16 0 0 1 -3.66-22 101.39 101.39 0 0 1 21.45-65.87q1.79-2.25 3.71-4.41c.84-.93-.53-2.32-1.38-1.38z"/><path d="m352.75 555.13c19.3-4.18 38.34-9.46 57.26-15.1q27-8.06 53.8-16.49c17.42-5.47 34.77-11.17 51.92-17.43 16.95-6.19 33.72-12.9 50.1-20.48a436.94 436.94 0 0 0 47.93-25.72q2.85-1.77 5.65-3.6c1.1-.73.08-2.5-1-1.78a436.65 436.65 0 0 1 -47.41 26.27c-16.39 7.82-33.2 14.75-50.22 21.09s-34.13 12.05-51.36 17.57c-17.7 5.66-35.46 11.11-53.23 16.52-18.81 5.73-37.68 11.28-56.82 15.81-2.35.56-4.72 1.1-7.08 1.63-1.12.25-.65 2 .47 1.71z"/><path d="m336.32 83.07a29.55 29.55 0 0 0 1.94 5q1.13 2.55 2.45 5a73.89 73.89 0 0 0 5.9 9.25c.78 1 2.58 0 1.78-1a79.47 79.47 0 0 1 -5.87-9.08c-.87-1.57-1.69-3.18-2.45-4.81s-1.31-3.37-2.13-5c-.48-.91-1.85-.27-1.62.68z"/><path d="m378.63 62.36c2.47 8.5 4.79 17.07 7.43 25.53a1 1 0 0 0 1.86-.51c-2.36-8.54-5.07-17-7.6-25.49a.88.88 0 0 0 -1.69.47z"/><path d="m421.62 53.55a229.24 229.24 0 0 1 .38 28.35c-.05 1.25 1.85 1.24 1.93 0a186.37 186.37 0 0 0 -.56-28.35c-.1-1.11-1.84-1.13-1.75 0z"/><path d="m466.08 52.52-6.51 23.37a1 1 0 0 0 2 .55l6.2-23.44a.88.88 0 0 0 -1.69-.46z"/></g></svg>