<svg id="Layer_1" xmlns="http://www.w3.org/2000/svg" xmlns:xlink="http://www.w3.org/1999/xlink" viewBox="0 0 500 500" data-imageid="online-shopping-46" imageName="Online Shopping" class="illustrations_image" style="width: 166px;"><defs><style>.cls-1_online-shopping-46{fill:url(#linear-gradient);}.cls-1_online-shopping-46,.cls-2_online-shopping-46,.cls-3_online-shopping-46,.cls-4_online-shopping-46,.cls-5_online-shopping-46,.cls-6_online-shopping-46,.cls-7_online-shopping-46,.cls-8_online-shopping-46,.cls-9_online-shopping-46,.cls-10_online-shopping-46,.cls-11_online-shopping-46,.cls-12_online-shopping-46,.cls-13_online-shopping-46,.cls-14_online-shopping-46,.cls-15_online-shopping-46,.cls-16_online-shopping-46,.cls-17_online-shopping-46,.cls-18_online-shopping-46,.cls-19_online-shopping-46,.cls-20_online-shopping-46,.cls-21_online-shopping-46,.cls-22_online-shopping-46,.cls-23_online-shopping-46,.cls-24_online-shopping-46,.cls-25_online-shopping-46,.cls-26_online-shopping-46,.cls-27_online-shopping-46,.cls-28_online-shopping-46,.cls-29_online-shopping-46,.cls-30_online-shopping-46,.cls-31_online-shopping-46,.cls-32_online-shopping-46,.cls-33_online-shopping-46,.cls-34_online-shopping-46,.cls-35_online-shopping-46,.cls-36_online-shopping-46,.cls-37_online-shopping-46,.cls-38_online-shopping-46,.cls-39_online-shopping-46,.cls-40_online-shopping-46,.cls-41_online-shopping-46,.cls-42_online-shopping-46,.cls-43_online-shopping-46,.cls-44_online-shopping-46,.cls-45_online-shopping-46,.cls-46_online-shopping-46,.cls-47_online-shopping-46,.cls-48_online-shopping-46,.cls-49_online-shopping-46,.cls-50_online-shopping-46,.cls-51_online-shopping-46{stroke-width:0px;}.cls-2_online-shopping-46{fill:url(#linear-gradient-38-online-shopping-46);}.cls-3_online-shopping-46{fill:url(#linear-gradient-33-online-shopping-46);}.cls-4_online-shopping-46{fill:url(#linear-gradient-29-online-shopping-46);}.cls-5_online-shopping-46{fill:url(#linear-gradient-32-online-shopping-46);}.cls-6_online-shopping-46{fill:url(#linear-gradient-30-online-shopping-46);}.cls-7_online-shopping-46{fill:url(#linear-gradient-31-online-shopping-46);}.cls-8_online-shopping-46{fill:url(#linear-gradient-36-online-shopping-46);}.cls-9_online-shopping-46{fill:url(#linear-gradient-39-online-shopping-46);}.cls-10_online-shopping-46{fill:url(#linear-gradient-34-online-shopping-46);}.cls-11_online-shopping-46{fill:url(#linear-gradient-35-online-shopping-46);}.cls-12_online-shopping-46{fill:url(#linear-gradient-28-online-shopping-46);}.cls-13_online-shopping-46{fill:url(#linear-gradient-25-online-shopping-46);}.cls-14_online-shopping-46{fill:url(#linear-gradient-11-online-shopping-46);}.cls-15_online-shopping-46{fill:url(#linear-gradient-12-online-shopping-46);}.cls-16_online-shopping-46{fill:url(#linear-gradient-13-online-shopping-46);}.cls-17_online-shopping-46{fill:url(#linear-gradient-10-online-shopping-46);}.cls-18_online-shopping-46{fill:url(#linear-gradient-17-online-shopping-46);}.cls-19_online-shopping-46{fill:url(#linear-gradient-16-online-shopping-46);}.cls-20_online-shopping-46{fill:url(#linear-gradient-19-online-shopping-46);}.cls-21_online-shopping-46{fill:url(#linear-gradient-15-online-shopping-46);}.cls-22_online-shopping-46{fill:url(#linear-gradient-23-online-shopping-46);}.cls-23_online-shopping-46{fill:url(#linear-gradient-21-online-shopping-46);}.cls-24_online-shopping-46{fill:url(#linear-gradient-18-online-shopping-46);}.cls-25_online-shopping-46{fill:url(#linear-gradient-14-online-shopping-46);}.cls-26_online-shopping-46{fill:url(#linear-gradient-22-online-shopping-46);}.cls-27_online-shopping-46{fill:url(#linear-gradient-20-online-shopping-46);}.cls-28_online-shopping-46{fill:url(#linear-gradient-27-online-shopping-46);}.cls-29_online-shopping-46{fill:url(#linear-gradient-24-online-shopping-46);}.cls-30_online-shopping-46{fill:url(#linear-gradient-26-online-shopping-46);}.cls-31_online-shopping-46{fill:url(#linear-gradient-44-online-shopping-46);}.cls-32_online-shopping-46{fill:url(#linear-gradient-47-online-shopping-46);}.cls-33_online-shopping-46{fill:url(#linear-gradient-42-online-shopping-46);}.cls-34_online-shopping-46{fill:url(#linear-gradient-43-online-shopping-46);}.cls-35_online-shopping-46{fill:url(#linear-gradient-40-online-shopping-46);}.cls-36_online-shopping-46{fill:url(#linear-gradient-41-online-shopping-46);}.cls-37_online-shopping-46{fill:url(#linear-gradient-37-online-shopping-46);opacity:.28;}.cls-37_online-shopping-46,.cls-46_online-shopping-46,.cls-47_online-shopping-46,.cls-51_online-shopping-46{isolation:isolate;}.cls-38_online-shopping-46{fill:url(#linear-gradient-4-online-shopping-46);}.cls-39_online-shopping-46{fill:url(#linear-gradient-2-online-shopping-46);}.cls-40_online-shopping-46{fill:url(#linear-gradient-3-online-shopping-46);}.cls-41_online-shopping-46{fill:url(#linear-gradient-8-online-shopping-46);}.cls-42_online-shopping-46{fill:url(#linear-gradient-9-online-shopping-46);}.cls-43_online-shopping-46{fill:url(#linear-gradient-7-online-shopping-46);}.cls-44_online-shopping-46{fill:url(#linear-gradient-5-online-shopping-46);}.cls-45_online-shopping-46{fill:url(#linear-gradient-6-online-shopping-46);}.cls-46_online-shopping-46{fill:url(#linear-gradient-45-online-shopping-46);}.cls-46_online-shopping-46,.cls-47_online-shopping-46{opacity:.41;}.cls-47_online-shopping-46{fill:url(#linear-gradient-46-online-shopping-46);}.cls-48_online-shopping-46{fill:#231f20;}.cls-49_online-shopping-46{fill:#ffb4a3;}.cls-50_online-shopping-46,.cls-51_online-shopping-46{fill:#68e1fd;}.cls-51_online-shopping-46{opacity:.25;}</style><linearGradient id="linear-gradient-online-shopping-46" x1="-2194.57" y1="-4638.43" x2="-2183.09" y2="-4063.9" gradientTransform="translate(2503.04 4464.1)" gradientUnits="userSpaceOnUse"><stop offset="0" stop-color="#fff" stop-opacity="0"/><stop offset=".84" stop-color="#fff" stop-opacity=".84"/><stop offset=".97" stop-color="#fff"/></linearGradient><linearGradient id="linear-gradient-2-online-shopping-46" x1="-2181.55" y1="-4102.4" x2="-2181.02" y2="-4007" gradientTransform="translate(2503.04 4464.1)" gradientUnits="userSpaceOnUse"><stop offset="0" stop-color="#000" stop-opacity="0"/><stop offset=".97" stop-color="#000"/></linearGradient><linearGradient id="linear-gradient-3-online-shopping-46" x1="-2167.17" y1="-4343.51" x2="-2166.97" y2="-4333.69" gradientTransform="translate(2469.34 4464.03)" xlink:href="#linear-gradient-online-shopping-46"/><linearGradient id="linear-gradient-4-online-shopping-46" x1="-2186.54" y1="-4353.66" x2="-2186.28" y2="-4347.5" gradientTransform="translate(2469.34 4464.03)" xlink:href="#linear-gradient-2-online-shopping-46"/><linearGradient id="linear-gradient-5-online-shopping-46" x1="-2180.61" y1="-4256.67" x2="-2188.46" y2="-4243.4" gradientTransform="translate(2469.34 4464.03)" xlink:href="#linear-gradient-2-online-shopping-46"/><linearGradient id="linear-gradient-6-online-shopping-46" x1="-2195.45" y1="-4264.51" x2="-2207.35" y2="-4214.19" gradientTransform="translate(2469.34 4464.03)" xlink:href="#linear-gradient-2-online-shopping-46"/><linearGradient id="linear-gradient-7-online-shopping-46" x1="-2110.64" y1="-4187.52" x2="-2117.77" y2="-4169.36" gradientTransform="translate(2469.34 4464.03)" xlink:href="#linear-gradient-2-online-shopping-46"/><linearGradient id="linear-gradient-8-online-shopping-46" x1="-2195.09" y1="-4202.88" x2="-2194.24" y2="-4194.02" gradientTransform="translate(2469.34 4464.03)" xlink:href="#linear-gradient-2-online-shopping-46"/><linearGradient id="linear-gradient-9-online-shopping-46" x1="-2204.9" y1="-4168.59" x2="-2181.4" y2="-4168.59" gradientTransform="translate(2469.34 4464.03)" xlink:href="#linear-gradient-2-online-shopping-46"/><linearGradient id="linear-gradient-10-online-shopping-46" x1="-2191.77" y1="-4240.96" x2="-2134.68" y2="-4228.2" gradientTransform="translate(2469.34 4464.03)" xlink:href="#linear-gradient-2-online-shopping-46"/><linearGradient id="linear-gradient-11-online-shopping-46" x1="-2134.82" y1="-4154.07" x2="-2069.81" y2="-4167.63" gradientTransform="translate(2469.34 4464.03)" xlink:href="#linear-gradient-online-shopping-46"/><linearGradient id="linear-gradient-12-online-shopping-46" x1="-2219.54" y1="-4171.02" x2="-2164.28" y2="-4161.63" gradientTransform="translate(2469.34 4464.03)" xlink:href="#linear-gradient-online-shopping-46"/><linearGradient id="linear-gradient-13-online-shopping-46" x1="-2164.86" y1="-4177.82" x2="-2208.66" y2="-4155.93" gradientTransform="translate(2469.34 4464.03)" xlink:href="#linear-gradient-online-shopping-46"/><linearGradient id="linear-gradient-14-online-shopping-46" x1="-2133.77" y1="-4153.79" x2="-2055.57" y2="-4160.56" gradientTransform="translate(2469.34 4464.03)" xlink:href="#linear-gradient-2-online-shopping-46"/><linearGradient id="linear-gradient-15-online-shopping-46" x1="-2116.26" y1="-4195.04" x2="-2115.76" y2="-4169.89" gradientTransform="translate(2469.34 4464.03)" xlink:href="#linear-gradient-online-shopping-46"/><linearGradient id="linear-gradient-16-online-shopping-46" x1="-2144.46" y1="-4242" x2="-2143.85" y2="-4211.71" gradientTransform="translate(2469.34 4464.03)" xlink:href="#linear-gradient-online-shopping-46"/><linearGradient id="linear-gradient-17-online-shopping-46" x1="-2134.24" y1="-4232.71" x2="-2230.87" y2="-4228.37" gradientTransform="translate(2469.34 4464.03)" xlink:href="#linear-gradient-2-online-shopping-46"/><linearGradient id="linear-gradient-18-online-shopping-46" x1="-2128.96" y1="-4261.47" x2="-2143.03" y2="-4162.15" gradientTransform="translate(2469.34 4464.03)" xlink:href="#linear-gradient-online-shopping-46"/><linearGradient id="linear-gradient-19-online-shopping-46" x1="-1785.08" y1="-4497.22" x2="-1859.82" y2="-4493.86" gradientTransform="translate(2419.29 4602.41) rotate(-3.75)" xlink:href="#linear-gradient-2-online-shopping-46"/><linearGradient id="linear-gradient-20-online-shopping-46" x1="-2116.79" y1="-4263.03" x2="-2131.5" y2="-4159.22" gradientTransform="translate(2469.34 4464.03)" xlink:href="#linear-gradient-online-shopping-46"/><linearGradient id="linear-gradient-21-online-shopping-46" x1="-1770.09" y1="-4497.39" x2="-1873.55" y2="-4492.75" gradientTransform="translate(2419.29 4602.41) rotate(-3.75)" xlink:href="#linear-gradient-2-online-shopping-46"/><linearGradient id="linear-gradient-22-online-shopping-46" x1="-2103.46" y1="-4260.28" x2="-2116.93" y2="-4165.25" gradientTransform="translate(2469.34 4464.03)" xlink:href="#linear-gradient-online-shopping-46"/><linearGradient id="linear-gradient-23-online-shopping-46" x1="-1752.51" y1="-4497.52" x2="-1905.92" y2="-4490.63" gradientTransform="translate(2419.29 4602.41) rotate(-3.75)" xlink:href="#linear-gradient-2-online-shopping-46"/><linearGradient id="linear-gradient-24-online-shopping-46" x1="-2126.26" y1="-4254.53" x2="-2072.82" y2="-4218.29" gradientTransform="translate(2469.34 4464.03)" xlink:href="#linear-gradient-2-online-shopping-46"/><linearGradient id="linear-gradient-25-online-shopping-46" x1="-2126.03" y1="-4331.6" x2="-2114.64" y2="-4324.99" gradientTransform="translate(2469.34 4464.03)" xlink:href="#linear-gradient-2-online-shopping-46"/><linearGradient id="linear-gradient-26-online-shopping-46" x1="-2118.68" y1="-4319.99" x2="-2128.41" y2="-4201.13" gradientTransform="translate(2469.34 4464.03)" xlink:href="#linear-gradient-2-online-shopping-46"/><linearGradient id="linear-gradient-27-online-shopping-46" x1="-2128.27" y1="-4319.33" x2="-2146.25" y2="-4221.84" xlink:href="#linear-gradient-2-online-shopping-46"/><linearGradient id="linear-gradient-28-online-shopping-46" x1="-2093.83" y1="-4328.77" x2="-2119.55" y2="-4323.56" gradientTransform="translate(2469.34 4464.03)" xlink:href="#linear-gradient-2-online-shopping-46"/><linearGradient id="linear-gradient-29-online-shopping-46" x1="-2110.32" y1="-4333.38" x2="-2113.96" y2="-4292.8" gradientTransform="translate(2469.34 4464.03)" xlink:href="#linear-gradient-2-online-shopping-46"/><linearGradient id="linear-gradient-30-online-shopping-46" x1="-2190.24" y1="-4353.6" x2="-2191.61" y2="-4349.73" gradientTransform="translate(2469.34 4464.03)" xlink:href="#linear-gradient-online-shopping-46"/><linearGradient id="linear-gradient-31-online-shopping-46" x1="-2184.1" y1="-4355.14" x2="-2183.99" y2="-4349.55" gradientTransform="translate(2469.34 4464.03)" xlink:href="#linear-gradient-online-shopping-46"/><linearGradient id="linear-gradient-32-online-shopping-46" x1="-2210.72" y1="-4349.04" x2="-2210.44" y2="-4335.11" gradientTransform="translate(2469.34 4464.03)" xlink:href="#linear-gradient-online-shopping-46"/><linearGradient id="linear-gradient-33-online-shopping-46" x1="-2169.65" y1="-4317.68" x2="-2294.26" y2="-4314.55" gradientTransform="translate(2469.34 4464.03)" xlink:href="#linear-gradient-2-online-shopping-46"/><linearGradient id="linear-gradient-34-online-shopping-46" x1="-2197.7" y1="-4313.76" x2="-2225.07" y2="-4320.41" gradientTransform="translate(2469.34 4464.03)" xlink:href="#linear-gradient-online-shopping-46"/><linearGradient id="linear-gradient-35-online-shopping-46" x1="-2281.97" y1="-4259.59" x2="-2296.39" y2="-4251.68" gradientTransform="translate(2469.34 4464.03)" xlink:href="#linear-gradient-2-online-shopping-46"/><linearGradient id="linear-gradient-36-online-shopping-46" x1="-2377.23" y1="-4193" x2="-2253.67" y2="-4185.7" gradientTransform="translate(2469.34 4464.03)" xlink:href="#linear-gradient-2-online-shopping-46"/><linearGradient id="linear-gradient-37-online-shopping-46" x1="-2365.88" y1="-4227.01" x2="-2365.88" y2="-4108.41" gradientTransform="translate(2469.34 4464.03)" xlink:href="#linear-gradient-2-online-shopping-46"/><linearGradient id="linear-gradient-38-online-shopping-46" x1="-2294.22" y1="-4271.75" x2="-2312.21" y2="-4114.56" gradientTransform="translate(2469.34 4464.03)" xlink:href="#linear-gradient-2-online-shopping-46"/><linearGradient id="linear-gradient-39-online-shopping-46" x1="-2349.22" y1="-4190.19" x2="-2241.82" y2="-4175.59" gradientTransform="translate(2469.34 4464.03)" xlink:href="#linear-gradient-2-online-shopping-46"/><linearGradient id="linear-gradient-40-online-shopping-46" x1="-2342.32" y1="-4170.44" x2="-2342.32" y2="-4040.88" gradientTransform="translate(2469.34 4464.03)" xlink:href="#linear-gradient-2-online-shopping-46"/><linearGradient id="linear-gradient-41-online-shopping-46" x1="-2356.5" y1="-4005.29" x2="-2357.55" y2="-4027.63" gradientTransform="translate(2469.34 4464.03)" xlink:href="#linear-gradient-online-shopping-46"/><linearGradient id="linear-gradient-42-online-shopping-46" x1="-2331.86" y1="-4010.03" x2="-2332.99" y2="-4024.63" gradientTransform="translate(2469.34 4464.03)" gradientUnits="userSpaceOnUse"><stop offset="0" stop-color="#fff" stop-opacity="0"/><stop offset=".69" stop-color="#fff" stop-opacity=".58"/><stop offset=".84" stop-color="#fff" stop-opacity=".84"/><stop offset=".97" stop-color="#fff"/></linearGradient><linearGradient id="linear-gradient-43-online-shopping-46" x1="-2384.38" y1="-4124.35" x2="-2527.4" y2="-4133.56" xlink:href="#linear-gradient-2-online-shopping-46"/><linearGradient id="linear-gradient-44-online-shopping-46" x1="-2373.23" y1="-4121.47" x2="-2474.9" y2="-4104.27" xlink:href="#linear-gradient-2-online-shopping-46"/><linearGradient id="linear-gradient-45-online-shopping-46" x1="-2325.06" y1="-4121.98" x2="-2310.56" y2="-4121.98" gradientTransform="translate(2469.34 4464.03)" xlink:href="#linear-gradient-2-online-shopping-46"/><linearGradient id="linear-gradient-46-online-shopping-46" x1="-2325.86" y1="-4152.71" x2="-2325.86" y2="-4056.16" gradientTransform="translate(2469.34 4464.03)" xlink:href="#linear-gradient-2-online-shopping-46"/><linearGradient id="linear-gradient-47-online-shopping-46" x1="-2342.84" y1="-4246.16" x2="-2342.84" y2="-4204.58" gradientTransform="translate(2469.34 4464.03)" xlink:href="#linear-gradient-2-online-shopping-46"/></defs><path id="background_online-shopping-46" class="cls-51_online-shopping-46 targetColor" d="M165.11,99.77c-10.8,15.99-13.95,37.37-28.81,49.68-9.35,7.78-21.79,10.48-32.66,15.94-25.66,12.88-41.57,42.75-37.99,71.21,1.59,12.66,6.65,24.89,6.48,37.64-.27,18.42-11.34,35.01-14.1,53.24-3.9,25.82,9.31,51.22,25.36,71.84,9.51,12.21,20.85,23.99,35.61,28.7,12.15,3.86,25.25,2.49,37.96,3.25,26.35,1.56,51.19,12.25,76.89,18.31s55.06,6.75,75.99-9.34c9.6-7.41,16.84-17.92,27.63-23.46,8.38-4.3,18.04-5.13,27.38-6.3,25.64-3.18,53.31-11.06,67.59-32.59,10.38-15.66,11.57-35.74,9.18-54.36-2.39-18.63-7.98-36.76-9.97-55.43-4.56-42.86,10.03-86.04,5.45-128.88-2.03-18.87-8.23-38.12-22.01-51.19-18.07-17.2-45.06-20.37-69.99-21.1-29.45-.82-58.92.62-88.34,2.06-31.22,1.53-72.23,2.04-91.64,30.77h-.01Z" style="fill: rgb(255, 153, 0);"/><g id="ponsel_online-shopping-46"><rect class="cls-50_online-shopping-46 targetColor" x="209.58" y="28.6" width="211.5" height="362.01" rx="42.76" ry="42.76" style="fill: rgb(255, 153, 0);"/><rect class="cls-1_online-shopping-46" x="221.04" y="39.82" width="189.92" height="325.06" rx="38.39" ry="38.39"/><path class="cls-39_online-shopping-46" d="M302,371.21h39.14c2.68,0,4.85,2.17,4.85,4.85h0c0,2.68-2.17,4.85-4.85,4.85h-39.14c-2.68,0-4.85-2.17-4.85-4.85h0c0-2.68,2.17-4.85,4.85-4.85Z"/></g><g id="cloth_online-shopping-46"><path class="cls-51_online-shopping-46 targetColor" d="M269.91,111.73c-1.05,2.22-2.37,4.31-3.94,6.19-3.14,3.46-7.73,5.19-11.37,8.12-3.64,2.93-6.32,8.26-3.81,12.19,1.21,1.9,3.37,3,4.8,4.74,3.81,4.63,1.26,11.65,2.49,17.53,1.43,6.75,8.17,11.54,15.04,12.04s13.63-2.57,18.89-7.03c1.85-1.74,3.8-3.37,5.85-4.88,2.08-1.36,4.43-2.28,6.48-3.65,4.68-3.16,7.54-8.38,7.7-14.03.06-3.11-.72-6.17-.93-9.26-.37-4.63.45-9.26-.09-13.89s-2.94-9.48-7.35-10.92c-1.71-.56-3.56-.55-5.31-.98-3.76-.93-6.64-3.88-9.88-6.02-10.39-6.87-14.3,1.73-18.55,9.83l-.02.02Z" style="fill: rgb(255, 153, 0);"/><path class="cls-51_online-shopping-46 targetColor" d="M385.71,159.08c-.83-2.31-1.36-4.73-1.57-7.18-.21-4.63,1.85-9.13,2.33-13.77.48-4.64-1.35-10.31-5.91-11.33-2.2-.49-4.5.25-6.74,0-5.99-.61-9.11-7.41-14.14-10.67-5.77-3.78-13.89-2.42-19.16,2.06-5.27,4.48-7.84,11.44-8.43,18.31-.08,2.54-.32,5.07-.7,7.58-.51,2.43-1.54,4.73-2.04,7.18-1.09,5.54.56,11.26,4.43,15.37,2.15,2.25,4.86,3.87,7.23,5.89,3.52,3.02,6.23,6.91,9.87,9.79,3.64,2.88,8.78,4.63,12.91,2.55,1.61-.81,2.91-2.13,4.46-3.06,3.33-1.98,7.41-1.93,11.25-2.7,12.19-2.43,8.9-11.31,6.19-20.03h.02Z" style="fill: rgb(255, 153, 0);"/><path class="cls-51_online-shopping-46 targetColor" d="M295.45,317.4c.42-2.58,1.17-5.09,2.23-7.47,2.2-4.43,6.38-7.55,9.26-11.58,2.88-4.04,4.06-10.26.34-13.54-1.79-1.59-4.31-2.08-6.27-3.45-5.24-3.64-4.63-11.52-7.63-17.16-3.41-6.48-11.68-9.4-18.84-7.93-7.16,1.46-13.17,6.53-17.24,12.64-1.38,2.32-2.91,4.55-4.56,6.68-1.72,2-3.86,3.61-5.55,5.61-3.86,4.58-5.27,10.75-3.8,16.55.84,3.18,2.53,6.08,3.7,9.17,1.71,4.63,2.23,9.62,4.12,14.16,1.89,4.54,5.76,8.82,10.67,9.01,1.92.07,3.8-.48,5.7-.55,4.12-.12,7.91,2.04,11.83,3.28,12.55,4.05,14.04-5.92,16.03-15.4v-.02Z" style="fill: rgb(255, 153, 0);"/><path class="cls-51_online-shopping-46 targetColor" d="M289.52,238.03c.44-2.09,1.15-4.11,2.1-6.02,1.96-3.56,5.49-5.94,7.99-9.15,2.5-3.2,3.7-8.24.78-11.11-1.41-1.37-3.44-1.85-5-3.06-4.16-3.18-3.4-9.59-5.62-14.32-2.55-5.42-9.21-8.12-15.12-7.18s-11.01,4.91-14.56,9.73c-1.22,1.84-2.54,3.61-3.97,5.29-1.48,1.57-3.3,2.78-4.77,4.39-3.32,3.61-4.7,8.6-3.7,13.4.57,2.65,1.85,5.07,2.68,7.65,1.23,3.83,1.47,7.95,2.86,11.74s4.38,7.41,8.4,7.75c1.56.13,3.12-.25,4.68-.23,3.37.06,6.4,1.95,9.56,3.12,10.13,3.78,11.72-4.29,13.69-11.99h0Z" style="fill: rgb(255, 153, 0);"/><path class="cls-51_online-shopping-46 targetColor" d="M328.42,212.43c-.07,2.22-.43,4.42-1.07,6.55-1.43,4.06-4.79,7.41-6.86,11.29-2.07,3.88-2.36,9.19,1.37,11.11,1.81.93,4.12.86,6.05,1.6,5.15,1.95,5.55,8.51,8.97,12.54,3.86,4.63,11.64,5.4,17.89,2.78s10.98-7.96,13.89-13.73c.97-2.18,2.05-4.3,3.26-6.35,1.3-1.97,3.02-3.7,4.31-5.68,2.84-4.19,3.35-9.54,1.34-14.19-1.15-2.44-3.02-4.49-4.44-6.79-2.11-3.43-3.19-7.41-5.45-10.78s-6.26-6.08-10.69-5.28c-1.72.31-3.34,1.14-5.05,1.56-3.7.93-7.34-.11-11.02-.36-11.78-.83-11.9,7.57-12.49,15.73h-.01Z" style="fill: rgb(255, 153, 0);"/><path class="cls-51_online-shopping-46 targetColor" d="M371.9,328.79c.49-2.49,1.3-4.9,2.41-7.18,2.28-4.24,6.43-7.12,9.34-10.95,2.91-3.83,4.27-9.83.78-13.14-1.69-1.6-4.12-2.16-5.98-3.56-4.97-3.7-4.16-11.33-6.86-16.91-3.1-6.39-11.05-9.5-18.04-8.33-7,1.17-12.96,5.97-17.13,11.74-1.42,2.2-2.97,4.31-4.63,6.33-1.74,1.85-3.87,3.38-5.6,5.27-3.89,4.33-5.46,10.27-4.21,15.95.71,3.12,2.26,5.99,3.28,9.03,1.53,4.54,1.85,9.41,3.56,13.89s5.31,8.75,10.08,9.08c1.85.13,3.7-.34,5.55-.34,4,0,7.61,2.22,11.38,3.56,12.08,4.3,13.85-5.29,16.08-14.44h0Z" style="fill: rgb(255, 153, 0);"/><path class="cls-40_online-shopping-46" d="M304.06,124.12l.81,1.79s-1.1,3.22-2.78,3.65-1.85.13-1.85.13l-.49-.72c2.28-.6,3.97-2.51,4.31-4.84h0Z"/><path class="cls-50_online-shopping-46 targetColor" d="M278.81,111.21c1.06.3,2.18.33,3.26.09,1.63-.24,3.29-.27,4.93-.09,0,0-2.06,3.37-5.62,2.55s-2.56-2.55-2.56-2.55h-.01Z" style="fill: rgb(255, 153, 0);"/><path class="cls-38_online-shopping-46" d="M278.81,111.21c1.06.3,2.18.33,3.26.09,1.63-.24,3.29-.27,4.93-.09,0,0-2.06,3.37-5.62,2.55s-2.56-2.55-2.56-2.55h-.01Z"/><path class="cls-50_online-shopping-46 targetColor" d="M282.79,202.15s1.04,6.26,3.56,7.82c2.52,1.56,7.12,4.63,7.12,4.63l-12.74.95,2.06-13.41h0Z" style="fill: rgb(255, 153, 0);"/><path class="cls-44_online-shopping-46" d="M282.79,202.15s1.04,6.26,3.56,7.82c2.52,1.56,7.12,4.63,7.12,4.63l-12.74.95,2.06-13.41h0Z"/><path class="cls-50_online-shopping-46 targetColor" d="M266.52,199.71s-1.03,9.04,4.01,8.69,8.14-6.94,8.14-6.94l4.98,10.51-3.31,7.91-19.29,3.08-3.65-7.41,9.11-15.84h0Z" style="fill: rgb(255, 153, 0);"/><path class="cls-45_online-shopping-46" d="M266.52,199.71s-1.03,9.04,4.01,8.69,8.14-6.94,8.14-6.94l4.98,10.51-3.31,7.91-19.29,3.08-3.65-7.41,9.11-15.84h0Z"/><path class="cls-50_online-shopping-46 targetColor" d="M365.76,278.42c5.29,1.67,2.68,8.33,2.68,8.33l-24.53-7.59s8.81-4.86,21.85-.74Z" style="fill: rgb(255, 153, 0);"/><path class="cls-43_online-shopping-46" d="M365.76,278.42c5.29,1.67,2.68,8.33,2.68,8.33l-24.53-7.59s8.81-4.86,21.85-.74Z"/><path class="cls-50_online-shopping-46 targetColor" d="M343.91,279.16l-1.64-10.14c-.05-.45.26-.85.7-.93h0c.45-.08.89.22.97.67v.02l1.63,10.18c.05.46-.27.87-.73.92h-.01c-.46.05-.87-.27-.92-.73h0s0,.01,0,.01Z" style="fill: rgb(255, 153, 0);"/><path class="cls-50_online-shopping-46 targetColor" d="M359.66,279.49l1.61-10.13c.08-.46.51-.78.97-.7h0c.46.08.78.51.7.97l-1.63,10.13c-.07.46-.5.78-.96.71-.02,0-.04,0-.06-.01h0c-.43-.11-.71-.52-.64-.96h.01Z" style="fill: rgb(255, 153, 0);"/><path class="cls-50_online-shopping-46 targetColor" d="M265.71,265.39c2.92-2.41,6.75-3.43,10.48-2.78,6.48,1.05,7.51,3.7,7.51,3.7l-4.74,1.38s-7.78-2.78-10.51,1.35l-2.74-3.66h0Z" style="fill: rgb(255, 153, 0);"/><path class="cls-41_online-shopping-46" d="M265.71,265.39c2.92-2.41,6.75-3.43,10.48-2.78,6.48,1.05,7.51,3.7,7.51,3.7l-4.74,1.38s-7.78-2.78-10.51,1.35l-2.74-3.66h0Z"/><path class="cls-50_online-shopping-46 targetColor" d="M281.42,267.4c.99,16.6,3.06,33.12,6.21,49.45.51,2.66.68,6.12-1.75,7.3-1.01.39-2.11.5-3.18.32-4.48-.33-9.42-.88-12.46-4.2-2.12-2.31-2.86-5.55-3.43-8.65-1.93-10.58-2.68-21.35-2.25-32.1.15-3.7.24-10.05,3.83-12.42,1.64-1.07,12.94-1.09,13.03.3h0Z" style="fill: rgb(255, 153, 0);"/><path class="cls-42_online-shopping-46" d="M281.42,267.4c.99,16.6,3.06,33.12,6.21,49.45.51,2.66.68,6.12-1.75,7.3-1.01.39-2.11.5-3.18.32-4.48-.33-9.42-.88-12.46-4.2-2.12-2.31-2.86-5.55-3.43-8.65-1.93-10.58-2.68-21.35-2.25-32.1.15-3.7.24-10.05,3.83-12.42,1.64-1.07,12.94-1.09,13.03.3h0Z"/><path class="cls-50_online-shopping-46 targetColor" d="M265.91,207.28c-.07,1.95-.06,4.06,1.03,5.69,1.75,2.64,5.86,2.93,8.45,1.12,2.59-1.81,3.78-5.17,3.78-8.33s-1-6.25-2-9.26l5.26-.49c.1,4.38.52,8.75,1.26,13.06.13,1.35.59,2.65,1.34,3.78,1.85,2.38,5.44,2.18,8.43,1.74l-.76,31.36-38.06.13-2.78-23.19c-.18-.83-.12-1.7.17-2.5.52-.82,1.24-1.5,2.08-1.97,3.12-2.42,5.32-5.83,6.24-9.67.6-3.41.94-6.86,1.04-10.31.82-.85,2.71-.69,5.23-.76-.09,3.18-.56,6.39-.71,9.6h0Z" style="fill: rgb(255, 153, 0);"/><path class="cls-17_online-shopping-46" d="M265.91,207.28c-.07,1.95-.06,4.06,1.03,5.69,1.75,2.64,5.86,2.93,8.45,1.12,2.59-1.81,3.78-5.17,3.78-8.33s-1-6.25-2-9.26l5.26-.49c.1,4.38.52,8.75,1.26,13.06.13,1.35.59,2.65,1.34,3.78,1.85,2.38,5.44,2.18,8.43,1.74l-.76,31.36-38.06.13-2.78-23.19c-.18-.83-.12-1.7.17-2.5.52-.82,1.24-1.5,2.08-1.97,3.12-2.42,5.32-5.83,6.24-9.67.6-3.41.94-6.86,1.04-10.31.82-.85,2.71-.69,5.23-.76-.09,3.18-.56,6.39-.71,9.6h0Z"/><path class="cls-50_online-shopping-46 targetColor" d="M336.62,286.22c-.52,4.63,3.14,8.51,4.63,12.89,1.32,4.28.95,8.89-1.04,12.91-1.98,3.98-4.83,7.46-8.33,10.18-.47.27-.8.72-.93,1.25,0,.33.09.64.25.93,2.78,5.55,8.86,8.78,14.97,9.7,6.11.93,12.33-.11,18.41-1.19,4.52-.81,9.38-1.85,12.42-5.26-6.78-9.06-12.79-20.08-10.59-31.18.64-3.23,1.96-6.35,1.98-9.64.07-9.82-8.8-5.93-14.81-7.57-6.02-1.64-16.04-1.2-16.97,6.99h0Z" style="fill: rgb(255, 153, 0);"/><path class="cls-14_online-shopping-46" d="M377.01,327.58c-3.05,3.43-7.91,4.45-12.42,5.26-6.08,1.08-12.3,2.13-18.41,1.19-2.79-.41-5.48-1.32-7.94-2.68-1.58-.86-3.04-1.96-4.31-3.24-1.09-1.12-2.01-2.39-2.72-3.79-.16-.28-.25-.6-.25-.93.12-.53.46-.98.93-1.25,3.51-2.73,6.36-6.21,8.33-10.18,1.98-4.01,2.35-8.63,1.04-12.91-1.21-3.52-3.81-6.74-4.51-10.26h0c-.18-.86-.23-1.74-.13-2.61.14-1.54.72-3,1.69-4.21,1.68-2.07,4.38-3.11,7.24-3.45,2.72-.31,5.46-.09,8.1.62,6,1.64,14.87-2.25,14.81,7.57-.07,1.88-.38,3.75-.93,5.55h0c-.36,1.33-.75,2.68-1.02,4.03-2.24,11.18,3.77,22.2,10.51,31.27v.02Z"/><path class="cls-50_online-shopping-46 targetColor" d="M260.25,268.87c-2.56,2.61-4.1,6.02-5.5,9.4-4.96,11.94-8.76,24.32-11.36,36.98l10.56,2.78c.56.22,1.17.25,1.74.09,1.02-.4,1.24-1.71,1.31-2.78l1.17-19.84.11,24.74c-.21,1.3.58,2.56,1.85,2.93,3.7,1.93,7.55,3.92,11.7,3.84.27,0-1.05-35.18-1.19-38.39-.31-6.48-.49-12.96-1.11-19.39-.56-6.15-5.83-3.86-9.28-.36h0Z" style="fill: rgb(255, 153, 0);"/><path class="cls-15_online-shopping-46" d="M260.25,268.87c-2.56,2.61-4.1,6.02-5.5,9.4-4.96,11.94-8.76,24.32-11.36,36.98l10.56,2.78c.56.22,1.17.25,1.74.09,1.02-.4,1.24-1.71,1.31-2.78l1.17-19.84.11,24.74c-.21,1.3.58,2.56,1.85,2.93,3.7,1.93,7.55,3.92,11.7,3.84.27,0-1.05-35.18-1.19-38.39-.31-6.48-.49-12.96-1.11-19.39-.56-6.15-5.83-3.86-9.28-.36h0Z"/><path class="cls-50_online-shopping-46 targetColor" d="M282.69,328.55c4.97-1.85,9.61-4.46,13.78-7.74,1.05-.59,1.51-1.85,1.08-2.97l-3.78-23.29c1.45,7.68,3.32,15.27,5.6,22.75l11.05-4.53c-.93-7.54-3.66-14.72-6.53-21.75-2.5-6.09-5.15-12.26-9.43-17.26-2.65-3.09-9.8-9.94-14.35-7.13-4.36,2.69-2.62,13.51-2.52,17.77.09,3.89,5.3,44.11,5.1,44.15h0Z" style="fill: rgb(255, 153, 0);"/><path class="cls-16_online-shopping-46" d="M282.69,328.55c4.97-1.85,9.61-4.46,13.78-7.74,1.05-.59,1.51-1.85,1.08-2.97l-3.78-23.29c1.45,7.68,3.32,15.27,5.6,22.75l11.05-4.53c-.93-7.54-3.66-14.72-6.53-21.75-2.5-6.09-5.15-12.26-9.43-17.26-2.65-3.09-9.8-9.94-14.35-7.13-4.36,2.69-2.62,13.51-2.52,17.77.09,3.89,5.3,44.11,5.1,44.15h0Z"/><path class="cls-50_online-shopping-46 targetColor" d="M304.73,168.45c-.08,0-.15,0-.23,0-.49.07-.94.3-1.28.66l-.43.31c-3.71,2.5-8.64,2.21-12.04-.71-.86,2.72-3.75,4.22-6.47,3.37-1.3-.41-2.38-1.31-3.01-2.51-1.48,2.48-4.64,3.36-7.18,2-.56-.45-1.24-.75-1.95-.86-.81,0-1.43.68-2.08,1.15-2.53,1.57-5.86.79-7.43-1.75-.16-.27-.3-.54-.42-.83-1.3,1.74-3.81,2.09-5.94,1.69-1.52-.36-3.02-.8-4.49-1.31-.59-.18-1.18-.33-1.79-.44,4.38-8.44,11.11-16.53,14.81-25.21,1.22-2.93,2.78-4.46,3.36-7.56.35-1.85-1.81-7.87-1.36-10.39.03-.41.24-.79.58-1.02-1.85,1.02-3.7,1.18-5.43,2.21,0,0-4.57-4.98-4.34-7.1,3.93-2.04,7.56-5.05,11.49-7.08.71-.37,7.84-1.85,9.3-1.23,2.33,1.04,3.88,1.35,6.31.58,1.14-.29,2.31-.41,3.48-.35,2.15,0,8.54,1.48,12.26,5.92,1.06,1.28,3.7,4.81,3.7,6.48s-2.72,4.72-4.37,4.5c-1.32-1.32-3.76-2.48-5.19-3.7-.8,5.16-1.08,6.99-1.85,12.14-.22,1.02-.27,2.07-.13,3.11.16.7.4,1.38.71,2.03,3.77,8.65,7.57,17.3,11.41,25.93v-.03Z" style="fill: rgb(255, 153, 0);"/><path class="cls-50_online-shopping-46 targetColor" d="M305.21,169.26s-.03.09-.06.12l-.05-.1-.37-.83c.35.13.62.51.48.81h0Z" style="fill: rgb(255, 153, 0);"/><path class="cls-25_online-shopping-46" d="M346.78,317.86c-6.79,9.38-8.52,13.49-8.52,13.49l-4.31-3.24c-1.09-1.12-2.01-2.39-2.72-3.79-.16-.28-.25-.6-.25-.93.12-.53.46-.98.93-1.25,3.51-2.73,6.36-6.21,8.33-10.18,1.98-4.01,2.35-8.63,1.04-12.91-1.21-3.52-3.81-6.74-4.51-10.26.22.33,3.79,5.68,5.55,5.8-.06.06,11.23,13.87,4.45,23.26h.01Z"/><path class="cls-21_online-shopping-46" d="M368.44,286.75c-.07,1.88-.38,3.75-.93,5.55h0s.93-5.84-.42-8.82-4.9-2.36-5.43-2.53-4.46.79-7.23-.41-4.4-1.03-8.51-1.38c-4.11-.35-7.59,2.78-7.59,2.78,1.68-2.07,4.38-3.11,7.24-3.45,2.72-.31,5.46-.09,8.1.62,5.96,1.7,14.83-2.18,14.76,7.64h.01Z"/><path class="cls-50_online-shopping-46 targetColor" d="M372.06,244.26h2.04c.31-3.23-1.16-6.33-2.36-9.35-2.6-6.56-5.12-13.89-5.41-20.92.13-1.03.35-2.05.65-3.05-.39-.3-.88-.43-1.37-.36-12.69.15-25.39.34-38.09.56.27.18.98-.15.66-.16s-.53.35-.64.66c-3.98,10.53-6,21.71-5.96,32.97,5.55.64,16.49,1.66,17,1.64,11.39-.53,22.09-1.77,33.49-1.99h-.01Z" style="fill: rgb(255, 153, 0);"/><path class="cls-19_online-shopping-46" d="M328.54,217.41s-4.09,20.37-2.11,27.73l-4.85-.53s.33-20.24,4.82-29.78l2.14,2.58h0Z"/><path class="cls-18_online-shopping-46" d="M328.54,217.41l1.43.82s-1.34,24.61,2.05,27.43l-5.55-.53s-1.96-7.36,2.08-27.73h0Z"/><path class="cls-24_online-shopping-46" d="M337.27,218.02s-1.15,21.03,1.31,28.22l-6.48-.62s-.98-20.22,2.87-30.03l2.31,2.43h0Z"/><path class="cls-20_online-shopping-46" d="M337.27,218.02l1.49.73s.26,24.65,3.82,27.23l-4.01.26s-2.93-9.67-1.31-28.22h.01Z"/><path class="cls-27_online-shopping-46" d="M349.39,217.08s-1.16,21.03,1.3,28.22l-7.1.67s-.35-21.52,3.5-31.32l2.31,2.43h0Z"/><path class="cls-23_online-shopping-46" d="M349.39,217.08l1.48.73s2,24.65,5.55,27.25l-5.75.24s-2.93-9.67-1.29-28.22h.01Z"/><path class="cls-26_online-shopping-46" d="M360.92,216.24s-1.68,17.02,5.41,28.22l-7.09.67s-4.7-19.07-.86-28.89h2.55-.01Z"/><path class="cls-22_online-shopping-46" d="M360.92,216.24l2.58.33s5.01,25.06,8.57,27.65l-5.75.24s-7.05-9.67-5.41-28.22h.01Z"/><path class="cls-29_online-shopping-46" d="M327.88,213.97s29.37,1.65,38.45,0l.65-3.05-38.8.05-.3,3h0Z"/><path class="cls-50_online-shopping-46 targetColor" d="M377.01,131.03c-.2,17.42-.65,53.36-1,53.7s-11.05.09-15.69-.08c-.55-13.81-1.09-27.63-1.63-41.44-4.41,12.8-7.97,25.88-10.67,39.15.05.78-.54,1.44-1.31,1.49-.24.02-.48-.03-.69-.13-4.79-.97-9.77-2.99-14.37-1.36.88-7.28,2.02-14.52,3.43-21.74,1.23-6.46,2.7-12.88,4.41-19.27.4-1.48.71-2.98.93-4.5.15-1.01.23-2.03.25-3.05,0-1.44-.49-3.7.58-4.88.59-.67,2.91-.93,6.09-.93,10.24-.04,29.68,2.52,29.68,3.03h0Z" style="fill: rgb(255, 153, 0);"/><path class="cls-13_online-shopping-46" d="M347.3,128.02v.99s-2.08,8.01-6.6,8.62l-.32-.74c.15-1.01.23-2.03.25-3.05,0-1.44-.49-3.7.58-4.88.62-.67,2.91-.93,6.09-.94h0Z"/><path class="cls-30_online-shopping-46" d="M339.62,182.23l8.69-38.04,10.34-.93s-10.28,34.26-11.29,40.41l-7.75-1.44h.01Z"/><polygon class="cls-28_online-shopping-46" points="368.38 184.97 366.86 141.18 376.97 141.18 375.97 184.75 368.38 184.97"/><path class="cls-12_online-shopping-46" d="M371.07,129.93s-1.28,9.17,5.9,11.25v-10.18l-5.9-1.06h0Z"/><path class="cls-4_online-shopping-46" d="M357.64,129.19s-1.73,8.26-1.21,9.39c.65,1.16,1.39,2.26,2.21,3.3l2.63-13.06-3.63.38h0Z"/><path class="cls-50_online-shopping-46 targetColor" d="M278.61,110.94c.56.9,1.44,1.56,2.45,1.85,0,0-3.02,1.31-3.45.57-.26-.41-.26-.93,0-1.34,0,0-1.35.88-1.85.24s2.85-1.32,2.85-1.32Z" style="fill: rgb(255, 153, 0);"/><path class="cls-6_online-shopping-46" d="M278.61,110.94c.56.9,1.44,1.56,2.45,1.85,0,0-3.02,1.31-3.45.57-.26-.41-.26-.93,0-1.34,0,0-1.35.88-1.85.24s2.85-1.32,2.85-1.32Z"/><path class="cls-7_online-shopping-46" d="M282.73,112.84s2.48,2.06,3.09.98.26-1.31.26-1.31c.4.39.99.53,1.52.35.82-.35-.34-1.95-.34-1.95-1.31,1.04-2.87,1.7-4.53,1.93Z"/><path class="cls-5_online-shopping-46" d="M257.58,120.19l-1.85,1.37s2.87,5.86,4.37,6.48l1.8-.79s-4.4-4.48-4.31-7.06h0Z"/><path class="cls-3_online-shopping-46" d="M305.21,169.26h-.11c-.76.11-1.54.14-2.31.1-2.51-.15-4.86-1.25-6.59-3.07-4.82-4.95-7.75-25.42-8.33-26.33s3.88-9.13,4.33-16.55l2.3,1.85c-.8,5.16-1.08,6.99-1.85,12.14-.22,1.02-.27,2.07-.13,3.11.16.7.4,1.38.71,2.03,3.84,8.64,7.68,17.28,11.51,25.92.34.12.61.5.47.81h0Z"/><path class="cls-10_online-shopping-46" d="M268.32,142.41l-16.55,27.23c-.59-.18-1.18-.33-1.79-.44,4.38-8.44,11.11-16.53,14.81-25.21,1.22-2.93,2.78-4.46,3.36-7.56.35-1.85-1.81-7.87-1.36-10.39l.58-1.02s.68,5.67,2.55,8.18-1.6,9.21-1.6,9.21h0Z"/></g><path class="cls-50_online-shopping-46 targetColor" d="M181.16,216.48l2.47-13.68s.79-3.29-1.23-4.04c-2.02-.75-12.36-2.48-12.36-2.48,0,0-2.18.6-2.05,2.08s-3.93,26.92-3.93,26.92c0,0,.08.77,1.31,1.51s10.42,1.62,10.42,1.62c0,0,2.61-1.06,2.87-1.62s2.49-10.31,2.49-10.31h0Z" style="fill: rgb(255, 153, 0);"/><path class="cls-11_online-shopping-46" d="M181.16,216.48l2.47-13.68s.79-3.29-1.23-4.04c-2.02-.75-12.36-2.48-12.36-2.48,0,0-2.18.6-2.05,2.08s-3.93,26.92-3.93,26.92c0,0,.08.77,1.31,1.51s10.42,1.62,10.42,1.62c0,0,2.61-1.06,2.87-1.62s2.49-10.31,2.49-10.31h0Z"/><path class="cls-50_online-shopping-46 targetColor" d="M116.66,225.39s-21.29,26.4-23.43,48.64c-2.14,22.24,11.94,44.85,11.94,44.85h11.49l-2.58-32.68,2.58-60.81h0Z" style="fill: rgb(255, 153, 0);"/><path class="cls-8_online-shopping-46" d="M116.66,225.39s-21.29,26.4-23.43,48.64c-2.14,22.24,11.94,44.85,11.94,44.85h11.49l-2.58-32.68,2.58-60.81h0Z"/><path class="cls-37_online-shopping-46" d="M107.39,246.3s-11.66,16.91-9.82,37.25c1.83,20.33,9.5,28.7,9.5,28.7l2.49-6.79s-2.17-59.16-2.17-59.16Z"/><path class="cls-50_online-shopping-46 targetColor" d="M180.08,216.04l2.51-13.68s.79-3.29-1.23-4.04c-2.02-.75-12.37-2.48-12.37-2.48,0,0-2.17.6-2.04,2.08s-3.99,26.9-3.99,26.9c0,0,.08.77,1.31,1.51s10.42,1.62,10.42,1.62c0,0,2.6-1.06,2.87-1.62s2.52-10.29,2.52-10.29Z" style="fill: rgb(255, 153, 0);"/><path class="cls-2_online-shopping-46" d="M179.09,214.8l2.14-11.81s.68-2.84-1.06-3.49c-1.74-.65-10.67-2.15-10.67-2.15,0,0-1.85.53-1.77,1.81s-3.42,23.27-3.42,23.27c0,0,.07.66,1.13,1.31s9.01,1.39,9.01,1.39c0,0,2.25-.93,2.47-1.39s2.18-8.92,2.18-8.92v-.02Z"/><path class="cls-49_online-shopping-46" d="M107.32,436.56c1.19,6.02.85,12.48,3.85,17.83,2.84.93,4.51-3.12,4.75-6.09l6.97-86.26c.58-7.21-6.13-12.82-12.96-8.42-6.27,4.04-4.55,14.59-4.53,20.77.06,20.78-5.27,25.64,1.92,62.17h0Z"/><path class="cls-49_online-shopping-46" d="M132.39,434.19c.61,5.55,1.27,11.3,3.7,16.39.33.71.8,1.47,1.56,1.64,1.44.3,2.22-1.62,2.41-3.07,3.19-24.99,4.91-50.14,5.15-75.33,0-4.99-.06-10.31-2.78-14.48s-11.85-7.08-15.64-2.67c-3.79,4.42,0,18.66.49,23.96,1.46,17.87,3.16,35.72,5.1,53.56h0Z"/><path class="cls-49_online-shopping-46" d="M148.67,191.09c-.18,3.6-.84,18.52-3.65,20.82-2.61,2.11-7.05,1.05-9.06,3.7-1.85,2.5-2,6.23-2.47,9.31-.19,1.3-3.01-1.49-4.05-.69-1.85,1.43-8.92,3.33-8.54,1.05.57-2.94.65-5.94.24-8.91l-1.85-12.36c-.83-5.66-1.68-11.4-.93-17.07s3.26-11.35,7.93-14.65c6.48-4.63,12.38-.78,16.4,4.96,3.64,5.18,6.25,7.89,5.97,13.83h0Z"/><path class="cls-48_online-shopping-46" d="M117.21,163.01c-5.84,3.37-8.75,10.24-9.9,16.89s-.93,13.5-2.44,20.06c-1.52,6.56-5.31,13.19-11.64,15.53,3.77,1.85,7.57,3.7,11.67,4.53s8.55.69,12.18-1.38l-.54,2.53c4.3-.24,8.78-.53,12.47-2.73,4.88-2.92,7.41-8.56,8.8-14.06,2.54-9.93,2.41-20.37,2.16-30.55.06-2.02-.23-4.04-.85-5.97-2.98-7.64-15.86-8.33-21.91-4.83v-.02Z"/><path class="cls-48_online-shopping-46" d="M149.57,166.16c1.12.68,2.05,1.63,2.69,2.78.53,1.24.83,2.57.86,3.93.28,2.19.31,4.4.09,6.6-.23,2.21-1.19,4.29-2.73,5.89-1.47,1.24-3.17,2.19-5,2.78l.69-3.21-3.7,3.33c-.09-.86.12-1.72.57-2.44l-3.53,1.69c.5-3.56.55-7.17.16-10.74-.37-3.38-2.06-3.91-4.23-6.04-1.93-1.85-2.2-3.32.12-4.92,4.01-2.73,10.13-2.05,14.01.36h0Z"/><path class="cls-50_online-shopping-46 targetColor" d="M137.1,225.5c1.67,1.17,3.15,2.59,4.81,3.77,1.08.62,2.03,1.45,2.78,2.45,1.35,3.72,2.4,7.54,3.16,11.42.08,3.7-2.41-.42-2.45,3.31l-.75,50.47c0,2.08-.08,4.25-1.06,6.07-1.69,3.15-5.55,4.35-9.02,5.06-4.65.93-9.37,1.49-14.11,1.67-2.11.18-4.24-.02-6.29-.58-3.7-1.2-6.39-4.51-7.79-8.13s-1.69-7.55-1.85-11.42c-.93-18.85-.28-38.26,6.84-55.73,1.64-4.04,4.82-9.45,9.15-11.11,5.21-2.02,12.17-.31,16.58,2.77v-.02Z" style="fill: rgb(255, 153, 0);"/><path class="cls-9_online-shopping-46" d="M137.85,246.3s-2.61.62-3.48,11.22,5.04,48.58-3.13,50.36c0,0,7.63.81,10.85-2.96s2.78-23.23,2.78-23.23v-37.03l-7.02,1.65h0Z"/><path class="cls-50_online-shopping-46 targetColor" d="M160.86,357.02c-4.83-17.59-11.73-36.18-18.07-53.28.06.16.03.35-.09.47-.81,1.06-5.45,1.85-8.6,2.6h-.14l-.55.13c-9.44,2.33-14.56,1.54-23.95-1-5.85,15.64-11.25,32.07-17.1,47.71-.24.49-.32,1.05-.22,1.59.2.47.55.86.98,1.13l4.55,3.51c.44-1.3.93-2.6,1.32-3.9-.21,3.84-2.59,9.93-2.78,13.78l.08.07c.4.37.88.63,1.41.76,2.97.81,7.87-1.24,10.52,0,3.17,1.49,7.47,2.18,9.74-.47h0c-.68,2.11-.66,5.31,1.55,5.6,1,0,1.97-.33,2.78-.93,4.32-2.37,9.57-1.78,14.51-1.85,4.46-.05,9.49-1.08,12.13-4.49.03,1.08.75,2.01,1.79,2.31,1.56.33,3.09-.57,4.5-1.36.43-.24.87-.46,1.33-.64,1.38-.59,2.22-1.99,2.1-3.48-.02-.27-.02-.54,0-.81h0c.55.82,1.67,1.04,2.49.49.48-.32.77-.85.79-1.42-.03-2.22-.39-4.42-1.06-6.53h-.01ZM149.6,367.27c-.24.12-.43.32-.56.56-.24-.3.26-.81.56-.56ZM149.28,367.94c.14-.2.26-.41.37-.62.21.24-.09.61-.39.62h.02Z" style="fill: rgb(255, 153, 0);"/><path class="cls-35_online-shopping-46" d="M160.86,357.02c-4.83-17.59-11.73-36.18-18.07-53.28,0,.16-.02.33-.09.47-.7,1.56-5.34,1.92-8.6,2.6h-.14l-.55.13c-9.44,2.33-14.46,1.04-23.85-1.5-5.85,15.66-11.35,32.6-17.2,48.24-.24.49-.32,1.05-.22,1.59.2.47.55.86.98,1.13l4.55,3.51c.44-1.3.93-2.6,1.32-3.9-.21,3.84-2.59,9.93-2.78,13.78l.08.07c.44.31.91.57,1.41.76,2.97.81,7.87-1.24,10.52,0,3.26-.8,7.14,1.95,9.46-.18.1-.09.2-.18.29-.29-.68,2.11-.66,5.31,1.55,5.6,1,0,1.97-.33,2.78-.93,4.32-2.37,9.57-1.78,14.51-1.85,4.46-.05,9.49-1.08,12.13-4.49.03,1.08.75,2.01,1.79,2.31,1.56.33,3.09-.57,4.5-1.36.43-.24.87-.46,1.33-.64,1.35-.5,2.21-1.83,2.11-3.27-.02-.34-.02-.69,0-1.03h0c.55.82,1.67,1.04,2.49.49.48-.32.77-.85.79-1.42-.03-2.23-.4-4.44-1.08-6.56v.02Z"/><path class="cls-50_online-shopping-46 targetColor" d="M109.45,442.25c-1.17,0-2.6,0-3.18,1.02-.24.55-.31,1.16-.2,1.75l.81,10.53c.11,1.46.31,3.09,1.43,4.03.7.52,1.55.8,2.43.81,1.98.02,3.95-.42,5.74-1.27.78-.25,1.47-.74,1.96-1.39.36-.74.49-1.57.38-2.38-.09-2.78-.24-5.6-.42-8.4-.11-1.78,0-5.14-2.06-5.64-1.8-.43-4.86.95-6.88.94h-.01Z" style="fill: rgb(255, 153, 0);"/><path class="cls-50_online-shopping-46 targetColor" d="M131.58,443.49c-.6,4.57-.36,9.22.73,13.7.1.53.31,1.03.62,1.46.74.71,1.76,1.05,2.78.93,2.17-.04,4.31-.49,6.31-1.32.35-.11.67-.32.93-.59.26-.45.36-.98.27-1.5l-.44-7.3c-.11-1.73.27-4.54-.83-6.02-.93-1.25-2.26-1.18-3.7-.98-.62.12-6.57,1.32-6.66,1.63h0Z" style="fill: rgb(255, 153, 0);"/><path class="cls-36_online-shopping-46" d="M109.45,442.25c-1.17,0-2.6,0-3.18,1.02-.24.55-.31,1.16-.2,1.75l.81,10.53c.11,1.46.31,3.09,1.43,4.03.7.52,1.55.8,2.43.81,1.98.02,3.95-.42,5.74-1.27.78-.25,1.47-.74,1.96-1.39.36-.74.49-1.57.38-2.38-.09-2.78-.24-5.6-.42-8.4-.11-1.78,0-5.14-2.06-5.64-1.8-.43-4.86.95-6.88.94h-.01Z"/><path class="cls-33_online-shopping-46" d="M131.58,443.49c-.6,4.57-.36,9.22.73,13.7.1.53.31,1.03.62,1.46.74.71,1.76,1.05,2.78.93,2.17-.04,4.31-.49,6.31-1.32.35-.11.67-.32.93-.59.26-.45.36-.98.27-1.5l-.44-7.3c-.11-1.73.27-4.54-.83-6.02-.93-1.25-2.26-1.18-3.7-.98-.62.12-6.57,1.32-6.66,1.63h0Z"/><path class="cls-48_online-shopping-46" d="M106.48,469.66c.07.33.24.62.49.85.22.14.48.23.74.26,6.36,1.15,12.9.7,19.04-1.31,2.29-.75,4.87-2.19,4.96-4.63-.06-1.28-.57-2.49-1.43-3.44-2.39-3.01-5.75-5.1-9.51-5.93-1.39-.42-2.88-.27-4.16.42-.61.41-1.06,1.02-1.66,1.45-2.3,1.71-6.26.17-8.22,2.21-1.96,2.05-1.08,7.62-.27,10.11h.02Z"/><path class="cls-48_online-shopping-46" d="M130.74,467.7c.04.98.4,1.93,1.02,2.69.89.69,1.99,1.02,3.11.93,6.47.22,12.92-.83,18.98-3.09,1.55-.48,2.98-1.29,4.19-2.37,1.23-1.11,1.77-2.79,1.42-4.41-.54-1.9-2.52-2.96-4.33-3.76-2.07-.92-4.17-1.77-6.3-2.55-1.15-.51-2.4-.78-3.66-.81-2.39.11-4.2,1.85-6.37,2.58-2.17.73-3.7.15-5.83.1-4.62-.08-2.61,7.63-2.23,10.67v.02Z"/><path class="cls-50_online-shopping-46 targetColor" d="M139.56,232.22c2.78-.62,5.08-1.96,6.05.73,1.58,4.42,4.84,14.34,7.78,19.02,2.78,4.4,5.85,8.56,7.86,11.16.72.93,2.05,1.1,2.97.38.27-.21.48-.48.63-.79l3.77-14.19,12.25,19.29s-9.38,20.37-15.12,21.11c-9.64,1.31-27.11-31.48-27.11-31.48,0,0-14.67-21.81.93-25.23h-.01Z" style="fill: rgb(255, 153, 0);"/><path class="cls-49_online-shopping-46" d="M168.61,248.49l1.02-19.68-2.78-6.38s.78-2.38,2.78-1.26c2,1.12,2.86,6.2,6.12,2.17,1.83-2.17,3.29-4.64,4.31-7.3,0,0,.65.13.78,2.6.08,1.35.08,2.7,0,4.05l.06,2.86s-.7,4.95-1.85,6.71-3,1.76-3.26,6.19.45,22.03.45,22.03l-7.62-12h0Z"/><polygon class="cls-34_online-shopping-46" points="98.99 356.01 108 317.56 93.12 356.4 97.66 359.9 98.99 356.01"/><polygon class="cls-31_online-shopping-46" points="105.18 369.44 116.66 318.88 114.34 371.21 105.18 369.44"/><path class="cls-46_online-shopping-46" d="M158.62,364.51l-14.34-49.89,10.91,54.84s4.48-1.31,3.43-4.94h0Z"/><path class="cls-47_online-shopping-46" d="M138.08,318.88s10.74,44.5,10.81,49.62c0,0-3.23,3.7-7.68,4.07l-3.14-53.69h0Z"/><path class="cls-50_online-shopping-46 targetColor" d="M119.69,221.85s8.6-2.31,14.51,0l2.95,4.51s-13.15-2.44-19.04-.93,1.58-3.58,1.58-3.58h0Z" style="fill: rgb(255, 153, 0);"/><path class="cls-32_online-shopping-46" d="M119.69,221.85s8.6-2.31,14.51,0l2.95,4.51s-13.15-2.44-19.04-.93,1.58-3.58,1.58-3.58h0Z"/><path class="cls-50_online-shopping-46 targetColor" d="M302,371.21h39.14c2.68,0,4.85,2.17,4.85,4.85h0c0,2.68-2.17,4.85-4.85,4.85h-39.14c-2.68,0-4.85-2.17-4.85-4.85h0c0-2.68,2.17-4.85,4.85-4.85Z" style="fill: rgb(255, 153, 0);"/><g id="shop_online-shopping-46"><path class="cls-50_online-shopping-46 targetColor" d="M302.1,64.55h-3.79v-1.17c.03-.35-.02-.71-.15-1.04-.11-.16-.29-.24-.48-.22-.23-.01-.44.11-.56.31-.15.28-.22.6-.19.93-.02.41.05.81.21,1.19.31.4.7.71,1.16.93,1.3.66,2.46,1.56,3.43,2.66.55,1.02.8,2.18.71,3.34.03.83-.11,1.66-.43,2.43-.34.6-.87,1.07-1.51,1.33-.82.37-1.72.56-2.62.54-.96.03-1.92-.19-2.78-.62-.68-.32-1.22-.88-1.51-1.57-.28-.88-.4-1.8-.36-2.72v-.99h3.79v1.91c-.03.38.02.77.16,1.13.13.18.34.28.56.26.25.01.48-.11.61-.32.14-.29.21-.61.19-.93.08-.64-.05-1.29-.38-1.85-.59-.54-1.22-1.02-1.91-1.43-.7-.44-1.37-.93-2.01-1.46-.36-.35-.64-.78-.82-1.26-.23-.66-.34-1.35-.32-2.05-.06-.9.1-1.81.46-2.64.34-.59.86-1.04,1.49-1.31.78-.33,1.62-.48,2.47-.46.93-.03,1.86.15,2.71.51.63.24,1.16.7,1.48,1.3.29.85.42,1.75.36,2.65v.64l.03-.02Z" style="fill: rgb(255, 153, 0);"/><path class="cls-50_online-shopping-46 targetColor" d="M316.59,59.8v15.68h-4.08v-6.59h-1.23v6.59h-4.08v-15.68h4.08v5.61h1.21v-5.61s4.1,0,4.1,0Z" style="fill: rgb(255, 153, 0);"/><path class="cls-50_online-shopping-46 targetColor" d="M331.04,68.99c0,1.57,0,2.68-.11,3.34-.07.65-.31,1.27-.69,1.8-.4.56-.95.99-1.58,1.25-.74.3-1.53.45-2.32.44-.78.01-1.55-.13-2.27-.41-1.27-.51-2.16-1.67-2.33-3.03-.1-1.13-.14-2.26-.12-3.39v-2.68c0-1.57,0-2.69.11-3.34.16-1.35,1.03-2.52,2.29-3.05.74-.31,1.53-.46,2.32-.44.77,0,1.54.12,2.26.41.64.26,1.2.68,1.61,1.23.4.52.64,1.14.72,1.8.1,1.13.14,2.26.12,3.39v2.68h-.01ZM326.96,63.83c.02-.47-.02-.94-.12-1.4-.08-.2-.28-.33-.5-.31-.2,0-.38.09-.49.25-.16.47-.21.96-.17,1.45v7.3c-.03.56,0,1.13.11,1.69.07.22.29.35.52.32.24.02.47-.13.53-.37.11-.58.15-1.17.12-1.76v-7.18h0Z" style="fill: rgb(255, 153, 0);"/><path class="cls-50_online-shopping-46 targetColor" d="M336.05,59.8h4.1c.86-.02,1.72.06,2.56.26.51.12.98.39,1.35.76.3.34.51.75.6,1.19.13.72.19,1.45.17,2.18v1.38c.04.74-.07,1.49-.31,2.19-.23.48-.64.86-1.14,1.06-.69.27-1.43.4-2.17.37h-1.09v6.31h-4.07v-15.7ZM340.13,62.49v4.01h.31c.29.03.58-.07.78-.28.18-.35.26-.75.21-1.15v-1.3c.05-.37-.04-.74-.25-1.05-.31-.2-.68-.28-1.05-.24h0Z" style="fill: rgb(255, 153, 0);"/></g></svg>