<svg id="_0041_shopping" xmlns="http://www.w3.org/2000/svg" viewBox="0 0 500 500" data-imageid="shopping-89" imageName="Shopping" class="illustrations_image" style="width: 166px;"><defs><style>.cls-1_shopping-89,.cls-2_shopping-89{fill:#fff;}.cls-3_shopping-89{fill:#f4a28c;}.cls-4_shopping-89{fill:#a5a5a5;}.cls-5_shopping-89{opacity:.03;}.cls-5_shopping-89,.cls-6_shopping-89{fill:#000001;}.cls-7_shopping-89{fill:#e6e6e6;}.cls-8_shopping-89{fill:#ce8172;opacity:.31;}.cls-9_shopping-89{opacity:.58;}.cls-9_shopping-89,.cls-10_shopping-89,.cls-11_shopping-89{fill:#68e1fd;}.cls-2_shopping-89{opacity:.53;}.cls-12_shopping-89{fill:#24285b;}.cls-6_shopping-89{opacity:.08;}.cls-10_shopping-89{opacity:.73;}.cls-13_shopping-89{fill:#ffd200;}</style></defs><ellipse id="sd_shopping-89" class="cls-5_shopping-89" cx="244.83" cy="441.64" rx="214.83" ry="28.93"/><g id="person_shopping-89"><path class="cls-3_shopping-89" d="m170.9,115.14s34.35,14.99,60.66,53.88,94.92,25.96,107.5-33.74c0,0,5.15-28.01,14.3-26.87,9.15,1.14,0,21.15,0,21.15,0,0,12.58.57,11.44,10.29-1.14,9.72-16.58,18.87-16.58,18.87,0,0-26.88,118.94-157.83,46.89l-19.48-90.48Z"/><path class="cls-12_shopping-89" d="m152.57,69.59s19.13,31.96-2.79,40.17c-21.93,8.21-20.97-49.46-20.97-49.46l23.76,9.29Z"/><path class="cls-11_shopping-89 targetColor" d="m104.73,101.69s-62,28.21-61.24,72.74c.76,44.54,47.63,122.61,47.63,122.61h99.77l.04-51.65c.01-15.93,3.54-31.64,10.27-46.08,10.15-21.79,15.66-62.1-52.44-97.62h-44.03Z" style="fill: rgb(255, 153, 0);"/><path class="cls-1_shopping-89" d="m116.54,109.29s24.82,17.29,32.21-7.6h-22.92s-9.29,7.6-9.29,7.6Z"/><path class="cls-3_shopping-89" d="m146.74,46.34s5.4,11.45,6.32,20.05c.37,3.49-2.2,6.67-5.69,6.99-4.34.4-10.32-.32-13.96-6.1l-7.38-9.06s-4.43-5.84.48-13.13c4.91-7.29,17.29-5.9,20.23,1.24Z"/><polygon class="cls-3_shopping-89" points="128.8 60.3 125.83 101.68 148.75 101.69 141.89 72.34 128.8 60.3"/><path class="cls-3_shopping-89" d="m149.77,53.73l5,3.35c1.23.83,1.19,2.66-.09,3.42l-4.22,2.53-.69-9.31Z"/><path class="cls-8_shopping-89" d="m142.08,73.17s-4.85-.83-7.47-3.57c0,0-1.48,8.96,9.43,11.98l-1.97-8.41Z"/><path class="cls-12_shopping-89" d="m138.36,52.47l-5.34,1.84s5.82,22.83-1.88,42.68c-4.87,12.54-20.63,16.68-31.45,8.68l-4.69-3.46c-5.55-4.1-5.04-12.48.9-15.99,8.68-5.14,17.7-14.3,16.04-29.87-1.96-18.34,14.66-29.41,26.65-26.44,11.74,2.91,11.55,19.74-.21,22.57Z"/><path class="cls-3_shopping-89" d="m136.28,59.79s-1.78-4.54-5.08-2.92c-3.3,1.62-.77,8.2,4.12,7.09l.96-4.17Z"/><polygon class="cls-3_shopping-89" points="116.43 361.07 130.4 434.39 138.96 430.72 138.94 351.42 116.43 361.07"/><polygon class="cls-3_shopping-89" points="180.41 363.8 215.47 428.97 224.45 428.97 204.43 356.63 180.41 363.8"/><path class="cls-11_shopping-89 targetColor" d="m130.24,429.58s-5.18,6.57-11.8,6.24-7.59,9.04,3.06,8.07c4.07-.37,7.33-1.02,9.82-1.69,2.96-.79,6.02-.47,8.98.31.92.25,1.98.03,3.04-1.21,3.02-3.55-4.4-11.73-4.4-11.73h-8.69Z" style="fill: rgb(255, 153, 0);"/><path class="cls-11_shopping-89 targetColor" d="m224.36,427.69s3.86,7.42,10.43,8.34c6.57.92,5.76,10.3-4.52,7.36-3.97-1.14-7.09-2.41-9.41-3.54-2.73-1.32-5.78-1.55-8.8-1.33-.95.07-1.95-.34-2.76-1.76-1.22-2.15.68-5.01,2.73-7.24s5.09-3.21,8.06-2.64l4.27.82Z" style="fill: rgb(255, 153, 0);"/><path class="cls-1_shopping-89" d="m82.17,284.37c-.23-.86-5.4-21.3,8.06-32.13l1.22,1.51c-12.49,10.05-7.46,29.92-7.4,30.12l-1.88.49Z"/><path class="cls-1_shopping-89" d="m106.39,281.23c-.23-.86-5.73-21.92,8.2-31.95l1.08,1.34c-12.49,10.05-7.46,29.92-7.4,30.12l-1.88.49Z"/><rect class="cls-13_shopping-89" x="154.67" y="200.65" width="27.96" height="41.17" transform="translate(150.74 -56.37) rotate(33.63)"/><path class="cls-6_shopping-89" d="m100.29,136.06s32.31,27.24,13.17,58.98c-19.14,31.74-13.27,64.66,22.82,57.21l36.09-7.46h0s17.21,29.39-15.37,34.63l4.64,17.63-75.42.92-3.04-19.57-13.74-23.1-32.17-26.5,63.01-92.73Z"/><path class="cls-3_shopping-89" d="m102.4,144.57c-1.4-20.17-25.03-30.18-40.49-17.15-13.13,11.06-26.86,27.49-32.2,50.17-11.44,48.61-15.91,90.92,13.78,101.21,29.68,10.29,109.62-20.59,109.62-20.59,0,0,24.71,0,26.42-17.73,1.72-17.73-23.16-11.04-29.75,5.15,0,0-96.63,28.59-84.05-17.73,9.75-35.9,39.01-49.62,36.67-83.34Z"/><rect class="cls-11_shopping-89 targetColor" x="329.91" y="150.15" width="25.73" height="10.29" transform="translate(79.72 -113.8) rotate(21.28)" style="fill: rgb(255, 153, 0);"/><path class="cls-12_shopping-89" d="m91.12,297.05l18.07,121.29h51.11l-15.71-74.43c-3.07-14.56,4.61-29.25,18.31-35.04l27.98-11.82h-99.77Z"/><polygon class="cls-12_shopping-89" points="190.89 297.05 240.71 418.34 190.89 418.34 149.77 309.69 190.89 297.05"/><polygon class="cls-13_shopping-89" points="69.32 277.06 133.31 274.95 145.81 351.72 62.01 357.69 69.32 277.06"/><polygon class="cls-6_shopping-89" points="69.32 277.06 133.31 274.95 145.81 351.72 62.01 357.69 69.32 277.06"/><polygon class="cls-13_shopping-89" points="83.39 276.6 141.97 274.79 161.77 350.47 77.97 356.44 83.39 276.6"/><path class="cls-1_shopping-89" d="m101.81,286.3l-1.75-.83c.09-.19,8.71-18.74.52-31.19h0s-2.06-2.45-4.81-2.5c-1.72-.03-2.84.59-4.61,2.22l-1.9-.75c2.03-2.31,4.23-3.46,6.57-3.4,3.68.08,6.21,3.17,6.31,3.3,8.85,13.45.04,32.37-.34,33.16Z"/><path class="cls-1_shopping-89" d="m124.43,284.67l-1.75-.83c.09-.19,8.71-18.74.52-31.19h0s-2.06-2.45-4.8-2.5c-1.72-.03-3.56.77-5.19,2.63l-1.32-1.16c2.03-2.31,4.22-3.46,6.57-3.4,3.68.08,6.21,3.17,6.31,3.3,8.85,13.45.04,32.37-.34,33.16Z"/><circle class="cls-13_shopping-89" cx="133.04" cy="66.48" r="4.25"/></g><g id="shoes2_shopping-89"><path class="cls-13_shopping-89" d="m376.13,46.43s2.7,14,12.98,18.7c10.28,4.7,4.41,19.64-10.96,9.82-5.86-3.75-10.3-7.29-13.54-10.25-3.86-3.52-8.74-5.44-13.85-6.56-1.59-.35-3.02-1.5-3.65-4.21-1.79-7.75,15.86-14.31,15.86-14.31l13.16,6.81Z"/><rect class="cls-12_shopping-89" x="309.52" y="76.98" width="95.52" height="15.38"/><rect class="cls-11_shopping-89 targetColor" x="334.61" y="58.92" width="22.66" height="18.06" style="fill: rgb(255, 153, 0);"/></g><g id="shoes1_shopping-89"><path class="cls-11_shopping-89 targetColor" d="m456.4,133.38s2.7,14,12.98,18.7c10.28,4.7,4.41,19.64-10.96,9.82-5.86-3.75-10.3-7.29-13.54-10.25-3.86-3.52-8.74-5.44-13.85-6.56-1.59-.35-3.02-1.5-3.65-4.21-1.79-7.75,15.86-14.31,15.86-14.31l13.16,6.81Z" style="fill: rgb(255, 153, 0);"/><path class="cls-2_shopping-89" d="m456.4,133.38s2.7,14,12.98,18.7c10.28,4.7,4.41,19.64-10.96,9.82-5.86-3.75-10.3-7.29-13.54-10.25-3.86-3.52-8.74-5.44-13.85-6.56-1.59-.35-3.02-1.5-3.65-4.21-1.79-7.75,15.86-14.31,15.86-14.31l13.16,6.81Z"/><rect class="cls-12_shopping-89" x="389.78" y="163.93" width="95.52" height="15.38"/><rect class="cls-11_shopping-89 targetColor" x="414.88" y="145.87" width="22.66" height="18.06" style="fill: rgb(255, 153, 0);"/></g><g id="plant_shopping-89"><path class="cls-9_shopping-89 targetColor" d="m291.62,305.62s-15.74-4.23-19.23-18.85c0,0,24.34-5.03,25.14,20.12l-5.92-1.27Z" style="fill: rgb(255, 153, 0);"/><path class="cls-10_shopping-89 targetColor" d="m293.54,304.05s-11.06-17.32-1.46-33.6c0,0,18.58,11.69,10.44,33.6h-8.98Z" style="fill: rgb(255, 153, 0);"/><path class="cls-11_shopping-89 targetColor" d="m296.37,304.05s5.73-18.37,23.26-21.91c0,0,3.34,11.9-11.27,21.91h-11.99Z" style="fill: rgb(255, 153, 0);"/><polygon class="cls-12_shopping-89" points="284.96 303.69 288.24 325.48 308.32 325.48 311.19 303.69 284.96 303.69"/><rect class="cls-7_shopping-89" x="269.87" y="325.48" width="56.4" height="119.7"/><rect class="cls-7_shopping-89" x="326.27" y="403.06" width="55.76" height="16.62"/><rect class="cls-4_shopping-89" x="326.27" y="419.68" width="71.62" height="25.5"/></g></svg>