<svg id="_0330_closed_store_online" xmlns="http://www.w3.org/2000/svg" xmlns:xlink="http://www.w3.org/1999/xlink" viewBox="0 0 500 500" data-imageid="store-closed-55-bc922" imageName="Store Closed" class="illustrations_image" style="width: 166px;"><defs><style>.cls-1_store-closed-55-bc922{fill:url(#linear-gradient);}.cls-1_store-closed-55-bc922,.cls-2_store-closed-55-bc922,.cls-3_store-closed-55-bc922,.cls-4_store-closed-55-bc922,.cls-5_store-closed-55-bc922,.cls-6_store-closed-55-bc922,.cls-7_store-closed-55-bc922,.cls-8_store-closed-55-bc922,.cls-9_store-closed-55-bc922,.cls-10_store-closed-55-bc922,.cls-11_store-closed-55-bc922,.cls-12_store-closed-55-bc922,.cls-13_store-closed-55-bc922,.cls-14_store-closed-55-bc922,.cls-15_store-closed-55-bc922,.cls-16_store-closed-55-bc922,.cls-17_store-closed-55-bc922,.cls-18_store-closed-55-bc922,.cls-19_store-closed-55-bc922,.cls-20_store-closed-55-bc922,.cls-21_store-closed-55-bc922,.cls-22_store-closed-55-bc922,.cls-23_store-closed-55-bc922,.cls-24_store-closed-55-bc922,.cls-25_store-closed-55-bc922,.cls-26_store-closed-55-bc922,.cls-27_store-closed-55-bc922,.cls-28_store-closed-55-bc922,.cls-29_store-closed-55-bc922,.cls-30_store-closed-55-bc922,.cls-31_store-closed-55-bc922,.cls-32_store-closed-55-bc922,.cls-33_store-closed-55-bc922,.cls-34_store-closed-55-bc922,.cls-35_store-closed-55-bc922,.cls-36_store-closed-55-bc922,.cls-37_store-closed-55-bc922,.cls-38_store-closed-55-bc922,.cls-39_store-closed-55-bc922,.cls-40_store-closed-55-bc922,.cls-41_store-closed-55-bc922,.cls-42_store-closed-55-bc922,.cls-43_store-closed-55-bc922,.cls-44_store-closed-55-bc922,.cls-45_store-closed-55-bc922,.cls-46_store-closed-55-bc922,.cls-47_store-closed-55-bc922,.cls-48_store-closed-55-bc922,.cls-49_store-closed-55-bc922,.cls-50_store-closed-55-bc922{stroke-width:0px;}.cls-2_store-closed-55-bc922{fill:url(#linear-gradient-38-store-closed-55-bc922);}.cls-3_store-closed-55-bc922{fill:url(#linear-gradient-33-store-closed-55-bc922);}.cls-4_store-closed-55-bc922{fill:url(#linear-gradient-29-store-closed-55-bc922);}.cls-5_store-closed-55-bc922{fill:url(#linear-gradient-32-store-closed-55-bc922);}.cls-6_store-closed-55-bc922{fill:url(#linear-gradient-30-store-closed-55-bc922);}.cls-7_store-closed-55-bc922{fill:url(#linear-gradient-31-store-closed-55-bc922);}.cls-8_store-closed-55-bc922{fill:url(#linear-gradient-36-store-closed-55-bc922);}.cls-9_store-closed-55-bc922{fill:url(#linear-gradient-39-store-closed-55-bc922);}.cls-10_store-closed-55-bc922{fill:url(#linear-gradient-34-store-closed-55-bc922);}.cls-11_store-closed-55-bc922{fill:url(#linear-gradient-37-store-closed-55-bc922);}.cls-12_store-closed-55-bc922{fill:url(#linear-gradient-35-store-closed-55-bc922);}.cls-13_store-closed-55-bc922{fill:url(#linear-gradient-28-store-closed-55-bc922);}.cls-14_store-closed-55-bc922{fill:url(#linear-gradient-25-store-closed-55-bc922);}.cls-15_store-closed-55-bc922{fill:url(#linear-gradient-11-store-closed-55-bc922);}.cls-16_store-closed-55-bc922{fill:url(#linear-gradient-12-store-closed-55-bc922);}.cls-17_store-closed-55-bc922{fill:url(#linear-gradient-13-store-closed-55-bc922);}.cls-18_store-closed-55-bc922{fill:url(#linear-gradient-10-store-closed-55-bc922);}.cls-19_store-closed-55-bc922{fill:url(#linear-gradient-17-store-closed-55-bc922);}.cls-20_store-closed-55-bc922{fill:url(#linear-gradient-16-store-closed-55-bc922);}.cls-21_store-closed-55-bc922{fill:url(#linear-gradient-19-store-closed-55-bc922);}.cls-22_store-closed-55-bc922{fill:url(#linear-gradient-15-store-closed-55-bc922);}.cls-23_store-closed-55-bc922{fill:url(#linear-gradient-23-store-closed-55-bc922);}.cls-24_store-closed-55-bc922{fill:url(#linear-gradient-21-store-closed-55-bc922);}.cls-25_store-closed-55-bc922{fill:url(#linear-gradient-18-store-closed-55-bc922);}.cls-26_store-closed-55-bc922{fill:url(#linear-gradient-14-store-closed-55-bc922);}.cls-27_store-closed-55-bc922{fill:url(#linear-gradient-22-store-closed-55-bc922);}.cls-28_store-closed-55-bc922{fill:url(#linear-gradient-20-store-closed-55-bc922);}.cls-29_store-closed-55-bc922{fill:url(#linear-gradient-27-store-closed-55-bc922);}.cls-30_store-closed-55-bc922{fill:url(#linear-gradient-24-store-closed-55-bc922);}.cls-31_store-closed-55-bc922{fill:url(#linear-gradient-26-store-closed-55-bc922);}.cls-32_store-closed-55-bc922{fill:url(#linear-gradient-44-store-closed-55-bc922);}.cls-33_store-closed-55-bc922{fill:url(#linear-gradient-42-store-closed-55-bc922);}.cls-34_store-closed-55-bc922{fill:url(#linear-gradient-43-store-closed-55-bc922);}.cls-35_store-closed-55-bc922{fill:url(#linear-gradient-40-store-closed-55-bc922);}.cls-36_store-closed-55-bc922{fill:url(#linear-gradient-41-store-closed-55-bc922);}.cls-37_store-closed-55-bc922{opacity:.66;}.cls-37_store-closed-55-bc922,.cls-38_store-closed-55-bc922{isolation:isolate;}.cls-37_store-closed-55-bc922,.cls-38_store-closed-55-bc922,.cls-50_store-closed-55-bc922{fill:#68e1fd;}.cls-38_store-closed-55-bc922{opacity:.41;}.cls-39_store-closed-55-bc922{fill:url(#linear-gradient-4-store-closed-55-bc922);}.cls-40_store-closed-55-bc922{fill:url(#linear-gradient-2-store-closed-55-bc922);}.cls-41_store-closed-55-bc922{fill:url(#linear-gradient-3-store-closed-55-bc922);}.cls-42_store-closed-55-bc922{fill:url(#linear-gradient-8-store-closed-55-bc922);}.cls-43_store-closed-55-bc922{fill:url(#linear-gradient-9-store-closed-55-bc922);}.cls-44_store-closed-55-bc922{fill:url(#linear-gradient-7-store-closed-55-bc922);}.cls-45_store-closed-55-bc922{fill:url(#linear-gradient-5-store-closed-55-bc922);}.cls-46_store-closed-55-bc922{fill:url(#linear-gradient-6-store-closed-55-bc922);}.cls-47_store-closed-55-bc922{fill:#c14834;}.cls-48_store-closed-55-bc922{fill:#fff;}.cls-49_store-closed-55-bc922{fill:#ffb4a3;}</style><linearGradient id="linear-gradient-store-closed-55-bc922" x1="302.78" y1="1688.24" x2="293.52" y2="1548.41" gradientTransform="translate(-73.86 2005.22) scale(1 -1)" gradientUnits="userSpaceOnUse"><stop offset="0" stop-color="#231f20" stop-opacity="0"/><stop offset="1" stop-color="#231f20"/></linearGradient><linearGradient id="linear-gradient-2-store-closed-55-bc922" x1="257.34" y1="1787.71" x2="529.15" y2="1798.73" gradientTransform="translate(-31 2015.62) scale(1 -1)" xlink:href="#linear-gradient-store-closed-55-bc922"/><linearGradient id="linear-gradient-3-store-closed-55-bc922" x1="352.41" y1="1603.59" x2="345.06" y2="1804.37" xlink:href="#linear-gradient-store-closed-55-bc922"/><linearGradient id="linear-gradient-4-store-closed-55-bc922" x1="345.66" y1="1719.42" x2="362.73" y2="1581.94" xlink:href="#linear-gradient-store-closed-55-bc922"/><linearGradient id="linear-gradient-5-store-closed-55-bc922" x1="260.17" y1="1937.57" x2="253.27" y2="1849.67" gradientTransform="translate(-31 2015.62) scale(1 -1)" xlink:href="#linear-gradient-store-closed-55-bc922"/><linearGradient id="linear-gradient-6-store-closed-55-bc922" x1="309.61" y1="1938.29" x2="302.63" y2="1849.28" gradientTransform="translate(-31 2015.62) scale(1 -1)" xlink:href="#linear-gradient-store-closed-55-bc922"/><linearGradient id="linear-gradient-7-store-closed-55-bc922" x1="301.65" y1="1942.64" x2="294.67" y2="1853.64" gradientTransform="translate(-31 2015.62) scale(1 -1)" xlink:href="#linear-gradient-store-closed-55-bc922"/><linearGradient id="linear-gradient-8-store-closed-55-bc922" x1="346.55" y1="1942.64" x2="339.57" y2="1853.64" gradientTransform="translate(-31 2015.62) scale(1 -1)" xlink:href="#linear-gradient-store-closed-55-bc922"/><linearGradient id="linear-gradient-9-store-closed-55-bc922" x1="297.53" y1="1910.91" x2="306.27" y2="1830.53" gradientTransform="translate(-73.86 2005.22) scale(1 -1)" gradientUnits="userSpaceOnUse"><stop offset=".02" stop-color="#fff" stop-opacity="0"/><stop offset=".32" stop-color="#fff" stop-opacity=".39"/><stop offset=".68" stop-color="#fff" stop-opacity=".68"/><stop offset="1" stop-color="#fff"/></linearGradient><linearGradient id="linear-gradient-10-store-closed-55-bc922" x1="273.67" y1="1908.31" x2="282.41" y2="1827.94" xlink:href="#linear-gradient-store-closed-55-bc922"/><linearGradient id="linear-gradient-11-store-closed-55-bc922" x1="345.24" y1="1915.95" x2="353.98" y2="1835.58" xlink:href="#linear-gradient-9-store-closed-55-bc922"/><linearGradient id="linear-gradient-12-store-closed-55-bc922" x1="367.56" y1="1915.24" x2="376.16" y2="1836.16" xlink:href="#linear-gradient-store-closed-55-bc922"/><linearGradient id="linear-gradient-13-store-closed-55-bc922" x1="249.81" y1="1905.72" x2="258.55" y2="1825.35" xlink:href="#linear-gradient-9-store-closed-55-bc922"/><linearGradient id="linear-gradient-14-store-closed-55-bc922" x1="321.39" y1="1913.5" x2="330.12" y2="1833.12" xlink:href="#linear-gradient-store-closed-55-bc922"/><linearGradient id="linear-gradient-15-store-closed-55-bc922" x1="225.95" y1="1903.12" x2="234.69" y2="1822.75" xlink:href="#linear-gradient-store-closed-55-bc922"/><linearGradient id="linear-gradient-16-store-closed-55-bc922" x1="197.85" y1="1907.37" x2="255.11" y2="1907.37" gradientTransform="translate(-31 2015.62) scale(1 -1)" xlink:href="#linear-gradient-9-store-closed-55-bc922"/><linearGradient id="linear-gradient-17-store-closed-55-bc922" x1="246.24" y1="1907.48" x2="302.04" y2="1907.48" gradientTransform="translate(-31 2015.62) scale(1 -1)" xlink:href="#linear-gradient-9-store-closed-55-bc922"/><linearGradient id="linear-gradient-18-store-closed-55-bc922" x1="294.64" y1="1907.48" x2="350.44" y2="1907.48" gradientTransform="translate(-31 2015.62) scale(1 -1)" xlink:href="#linear-gradient-9-store-closed-55-bc922"/><linearGradient id="linear-gradient-19-store-closed-55-bc922" x1="391.88" y1="1890.5" x2="328.48" y2="1921.52" gradientTransform="translate(-31 2015.62) scale(1 -1)" xlink:href="#linear-gradient-store-closed-55-bc922"/><linearGradient id="linear-gradient-20-store-closed-55-bc922" x1="280.71" y1="1674.71" x2="284.52" y2="1611.04" gradientTransform="translate(-31 2015.62) scale(1 -1)" xlink:href="#linear-gradient-store-closed-55-bc922"/><linearGradient id="linear-gradient-21-store-closed-55-bc922" x1="303.66" y1="1768.72" x2="318.01" y2="1653.19" gradientTransform="translate(-31 2015.62) scale(1 -1)" xlink:href="#linear-gradient-store-closed-55-bc922"/><linearGradient id="linear-gradient-22-store-closed-55-bc922" x1="353.29" y1="1775.25" x2="371.23" y2="1707.02" gradientTransform="translate(-73.86 2005.22) scale(1 -1)" gradientUnits="userSpaceOnUse"><stop offset="0" stop-color="#000" stop-opacity="0"/><stop offset=".99" stop-color="#000"/></linearGradient><linearGradient id="linear-gradient-23-store-closed-55-bc922" x1="249.37" y1="240.15" x2="271.04" y2="253.67" gradientTransform="matrix(1,0,0,1,0,0)" xlink:href="#linear-gradient-store-closed-55-bc922"/><linearGradient id="linear-gradient-24-store-closed-55-bc922" x1="233.7" y1="217.11" x2="289.74" y2="422.14" gradientTransform="matrix(1,0,0,1,0,0)" xlink:href="#linear-gradient-store-closed-55-bc922"/><linearGradient id="linear-gradient-25-store-closed-55-bc922" x1="-158.41" y1="1473.17" x2="-143.65" y2="1395.81" gradientTransform="translate(65.39 1842.13) rotate(7.72) scale(1 -1)" xlink:href="#linear-gradient-store-closed-55-bc922"/><linearGradient id="linear-gradient-26-store-closed-55-bc922" x1="-138.43" y1="1479.34" x2="-123.67" y2="1401.98" gradientTransform="translate(65.39 1842.13) rotate(7.72) scale(1 -1)" xlink:href="#linear-gradient-store-closed-55-bc922"/><linearGradient id="linear-gradient-27-store-closed-55-bc922" x1="-121.82" y1="1470.76" x2="-107.07" y2="1393.4" gradientTransform="translate(65.39 1842.13) rotate(7.72) scale(1 -1)" xlink:href="#linear-gradient-store-closed-55-bc922"/><linearGradient id="linear-gradient-28-store-closed-55-bc922" x1="-101.84" y1="1476.93" x2="-87.08" y2="1399.57" gradientTransform="translate(65.39 1842.13) rotate(7.72) scale(1 -1)" xlink:href="#linear-gradient-store-closed-55-bc922"/><linearGradient id="linear-gradient-29-store-closed-55-bc922" x1="708.54" y1="1789.85" x2="724.4" y2="1706.71" gradientTransform="translate(-247.74 2284.36) rotate(-11.66) scale(1 -1)" xlink:href="#linear-gradient-store-closed-55-bc922"/><linearGradient id="linear-gradient-30-store-closed-55-bc922" x1="730" y1="1796.48" x2="745.87" y2="1713.34" gradientTransform="translate(-247.74 2284.36) rotate(-11.66) scale(1 -1)" xlink:href="#linear-gradient-store-closed-55-bc922"/><linearGradient id="linear-gradient-31-store-closed-55-bc922" x1="-944.99" y1="318.35" x2="-929.13" y2="235.2" gradientTransform="translate(901.94 1219.3) rotate(39.16) scale(1 -1)" xlink:href="#linear-gradient-store-closed-55-bc922"/><linearGradient id="linear-gradient-32-store-closed-55-bc922" x1="-923.55" y1="324.98" x2="-907.69" y2="241.83" gradientTransform="translate(901.94 1219.3) rotate(39.16) scale(1 -1)" xlink:href="#linear-gradient-store-closed-55-bc922"/><linearGradient id="linear-gradient-33-store-closed-55-bc922" x1="-929.18" y1="339.89" x2="-913.32" y2="256.74" gradientTransform="translate(901.94 1219.3) rotate(39.16) scale(1 -1)" xlink:href="#linear-gradient-store-closed-55-bc922"/><linearGradient id="linear-gradient-34-store-closed-55-bc922" x1="-907.8" y1="346.51" x2="-891.94" y2="263.36" gradientTransform="translate(901.94 1219.3) rotate(39.16) scale(1 -1)" xlink:href="#linear-gradient-store-closed-55-bc922"/><linearGradient id="linear-gradient-35-store-closed-55-bc922" x1="-1088.54" y1="-2082.8" x2="-1072.68" y2="-2165.95" gradientTransform="translate(2431.2 1469.1) rotate(89.08) scale(1 -1)" xlink:href="#linear-gradient-store-closed-55-bc922"/><linearGradient id="linear-gradient-36-store-closed-55-bc922" x1="-1067.08" y1="-2076.16" x2="-1051.22" y2="-2159.32" gradientTransform="translate(2431.2 1469.1) rotate(89.08) scale(1 -1)" xlink:href="#linear-gradient-store-closed-55-bc922"/><linearGradient id="linear-gradient-37-store-closed-55-bc922" x1="-1084.87" y1="-2099.7" x2="-1069.01" y2="-2182.85" gradientTransform="translate(2431.2 1469.1) rotate(89.08) scale(1 -1)" xlink:href="#linear-gradient-store-closed-55-bc922"/><linearGradient id="linear-gradient-38-store-closed-55-bc922" x1="-1063.43" y1="-2093.08" x2="-1047.57" y2="-2176.22" gradientTransform="translate(2431.2 1469.1) rotate(89.08) scale(1 -1)" xlink:href="#linear-gradient-store-closed-55-bc922"/><linearGradient id="linear-gradient-39-store-closed-55-bc922" x1="-1094.45" y1="-2169.2" x2="-1078.59" y2="-2252.34" gradientTransform="translate(2431.2 1469.1) rotate(89.08) scale(1 -1)" xlink:href="#linear-gradient-store-closed-55-bc922"/><linearGradient id="linear-gradient-40-store-closed-55-bc922" x1="-1072.99" y1="-2162.57" x2="-1057.13" y2="-2245.71" gradientTransform="translate(2431.2 1469.1) rotate(89.08) scale(1 -1)" xlink:href="#linear-gradient-store-closed-55-bc922"/><linearGradient id="linear-gradient-41-store-closed-55-bc922" x1="680.4" y1="1786.83" x2="692.25" y2="1724.7" gradientTransform="translate(-247.74 2284.36) rotate(-11.66) scale(1 -1)" xlink:href="#linear-gradient-store-closed-55-bc922"/><linearGradient id="linear-gradient-42-store-closed-55-bc922" x1="696.39" y1="1791.77" x2="708.24" y2="1729.63" gradientTransform="translate(-247.74 2284.36) rotate(-11.66) scale(1 -1)" xlink:href="#linear-gradient-store-closed-55-bc922"/><linearGradient id="linear-gradient-43-store-closed-55-bc922" x1="452.22" y1="1673.39" x2="424.89" y2="1591.03" gradientTransform="translate(-31 2015.62) scale(1 -1)" xlink:href="#linear-gradient-store-closed-55-bc922"/><linearGradient id="linear-gradient-44-store-closed-55-bc922" x1="151.86" y1="1664.74" x2="119.3" y2="1574.9" gradientTransform="translate(-1438.94 1015.78) rotate(62.16) scale(1 -1)" xlink:href="#linear-gradient-store-closed-55-bc922"/></defs><g id="background_store-closed-55-bc922"><path class="cls-38_store-closed-55-bc922 targetColor" d="M440.41,356.76c-.35,8.05-2.6,15.91-6.57,22.92-.37.65-.75,1.29-1.19,1.91v-.28h-1.57l-209.54-.59-128.99-.4-54.61-.15c1.35-11.68-4.33-40.14-2.98-51.82.84-7.27,1.71-14.63,4.43-21.43,6.52-16.32,22.33-26.58,35.02-38.75,30.87-29.51,44.63-72.8,49.86-115.16,3.12-25.2,3.86-51.5,15.15-74.25,12.03-24.24,35.12-41.75,60.4-51.41,25.29-9.65,52.78-12.1,79.85-12.22,29.35-.13,62.62,4.5,79.72,28.35,6.91,9.65,10.23,21.37,15.68,31.9,18.15,35.11,59.36,56.68,69.26,94.92,5.63,21.61,0,44.28-3.56,66.32-4.04,24.97-5.41,50.3-4.07,75.55.75,15.21,4.55,30.08,3.69,44.59Z" style="fill: rgb(255, 153, 0);"/><path class="cls-37_store-closed-55-bc922 targetColor" d="M432.74,381.32v.5c-26,52.66-87.02,83-115.48,83.74l-198.77,1.69c-45.3,0-80.6-37.82-80.6-83.1v-3.93l394.85,1.1Z" style="fill: rgb(255, 153, 0);"/><path class="cls-1_store-closed-55-bc922" d="M89.86,400.5c-2.37.89-5.15,2.99-4.04,5.22.49.77,1.21,1.36,2.05,1.71,23.74,12.52,51.56,14.09,78.35,15.43l104.54,5.1c16.62.82,33.99,1.48,49.09-5.5,5.74-2.87,11.19-6.29,16.28-10.2,7.18-5.2,14.3-10.46,21.37-15.78,1.76-1.33,3.64-2.87,3.99-5.03.4-2.5-1.54-4.91-3.87-5.94-2.41-.82-4.96-1.11-7.49-.84-23.09.79-46.2,1.12-69.31.97-14.67-.08-29.38-.33-43.93-2.18-23.74-3.02-46.3-6.24-70.21-3.24-26.09,3.24-52.21,10.77-76.84,20.27Z"/></g><g id="online_store_store-closed-55-bc922"><rect class="cls-50_store-closed-55-bc922 targetColor" x="178" y="66.16" width="183.66" height="319.97" rx="22.28" ry="22.28" style="fill: rgb(255, 153, 0);"/><rect class="cls-40_store-closed-55-bc922" x="178" y="66.16" width="183.66" height="319.97" rx="22.28" ry="22.28"/><rect class="cls-50_store-closed-55-bc922 targetColor" x="166.57" y="66.16" width="183.66" height="319.97" rx="22.28" ry="22.28" style="fill: rgb(255, 153, 0);"/><path class="cls-48_store-closed-55-bc922" d="M336.35,102.79v235.43c0,9.76-7.9,17.68-17.67,17.7h-119.72c-9.77,0-17.69-7.91-17.7-17.68V102.79c0-8.05,6.53-14.58,14.58-14.59h125.93c8.05.01,14.57,6.54,14.58,14.59Z"/><path class="cls-50_store-closed-55-bc922 targetColor" d="M336.35,260.02v78.2c0,9.76-7.9,17.68-17.67,17.7h-104.77v-95.9h122.44Z" style="fill: rgb(255, 153, 0);"/><path class="cls-41_store-closed-55-bc922" d="M336.35,260.02v78.2c-.02,9.75-7.91,17.66-17.67,17.7h-104.78v-95.9h122.45Z"/><path class="cls-39_store-closed-55-bc922" d="M336.35,305.13v33.09c0,4.54-1.74,8.91-4.89,12.19h-113.78v-45.28h118.67Z"/><polygon class="cls-50_store-closed-55-bc922 targetColor" points="179.47 88.35 142.09 128.33 308.08 128.33 341.39 87.79 179.47 88.35" style="fill: rgb(255, 153, 0);"/><polygon class="cls-45_store-closed-55-bc922" points="199.96 88.2 166.48 128.1 308.38 128.23 142.09 128.23 143.1 127.29 156.46 114.76 181.18 88.19 199.96 88.2"/><polygon class="cls-46_store-closed-55-bc922" points="249.13 87.63 215.86 128.1 357.77 128.23 191.48 128.23 192.47 127.29 224.11 88.19 249.13 87.63"/><polygon class="cls-44_store-closed-55-bc922" points="296.74 87.63 263.48 128.1 239.08 128.23 240.09 127.29 271.73 88.19 296.74 87.63"/><polygon class="cls-42_store-closed-55-bc922" points="341.63 87.63 308.38 128.1 283.98 128.23 284.99 127.29 316.63 88.19 341.63 87.63"/><path class="cls-50_store-closed-55-bc922 targetColor" d="M215.47,128.33h23.8c-.81,6.57-6.79,11.25-13.36,10.44-5.47-.67-9.77-4.98-10.44-10.44Z" style="fill: rgb(255, 153, 0);"/><path class="cls-50_store-closed-55-bc922 targetColor" d="M191.32,128.33h23.8c-.81,6.57-6.79,11.25-13.36,10.44-5.47-.67-9.77-4.98-10.44-10.44Z" style="fill: rgb(255, 153, 0);"/><path class="cls-50_store-closed-55-bc922 targetColor" d="M287.57,128.19c-.74,6.58-6.68,11.31-13.26,10.57-5.51-.62-9.88-4.94-10.56-10.44h23.74l.07-.13Z" style="fill: rgb(255, 153, 0);"/><path class="cls-50_store-closed-55-bc922 targetColor" d="M308.26,128.19c-.57,6-5,10.68-10.36,10.68s-9.71-4.61-10.34-10.53h20.62l.08-.15Z" style="fill: rgb(255, 153, 0);"/><path class="cls-50_store-closed-55-bc922 targetColor" d="M167.19,128.33h23.8c-.81,6.57-6.79,11.25-13.36,10.44-5.47-.67-9.77-4.98-10.44-10.44Z" style="fill: rgb(255, 153, 0);"/><path class="cls-50_store-closed-55-bc922 targetColor" d="M239.6,128.33h23.8c-.81,6.57-6.79,11.25-13.36,10.44-5.47-.67-9.77-4.98-10.44-10.44Z" style="fill: rgb(255, 153, 0);"/><path class="cls-50_store-closed-55-bc922 targetColor" d="M143.04,128.33h23.82c-.83,6.58-6.84,11.23-13.41,10.4-5.43-.69-9.71-4.97-10.4-10.4Z" style="fill: rgb(255, 153, 0);"/><path class="cls-43_store-closed-55-bc922" d="M215.47,128.33h23.8c-.81,6.57-6.79,11.25-13.36,10.44-5.47-.67-9.77-4.98-10.44-10.44Z"/><path class="cls-18_store-closed-55-bc922" d="M191.32,128.33h23.8c-.81,6.57-6.79,11.25-13.36,10.44-5.47-.67-9.77-4.98-10.44-10.44Z"/><path class="cls-15_store-closed-55-bc922" d="M287.54,128.33c-.74,6.58-6.67,11.32-13.25,10.58-5.51-.62-9.88-4.93-10.56-10.44h23.74l.07-.14Z"/><path class="cls-16_store-closed-55-bc922" d="M308.19,128.25c-.57,5.94-4.97,10.68-10.32,10.68s-9.7-4.61-10.32-10.53h20.55l.08-.15Z"/><path class="cls-17_store-closed-55-bc922" d="M167.19,128.33h23.8c-.81,6.57-6.79,11.25-13.36,10.44-5.47-.67-9.77-4.98-10.44-10.44Z"/><path class="cls-26_store-closed-55-bc922" d="M239.6,128.33h23.8c-.81,6.57-6.79,11.25-13.36,10.44-5.47-.67-9.77-4.98-10.44-10.44Z"/><path class="cls-22_store-closed-55-bc922" d="M143.04,128.33h23.82c-.83,6.58-6.84,11.23-13.41,10.4-5.43-.69-9.71-4.97-10.4-10.4Z"/><polygon class="cls-20_store-closed-55-bc922" points="166.85 128.33 199.75 88.49 224.11 88.19 190.99 128.33 166.85 128.33"/><polygon class="cls-19_store-closed-55-bc922" points="215.24 128.33 248.15 88.49 271.04 87.96 239.39 128.33 215.24 128.33"/><polygon class="cls-25_store-closed-55-bc922" points="263.64 128.33 296.55 88.49 319.44 87.96 287.79 128.33 263.64 128.33"/><polygon class="cls-50_store-closed-55-bc922 targetColor" points="308.1 128.4 340.03 122.08 341.76 87.63 308.1 128.4" style="fill: rgb(255, 153, 0);"/><polygon class="cls-21_store-closed-55-bc922" points="308.38 128.05 340.29 121.74 342.03 87.28 308.38 128.05"/><path class="cls-28_store-closed-55-bc922" d="M238.68,363.41h25.57c3.76,0,6.8,3.05,6.8,6.8h0c0,3.76-3.05,6.8-6.8,6.8h-25.57c-3.76,0-6.8-3.05-6.8-6.8h0c0-3.76,3.05-6.8,6.8-6.8Z"/><rect class="cls-24_store-closed-55-bc922" x="217.68" y="264.33" width="118.67" height="35.19"/></g><g id="character_store-closed-55-bc922"><path class="cls-50_store-closed-55-bc922 targetColor" d="M268.3,225.27c-3.92,4.2-6.19,9.64-8.38,14.96l-6.24,15.15c-.44.71-.52,1.59-.21,2.37.48.61,1.21.98,1.98,1,3.2.49,6.42.81,9.65.96,16.26,1.01,32.54,1.38,48.84,1.12,1.96.12,3.92-.21,5.72-.97,4.5-2.28,4.86-8.51,4.06-13.49-.92-5.78-2.55-11.43-4.84-16.82-.8-2.14-1.98-4.12-3.49-5.84-3.73-3.89-9.64-4.52-15.03-4.68-10.32-.3-24.33-2.05-32.05,6.24Z" style="fill: rgb(255, 153, 0);"/><path class="cls-27_store-closed-55-bc922" d="M305.11,241.67c.47,1.54.24,3.21-.64,4.56-1.04,1.27-2.87,1.53-4.52,1.61-8.01.42-16.19-.96-24.01.87-1.12.15-2.16.68-2.93,1.51-.67,1.19-.86,2.58-.53,3.91l.66,5.73-7.8-1.42c-.3-.03-.58-.12-.83-.28-.37-.36-.6-.84-.63-1.35-.63-2.99-.91-6.04-.82-9.09.1-3.09,1.32-6.04,3.42-8.31,1.99-1.75,4.39-2.97,6.97-3.56,6.03-1.73,12.32-2.23,18.58-2.74,2.72-.21,7.21-.82,9.5,1.02,1.95,1.56,3.11,5.26,3.59,7.56Z"/><path class="cls-50_store-closed-55-bc922 targetColor" d="M239.41,232.98c-.58-.24-1.23-.29-1.84-.15-.46.19-.87.49-1.19.88-.94,1.06-1.8,2.2-2.56,3.4-.49.75-5.12.23-5.02,1.12.15.78.53,1.49,1.09,2.04,4.06,4.75,9.81,7.81,14.98,11.4,3.56,2.45,7.06,5.29,11.33,5.79,3.84.41,7.63-1.15,10.06-4.16,1-1.26,1.72-3.03.97-4.45-.43-.66-1-1.21-1.67-1.61-9.13-6.57-15.09-11.39-26.14-14.25Z" style="fill: rgb(255, 153, 0);"/><polygon class="cls-48_store-closed-55-bc922" points="268.75 241.22 275.93 259.6 262.88 259.6 268.75 241.22"/><polygon class="cls-23_store-closed-55-bc922" points="268.75 241.22 275.93 259.6 262.88 259.6 268.75 241.22"/><polygon class="cls-48_store-closed-55-bc922" points="264.57 259.65 216.87 259.65 221.05 241.22 268.75 241.22 264.57 259.65"/><polygon class="cls-30_store-closed-55-bc922" points="264.57 259.65 216.87 259.65 221.05 241.22 268.75 241.22 264.57 259.65"/><path class="cls-49_store-closed-55-bc922" d="M272.04,200.3c-.21,1.96-.14,3.94.2,5.88.86,3.46,3.33,6.29,6.65,7.61,2.37.95,5.25,1.19,6.9,3.16s1.57,4.57,3.25,6.21c1.81,1.52,4.42,1.62,6.34.25,1.85-1.39,3.08-3.45,3.44-5.73.35-2.26.48-4.55.4-6.84.04-3.05.29-6.09.75-9.11.41-2.1.67-4.22.77-6.35-.02-2.48-.5-4.93-1.41-7.23-2.03-5.35-6.21-10.17-11.75-11.6-5.19-1.29-10.62.94-13.42,5.51-1.39,2.24-1.26,4.52-1.42,7.12-.24,3.74-.46,7.43-.7,11.12Z"/><path class="cls-47_store-closed-55-bc922" d="M270.46,169.53c-1-.42-2.37-.78-2.97.08-.22.35-.33.77-.31,1.19-.02,1.52.49,3.01,1.44,4.2-.99-.07-1.97.22-2.77.82-1.12,1.12-.57,3.05.42,4.27.99,1.22,2.37,2.2,2.94,3.64.31.76.38,1.6.66,2.37.23.81.92,1.41,1.76,1.53,1.07,0,1.77-1.08,2.37-1.97,3.52-4.8,10.19-6.01,15.17-2.75,4.64,3.29,5.94,9.5,6.84,15.12.47.32.75-.57.94-1.12.4-1.19,2.28-1.09,2.96-.07.56,1.11.46,2.45-.27,3.45-.65,1.03-1.59,1.85-2.3,2.85-.21.24-.32.55-.31.87.07.25.22.48.43.64.58.58,1.21,1.13,1.86,1.63.48.47,1.13.72,1.8.68.47-.12.89-.4,1.19-.78,2.37-2.69,3.34-6.43,3.86-10.03.52-3.6.47-7.63-2.37-9.79-.55-.43-1.19-.75-1.7-1.19-.9-.89-1.65-1.93-2.2-3.07-2.99-5.03-7.59-8.91-13.06-11.01-2.48-1.16-5.24-1.55-7.94-1.1-2.78.82-5.77.66-8.44-.46Z"/><path class="cls-49_store-closed-55-bc922" d="M228.91,236.38c-1.55,2.07-2.1,4.73-1.5,7.24.17.81.71,1.49,1.45,1.85.6.17,1.23.13,1.8-.12,2.28-.77,4.23-2.56,6.62-2.81,1.07-.12,2.14.08,3.21,0,6.28-.21,1.47-5.94-.36-8.41-3.19-4.36-9.22-.7-11.23,2.24Z"/><path class="cls-48_store-closed-55-bc922" d="M224.6,251.47c-.06.14-.06.31,0,.45.14.22.39.33.64.3.41.05.81-.18.97-.56.07-.15.02-.33-.12-.43-.28-.12-.58-.2-.88-.25-.32-.03-.63-.16-.89-.36-.33-.3-.41-.79-.21-1.19.43-1.01,1.46-1.63,2.55-1.53.81,0,1.34.24,1.53.7.09.23.11.48.06.72l-1.39.14c.06-.39-.11-.56-.59-.56-.35-.02-.69.17-.84.49-.06.15.02.33.17.39.26.09.53.16.81.2.33.05.64.17.91.34.37.3.48.82.26,1.25-.15.45-.44.85-.83,1.13-.54.38-1.19.58-1.85.57-.46.02-.91-.09-1.31-.31-.27-.17-.42-.47-.42-.78-.02-.19-.02-.37,0-.56l1.42-.17Z"/><path class="cls-48_store-closed-55-bc922" d="M233.56,250.56c-.47,1.55-1.86,2.63-3.48,2.69-1.56,0-2.21-1.04-1.65-2.67.46-1.54,1.86-2.61,3.47-2.65,1.56,0,2.21,1.02,1.66,2.62ZM232.23,250.56c.34-.99.07-1.58-.69-1.58-.88.08-1.6.72-1.79,1.58-.34,1-.08,1.63.7,1.63s1.44-.61,1.78-1.61h0Z"/><path class="cls-48_store-closed-55-bc922" d="M234.26,253.13h-.95c.14-.29.26-.59.36-.89l1.1-3.23c.14-.43.21-.69.28-.99h1.38c-.15.32-.28.64-.38.97l-1.03,3.03h1.53c.36.02.71.02,1.07,0l-.39,1.19c-.35-.02-.7-.02-1.04,0l-1.92-.08Z"/><path class="cls-48_store-closed-55-bc922" d="M239.14,248.92c.11-.29.19-.59.25-.89h2.26c.61-.07,1.21.16,1.63.61.33.59.35,1.29.06,1.9-.25.79-.75,1.48-1.41,1.97-.58.41-1.28.63-1.99.62h-2.28c.14-.29.26-.58.36-.89l1.14-3.31ZM240.17,252.07c.38.01.75-.1,1.04-.33.39-.3.67-.72.81-1.19.18-.36.18-.77,0-1.13-.14-.21-.42-.32-.88-.32h-.82l-1,2.96h.84Z"/><path class="cls-48_store-closed-55-bc922" d="M251.01,250.56c-.47,1.55-1.86,2.63-3.48,2.69-1.56,0-2.21-1.04-1.65-2.67.46-1.54,1.86-2.61,3.47-2.65,1.66,0,2.26,1.02,1.66,2.62ZM249.68,250.56c.34-.99.07-1.58-.69-1.58-.88.08-1.6.72-1.79,1.58-.34,1-.08,1.63.7,1.63s1.48-.61,1.83-1.61h-.05Z"/><path class="cls-48_store-closed-55-bc922" d="M257.41,248.04c-.14.3-.27.61-.37.93l-.72,2.1c-.42,1.36-1.71,2.26-3.13,2.18-.78.22-1.58-.23-1.8-1.01-.11-.4-.05-.84.18-1.19l.71-2.09c.11-.3.21-.61.27-.93h1.37c-.15.3-.27.61-.37.93l-.71,2.1c-.26.77,0,1.19.71,1.19.73.03,1.37-.47,1.52-1.19l.71-2.1c.11-.3.2-.61.26-.93h1.38Z"/><path class="cls-48_store-closed-55-bc922" d="M259.48,252.21c-.11.3-.2.61-.27.93h-1.4c.14-.3.27-.61.37-.93l1.06-3.09h-.75c-.32-.02-.65-.02-.97,0l.39-1.19c.31.02.63.02.94,0h3.78l-.39,1.19c-.32-.02-.65-.02-.97,0h-.74l-1.03,3.09Z"/></g><g id="trail_store-closed-55-bc922"><path class="cls-14_store-closed-55-bc922" d="M118.32,385.98c-6.26.57-12.46,1.72-18.51,3.45-1.97.56-4.33,1.73-4.23,3.78.14,2.6,3.81,3,6.38,2.56,5.59-.99,11.13-2.18,16.62-3.56.39-.07.77-.21,1.1-.43,1.59-1.19-.26-3.66-.08-5.64"/><path class="cls-31_store-closed-55-bc922" d="M130.24,383.74c-1.54-.22-3.11-.04-4.56.51-1.47.61-2.27,2.22-1.85,3.76.55,1.37,2.2,1.88,3.64,2.05,1.54.31,3.15.05,4.51-.74,1.28-.9,1.84-2.93.75-4.05"/><path class="cls-29_store-closed-55-bc922" d="M154.27,393.28c-6.27.57-12.47,1.72-18.52,3.45-1.97.56-4.33,1.73-4.23,3.78.15,2.6,3.81,3,6.38,2.55,5.59-.97,11.16-2.15,16.62-3.56.39-.07.76-.22,1.09-.43,1.59-1.19-.25-3.66-.08-5.64"/><path class="cls-13_store-closed-55-bc922" d="M166.18,391c-1.53-.22-3.1-.05-4.55.5-1.48.61-2.28,2.23-1.86,3.78.55,1.37,2.2,1.88,3.64,2.05,1.55.31,3.15.05,4.52-.74,1.27-.9,1.83-2.93.74-4.05"/><path class="cls-4_store-closed-55-bc922" d="M105.5,409.25c-6.15,2.81-12.02,6.19-17.53,10.09-1.8,1.28-3.79,3.31-2.93,5.35,1.07,2.58,4.93,1.69,7.37.31,5.32-2.98,10.53-6.14,15.64-9.5.37-.21.69-.49.95-.83,1.19-1.77-1.56-3.56-2.09-5.67"/><path class="cls-6_store-closed-55-bc922" d="M116.79,402.72c-1.64.33-3.16,1.06-4.44,2.14-1.28,1.15-1.51,3.07-.53,4.49,1.03,1.19,2.88,1.12,4.43.77,1.68-.23,3.21-1.08,4.31-2.37.97-1.37.81-3.62-.69-4.37"/><path class="cls-7_store-closed-55-bc922" d="M367.23,405.33c-6.05-2.98-12.37-5.39-18.86-7.21-2.13-.59-4.96-.84-6.01,1.1-1.32,2.46,1.82,4.88,4.42,5.94,5.67,2.23,11.43,4.27,17.26,6.1.38.14.78.22,1.19.21,2.13-.19,1.82-3.49,3.09-5.21"/><path class="cls-5_store-closed-55-bc922" d="M379.41,410c-1.29-1.06-2.82-1.78-4.46-2.09-1.69-.28-3.32.74-3.81,2.37-.26,1.56.96,2.94,2.2,3.93,1.24,1.16,2.86,1.81,4.55,1.85,1.67-.11,3.32-1.66,2.96-3.29"/><path class="cls-3_store-closed-55-bc922" d="M393.05,398.6c-6.06-3-12.39-5.41-18.91-7.22-2.13-.59-4.95-.84-5.94,1.1-1.32,2.46,1.82,4.89,4.42,5.94,5.67,2.24,11.43,4.27,17.26,6.1.4.16.82.23,1.25.23,2.13-.2,1.82-3.5,3.09-5.21"/><path class="cls-10_store-closed-55-bc922" d="M405.24,403.22c-1.29-1.06-2.83-1.78-4.46-2.09-1.69-.27-3.31.74-3.82,2.37-.25,1.56.97,2.94,2.21,3.92,1.24,1.16,2.85,1.82,4.55,1.86,1.67-.11,3.32-1.66,2.96-3.3"/><path class="cls-12_store-closed-55-bc922" d="M306.69,430.92c-1.62-6.57-3.85-12.96-6.66-19.11-.91-2.01-2.54-4.33-4.75-3.88-2.74.58-2.58,4.54-1.69,7.19,1.95,5.79,4.1,11.5,6.45,17.13.14.4.36.78.64,1.09,1.51,1.51,3.83-.85,5.94-1"/><path class="cls-8_store-closed-55-bc922" d="M311,443.24c-.02-1.66-.46-3.3-1.27-4.75-.94-1.38-2.88-2.22-4.31-1.37s-1.64,2.62-1.59,4.2c-.08,1.69.45,3.35,1.51,4.68,1.19,1.19,3.41,1.47,4.43.14"/><path class="cls-11_store-closed-55-bc922" d="M289.85,434.85c-1.62-6.57-3.85-12.96-6.66-19.11-.91-2.01-2.54-4.32-4.75-3.87-2.74.57-2.58,4.52-1.69,7.18,1.95,5.79,4.1,11.5,6.45,17.13.14.41.35.78.64,1.1,1.51,1.5,3.83-.87,5.94-1.01"/><path class="cls-2_store-closed-55-bc922" d="M294.16,447.16c-.02-1.66-.46-3.3-1.27-4.75-.94-1.38-2.88-2.22-4.31-1.37-1.42.85-1.64,2.62-1.59,4.2-.08,1.69.45,3.35,1.51,4.68,1.19,1.19,3.41,1.47,4.43.14"/><path class="cls-9_store-closed-55-bc922" d="M220.21,426.43c-1.62-6.56-3.84-12.96-6.65-19.11-.91-2.01-2.55-4.33-4.75-3.88-2.74.57-2.58,4.54-1.69,7.12,1.93,5.79,4.08,11.51,6.43,17.14.14.4.36.77.64,1.09,1.52,1.5,3.85-.85,5.94-1"/><path class="cls-35_store-closed-55-bc922" d="M224.53,438.73c-.03-1.66-.47-3.3-1.28-4.75-.87-1.49-2.7-2.1-4.29-1.42-1.35.81-1.63,2.64-1.58,4.21-.09,1.69.45,3.35,1.51,4.68,1.19,1.19,3.41,1.47,4.42.13"/><path class="cls-36_store-closed-55-bc922" d="M73.19,412.61c-4.58,2.1-8.95,4.62-13.06,7.54-1.34.96-2.83,2.48-2.2,4,.81,1.92,3.69,1.26,5.52.24,3.96-2.23,7.85-4.61,11.68-7.12.28-.16.52-.37.71-.62.89-1.32-1.19-2.69-1.57-4.24"/><path class="cls-33_store-closed-55-bc922" d="M81.64,407.73c-1.22.25-2.36.79-3.32,1.59-.95.86-1.13,2.3-.4,3.36.93.76,2.18.98,3.31.58,1.25-.18,2.4-.81,3.23-1.77.77-.99.58-2.41-.41-3.18-.04-.03-.08-.06-.12-.08"/><polygon class="cls-50_store-closed-55-bc922 targetColor" points="418.19 396.2 411.08 398.27 391.37 382.05 395.27 363.25 402.39 361.19 429.2 375.36 418.19 396.2" style="fill: rgb(255, 153, 0);"/><polygon class="cls-34_store-closed-55-bc922" points="418.19 396.2 411.08 398.27 391.37 382.05 395.27 363.25 402.39 361.19 429.2 375.36 418.19 396.2"/><rect class="cls-50_store-closed-55-bc922 targetColor" x="391.33" y="365.62" width="23.59" height="30.32" transform="translate(-121.84 559.42) rotate(-62.16)" style="fill: rgb(255, 153, 0);"/><rect class="cls-50_store-closed-55-bc922 targetColor" x="52.55" y="362.98" width="23.59" height="30.32" transform="translate(-300.08 258.45) rotate(-62.16)" style="fill: rgb(255, 153, 0);"/><rect class="cls-32_store-closed-55-bc922" x="52.55" y="362.98" width="23.59" height="30.32" transform="translate(-300.08 258.45) rotate(-62.16)"/><rect class="cls-50_store-closed-55-bc922 targetColor" x="62.46" y="368.42" width="23.59" height="30.32" transform="translate(-299.6 270.11) rotate(-62.16)" style="fill: rgb(255, 153, 0);"/></g></svg>