<svg id="_0330_closed_store_online" data-name="0330_closed_store_online" xmlns="http://www.w3.org/2000/svg" viewBox="0 0 500 500" data-imageid="store-closed-54" imageName="Store Closed" class="illustrations_image" style="width: 166px;"><defs><style>.cls-1_store-closed-54{fill:#d1d3d4;}.cls-2_store-closed-54{fill:#fff;}.cls-3_store-closed-54{fill:#231f20;}.cls-4_store-closed-54{fill:#68e1fd;}</style></defs><path id="Floor_store-closed-54" class="cls-1_store-closed-54" d="M411.32,382.64H88.68a.7.7,0,0,1,0-1.4H411.32a.7.7,0,0,1,0,1.4Z"/><g id="Monitor_store-closed-54"><path class="cls-2_store-closed-54" d="M406.91,141.89V336.3a13.61,13.61,0,0,1-13.61,13.6H106.7a13.61,13.61,0,0,1-13.61-13.6V141.89a13.61,13.61,0,0,1,13.61-13.61H393.3A13.61,13.61,0,0,1,406.91,141.89Z"/><path class="cls-3_store-closed-54" d="M393.3,350.54H106.7A14.27,14.27,0,0,1,92.45,336.3V141.89a14.27,14.27,0,0,1,14.25-14.25H393.3a14.27,14.27,0,0,1,14.25,14.25V336.3A14.27,14.27,0,0,1,393.3,350.54ZM106.7,128.92a13,13,0,0,0-13,13V336.3a13,13,0,0,0,13,13H393.3a13,13,0,0,0,13-13V141.89a13,13,0,0,0-13-13Z"/><path class="cls-3_store-closed-54" d="M406.91,141.89V314.52H93.09V141.89a13.61,13.61,0,0,1,13.61-13.61H393.3A13.61,13.61,0,0,1,406.91,141.89Z"/><rect class="cls-2_store-closed-54" x="105.98" y="144.42" width="284.31" height="157.25"/><path class="cls-3_store-closed-54" d="M390.29,302.31H106a.63.63,0,0,1-.64-.64V144.42a.64.64,0,0,1,.64-.64H390.29a.64.64,0,0,1,.64.64V301.67A.64.64,0,0,1,390.29,302.31ZM106.62,301h283v-156h-283Z"/><path class="cls-1_store-closed-54" d="M250,339.42a7.22,7.22,0,1,1,7.22-7.22A7.23,7.23,0,0,1,250,339.42Zm0-13a5.82,5.82,0,1,0,5.82,5.81A5.82,5.82,0,0,0,250,326.39Z"/><path class="cls-2_store-closed-54" d="M295.69,374.57c-3.72-4.42-4.34-24.67-4.34-24.67h-82.7s-.62,20.25-4.34,24.67S186,386.21,186,388.77s2.17,3.49,12.71,3.49H301.27c10.54,0,12.71-.93,12.71-3.49S299.41,379,295.69,374.57Z"/><path class="cls-3_store-closed-54" d="M301.27,392.9H198.73c-10.48,0-13.35-.88-13.35-4.13,0-1.62,3.18-3.77,8.8-7.43,3.91-2.55,8-5.18,9.64-7.18,3.54-4.2,4.19-24.08,4.2-24.28a.64.64,0,0,1,.63-.62h82.7a.64.64,0,0,1,.63.62c0,.2.66,20.08,4.2,24.28h0c1.68,2,5.73,4.63,9.64,7.18,5.62,3.66,8.8,5.81,8.8,7.43C314.62,392,311.75,392.9,301.27,392.9Zm-92-42.36c-.14,3.52-1,20.3-4.47,24.44-1.8,2.15-5.93,4.84-9.92,7.43-3.27,2.13-8.22,5.35-8.22,6.36,0,1.67.86,2.85,12.07,2.85H301.27c11.21,0,12.07-1.18,12.07-2.85,0-1-4.95-4.23-8.22-6.36-4-2.59-8.12-5.28-9.92-7.43h0c-3.49-4.14-4.33-20.92-4.47-24.44Z"/></g><g id="Bags_store-closed-54"><polygon class="cls-2_store-closed-54" points="422.67 389.1 357.91 389.1 366.28 337.63 414.3 337.63 422.67 389.1"/><path class="cls-3_store-closed-54" d="M422.67,389.79H357.91a.72.72,0,0,1-.54-.24.73.73,0,0,1-.16-.57l8.38-51.46a.69.69,0,0,1,.69-.59h48a.71.71,0,0,1,.7.59L423.36,389a.73.73,0,0,1-.16.57A.71.71,0,0,1,422.67,389.79Zm-63.94-1.4h63.11l-8.14-50.06H366.87Z"/><path class="cls-3_store-closed-54" d="M375.75,345.25h-.11a.7.7,0,0,1-.58-.8c.14-.85,3.54-20.77,15.23-20.77s15.08,19.92,15.22,20.77a.69.69,0,0,1-.57.8.7.7,0,0,1-.81-.58c0-.19-3.35-19.59-13.84-19.59s-13.81,19.4-13.85,19.59A.69.69,0,0,1,375.75,345.25Z"/><polygon class="cls-2_store-closed-54" points="377.65 393.36 333.07 393.36 338.83 357.93 371.88 357.93 377.65 393.36"/><path class="cls-3_store-closed-54" d="M377.65,394.06H333.07a.69.69,0,0,1-.53-.25.72.72,0,0,1-.16-.56l5.77-35.43a.69.69,0,0,1,.69-.59h33a.71.71,0,0,1,.7.59l5.76,35.43a.72.72,0,0,1-.16.56A.69.69,0,0,1,377.65,394.06Zm-43.75-1.4h42.92l-5.53-34H339.43Z"/><path class="cls-3_store-closed-54" d="M365.36,363.4a.71.71,0,0,1-.69-.59c0-.13-2.27-13.3-9.31-13.3s-9.29,13.17-9.31,13.3a.72.72,0,0,1-.81.58.7.7,0,0,1-.57-.81c.09-.59,2.47-14.47,10.69-14.47S366,362,366.06,362.58a.71.71,0,0,1-.58.81Z"/></g><g id="Standing_Card_store-closed-54" data-name="Standing Card"><polygon class="cls-3_store-closed-54" points="92.62 401.3 140.51 401.3 135.25 331.81 87.36 331.81 92.62 401.3"/><polygon class="cls-2_store-closed-54" points="77.14 401.3 125.03 401.3 135.25 331.81 87.36 331.81 77.14 401.3"/><path class="cls-3_store-closed-54" d="M125,401.94H77.14a.64.64,0,0,1-.63-.73l10.22-69.49a.64.64,0,0,1,.63-.55h47.89a.62.62,0,0,1,.48.22.6.6,0,0,1,.15.51l-10.22,69.5A.63.63,0,0,1,125,401.94Zm-47.15-1.28h46.6l10-68.21H87.92Z"/><path class="cls-1_store-closed-54" d="M118,393H84.85a.66.66,0,0,1-.53-.24.68.68,0,0,1-.16-.56l8.41-53.7a.69.69,0,0,1,.69-.59h33.63a.71.71,0,0,1,.54.25.69.69,0,0,1,.15.57l-8.93,53.69A.7.7,0,0,1,118,393Zm-32.29-1.4h31.7l8.7-52.29H93.86Z"/><path class="cls-1_store-closed-54" d="M118.55,351.89H98.05a.7.7,0,0,1,0-1.4h20.5a.7.7,0,1,1,0,1.4Z"/><path class="cls-1_store-closed-54" d="M114.57,360H96.87a.7.7,0,0,1,0-1.4h17.7a.7.7,0,1,1,0,1.4Z"/><path class="cls-1_store-closed-54" d="M116.17,368.64H95.68a.7.7,0,0,1,0-1.4h20.49a.7.7,0,1,1,0,1.4Z"/><path class="cls-1_store-closed-54" d="M112.19,376.72H94.49a.7.7,0,1,1,0-1.4h17.7a.7.7,0,1,1,0,1.4Z"/></g><g id="Screen_store-closed-54"><path class="cls-1_store-closed-54" d="M334.54,259.8H165.46a.7.7,0,0,1-.7-.7V206a.7.7,0,0,1,.7-.7H334.54a.7.7,0,0,1,.7.7V259.1A.7.7,0,0,1,334.54,259.8Zm-168.38-1.4H333.84V206.68H166.16Z"/><path class="cls-1_store-closed-54" d="M334.54,300.6a.7.7,0,0,1-.7-.7V266.58H166.16V299.9a.7.7,0,1,1-1.4,0v-34a.7.7,0,0,1,.7-.7H334.54a.7.7,0,0,1,.7.7v34A.7.7,0,0,1,334.54,300.6Z"/><path class="cls-1_store-closed-54" d="M326.52,220.33H238.59a.7.7,0,0,1,0-1.4h87.93a.7.7,0,0,1,0,1.4Z"/><path class="cls-1_store-closed-54" d="M326.52,230H238.59a.7.7,0,1,1,0-1.4h87.93a.7.7,0,1,1,0,1.4Z"/><path class="cls-1_store-closed-54" d="M218.28,300.6h-.14a.71.71,0,0,1-.55-.82l1.72-8.66a.72.72,0,0,1,.44-.52.7.7,0,0,1,.67.09l4.18,3.14,5.53-6.18a61,61,0,0,0-7.82-8.3,28.14,28.14,0,0,0-8.31-5c-1,.6-4.53,2.35-10.45,2.35s-9.41-1.75-10.44-2.35a55.8,55.8,0,0,0-7.12,3.49c-4.16,2.33-7.55,7.06-8.49,8.46L182,292.4l5.06-2.4a.73.73,0,0,1,.63,0,.72.72,0,0,1,.36.51l1.44,9.27a.7.7,0,0,1-1.38.22l-1.3-8.34-4.73,2.24a.7.7,0,0,1-.86-.22l-5.16-6.94a.68.68,0,0,1,0-.78c.16-.27,4-6.43,9.25-9.35a49.68,49.68,0,0,1,7.67-3.7.73.73,0,0,1,.61.09s3.47,2.3,10,2.3,9.94-2.27,10-2.3a.75.75,0,0,1,.6-.09,28.14,28.14,0,0,1,9.09,5.35,61.32,61.32,0,0,1,8.39,9,.68.68,0,0,1,0,.88l-6.34,7.09a.72.72,0,0,1-.95.1l-3.8-2.86L219,300A.69.69,0,0,1,218.28,300.6Z"/><path class="cls-1_store-closed-54" d="M202.36,283.29h0c-7,0-9.7-9.12-9.81-9.51a.7.7,0,0,1,1.35-.38c0,.08,2.51,8.47,8.47,8.49h0c6.55,0,10.88-8.52,10.93-8.61a.69.69,0,0,1,.94-.31.7.7,0,0,1,.31.93C214.35,274.29,209.78,283.29,202.36,283.29Z"/><rect class="cls-1_store-closed-54" x="292.55" y="236.91" width="33.96" height="9" rx="3.21"/><path class="cls-1_store-closed-54" d="M326.52,281.83H238.59a.7.7,0,0,1,0-1.4h87.93a.7.7,0,0,1,0,1.4Z"/><path class="cls-1_store-closed-54" d="M309.54,291.54h-71a.7.7,0,1,1,0-1.4h71a.7.7,0,1,1,0,1.4Z"/><path class="cls-1_store-closed-54" d="M221.78,249.41H204.42a.7.7,0,0,1-.7-.62l-.92-8.66-1.51,8.71a.7.7,0,0,1-.69.57H184.34a.72.72,0,0,1-.53-.23.73.73,0,0,1-.17-.55l3.82-31.9a.69.69,0,0,1,.7-.61H218a.69.69,0,0,1,.69.61l3.77,31.9a.69.69,0,0,1-.17.55A.68.68,0,0,1,221.78,249.41ZM205.05,248H221l-3.6-30.49H188.78L185.13,248H200l2.27-13a.71.71,0,0,1,.69-.58h0a.69.69,0,0,1,.67.63Z"/><path class="cls-1_store-closed-54" d="M218.29,222.63H187.54a.7.7,0,0,1,0-1.4h30.75a.7.7,0,0,1,0,1.4Z"/><path class="cls-1_store-closed-54" d="M206.65,226.6a.69.69,0,0,1-.65-.43l-2.27-5.59-3.11,5.18a.7.7,0,0,1-1,.24.69.69,0,0,1-.24-1l3.83-6.39a.63.63,0,0,1,.65-.33.66.66,0,0,1,.59.43l2.81,6.89a.7.7,0,0,1-.39.91A.58.58,0,0,1,206.65,226.6Z"/><path class="cls-1_store-closed-54" d="M211.6,296a3.84,3.84,0,1,1,3.84-3.84A3.84,3.84,0,0,1,211.6,296Zm0-6.27a2.44,2.44,0,1,0,2.44,2.43A2.43,2.43,0,0,0,211.6,289.7Z"/><path class="cls-2_store-closed-54" d="M256.52,157.48c22.66,79.43-2.83,116.11-12.3,144.19H106V163.86Z"/><path class="cls-3_store-closed-54" d="M244.22,302.31H106a.63.63,0,0,1-.64-.64V163.86a.63.63,0,0,1,.61-.64l150.54-6.37a.55.55,0,0,1,.64.46c19.1,66.92,4.13,103.56-6.8,130.32-2.06,5-4,9.77-5.51,14.25A.62.62,0,0,1,244.22,302.31ZM106.62,301H243.76c1.5-4.38,3.39-9,5.38-13.88,10.84-26.52,25.66-62.82,6.9-129l-149.42,6.33Z"/><path class="cls-1_store-closed-54" d="M224.69,296a.71.71,0,0,1-.5-1.19c.2-.2,19.65-20.4,25.22-52.6a.7.7,0,0,1,1.38.24c-5.65,32.65-25.4,53.13-25.59,53.34A.71.71,0,0,1,224.69,296Z"/><path class="cls-2_store-closed-54" d="M257.67,160.93c.11,2.45-36.23,58.08-1.89,140.74H390.29V163.86Z"/><path class="cls-3_store-closed-54" d="M390.29,302.31H255.78a.63.63,0,0,1-.59-.39c-13.89-33.44-25.06-84.57.63-138.29a24.86,24.86,0,0,0,1.21-2.72.61.61,0,0,1,.18-.46.62.62,0,0,1,.47-.16l132.62,2.93a.64.64,0,0,1,.63.64V301.67A.64.64,0,0,1,390.29,302.31ZM256.21,301H389.65V164.48l-131.49-2.9c-.18.49-.54,1.26-1.19,2.6C231.59,217.26,242.49,267.83,256.21,301Z"/><path class="cls-1_store-closed-54" d="M276.34,291.54a.69.69,0,0,1-.67-.5c-3.28-11-.09-17.49.05-17.76a.69.69,0,0,1,1.29.11,34.59,34.59,0,0,0,12.89,16.87.7.7,0,0,1-.78,1.16,35.78,35.78,0,0,1-12.77-15.76c-.7,2.55-1.49,7.78.66,15a.7.7,0,0,1-.67.9Z"/><rect class="cls-2_store-closed-54" x="165.46" y="234.84" width="169.08" height="43.96"/><path class="cls-3_store-closed-54" d="M334.54,279.44H165.46a.64.64,0,0,1-.64-.64v-44a.64.64,0,0,1,.64-.64H334.54a.64.64,0,0,1,.64.64v44A.64.64,0,0,1,334.54,279.44ZM166.1,278.16H333.9V235.48H166.1Z"/><path class="cls-3_store-closed-54" d="M324.93,235.48a.64.64,0,0,1-.2,0L250,209.68l-74.73,25.77a.63.63,0,0,1-.81-.4.64.64,0,0,1,.4-.81l74.93-25.84a.61.61,0,0,1,.42,0l74.93,25.84a.64.64,0,0,1,.4.81A.63.63,0,0,1,324.93,235.48Z"/><circle class="cls-3_store-closed-54" cx="250" cy="209.79" r="5.78"/><path class="cls-4_store-closed-54 targetColor" d="M203.23,264.35a10.25,10.25,0,0,1-1.84,1,13.72,13.72,0,0,1-2.31.67,13.94,13.94,0,0,1-2.85.27,12.58,12.58,0,0,1-4.19-.65,8.78,8.78,0,0,1-3.13-1.85,8.06,8.06,0,0,1-1.95-2.92,10.08,10.08,0,0,1-.68-3.8,13.36,13.36,0,0,1,.93-5,12.29,12.29,0,0,1,11.62-7.8,12.61,12.61,0,0,1,4.77.84,8.38,8.38,0,0,1,3.15,2.07L202,252a3.16,3.16,0,0,0-1.4-1.13,4.89,4.89,0,0,0-2-.37,4.36,4.36,0,0,0-2,.46,4.68,4.68,0,0,0-1.56,1.23,5.66,5.66,0,0,0-1,1.82,6.85,6.85,0,0,0-.35,2.2,3.73,3.73,0,0,0,1,2.6,3.69,3.69,0,0,0,2.87,1.06,4.78,4.78,0,0,0,2.09-.47,6.65,6.65,0,0,0,1.68-1.15l3.36,5A13.65,13.65,0,0,1,203.23,264.35Z" style="fill: rgb(255, 153, 0);"/><path class="cls-4_store-closed-54 targetColor" d="M208,265.66l3.68-20.85h6.86l-2.65,15h7l-1,5.83Z" style="fill: rgb(255, 153, 0);"/><path class="cls-4_store-closed-54 targetColor" d="M236.11,266.19a13.12,13.12,0,0,1-4.43-.69,8.9,8.9,0,0,1-3.24-2,8.38,8.38,0,0,1-2-3,10.52,10.52,0,0,1-.67-3.83,12.85,12.85,0,0,1,.91-4.86,11.68,11.68,0,0,1,6.55-6.6,13.42,13.42,0,0,1,5.2-1,13.18,13.18,0,0,1,4.46.69,8.77,8.77,0,0,1,3.24,2,8.17,8.17,0,0,1,2,3,10.52,10.52,0,0,1,.68,3.83,13,13,0,0,1-.9,4.86,11.66,11.66,0,0,1-2.56,3.95,12.14,12.14,0,0,1-4,2.65A13.46,13.46,0,0,1,236.11,266.19Zm5.6-11.93a4.32,4.32,0,0,0-.25-1.49,3.36,3.36,0,0,0-.74-1.2,3.19,3.19,0,0,0-1.2-.81,4.28,4.28,0,0,0-1.64-.3,4.34,4.34,0,0,0-2.08.49,5,5,0,0,0-1.57,1.28,5.79,5.79,0,0,0-1,1.83,6.25,6.25,0,0,0-.36,2.09,4.46,4.46,0,0,0,.25,1.48,3.46,3.46,0,0,0,.74,1.21,3.35,3.35,0,0,0,1.21.81,4.28,4.28,0,0,0,1.66.3,4.35,4.35,0,0,0,2.06-.48,4.91,4.91,0,0,0,1.57-1.26,6,6,0,0,0,1-1.83A6.64,6.64,0,0,0,241.71,254.26Z" style="fill: rgb(255, 153, 0);"/><path class="cls-4_store-closed-54 targetColor" d="M265.54,251a3.9,3.9,0,0,0-1.3-1,4.46,4.46,0,0,0-1.85-.36,3.06,3.06,0,0,0-1.49.35,1.16,1.16,0,0,0-.66,1.09,1,1,0,0,0,.55.91,9.09,9.09,0,0,0,1.65.68,14.94,14.94,0,0,1,2.4,1,7.24,7.24,0,0,1,1.79,1.3,5.13,5.13,0,0,1,1.13,1.68,5.27,5.27,0,0,1,.4,2.12,6.38,6.38,0,0,1-.88,3.41,7.27,7.27,0,0,1-2.25,2.3,10,10,0,0,1-3,1.3,13.46,13.46,0,0,1-3.21.41,15.48,15.48,0,0,1-4.84-.8,12.49,12.49,0,0,1-2.14-.94,8,8,0,0,1-1.74-1.27l4.66-4.3a3.59,3.59,0,0,0,.85.74,6.18,6.18,0,0,0,1.05.55,8.77,8.77,0,0,0,1.1.35,4.4,4.4,0,0,0,1,.13,3.38,3.38,0,0,0,1.65-.34,1.06,1.06,0,0,0,.62-1,1.19,1.19,0,0,0-.52-.95,6.33,6.33,0,0,0-1.92-.85,16,16,0,0,1-2.11-.83,6.78,6.78,0,0,1-1.71-1.13,4.66,4.66,0,0,1-1.13-1.59,5.44,5.44,0,0,1-.42-2.25,7,7,0,0,1,.67-3,7.13,7.13,0,0,1,1.88-2.4,9.41,9.41,0,0,1,2.92-1.59,11.61,11.61,0,0,1,3.72-.57,12.44,12.44,0,0,1,2.21.19,12.66,12.66,0,0,1,2.06.53,10.57,10.57,0,0,1,1.8.81,6.13,6.13,0,0,1,1.39,1.06Z" style="fill: rgb(255, 153, 0);"/><path class="cls-4_store-closed-54 targetColor" d="M271.72,265.66l3.68-20.85H289l-1,5.68h-7.22l-.35,2h6.89l-.94,5.31h-6.89l-.39,2.18h8.07l-1,5.68Z" style="fill: rgb(255, 153, 0);"/><path class="cls-4_store-closed-54 targetColor" d="M295.08,244.81h8.63a13.6,13.6,0,0,1,3.55.48,9.75,9.75,0,0,1,3.21,1.55,8.28,8.28,0,0,1,2.34,2.75,8.55,8.55,0,0,1,.91,4.11,12.44,12.44,0,0,1-1,5,10.58,10.58,0,0,1-2.66,3.76,11.92,11.92,0,0,1-4,2.39,14.8,14.8,0,0,1-5.06.84h-9.6Zm4,15h2.21a5.47,5.47,0,0,0,2.33-.46,4.94,4.94,0,0,0,2.69-2.92,5.92,5.92,0,0,0,.34-2,5,5,0,0,0-.23-1.51,3.23,3.23,0,0,0-.74-1.22,3.55,3.55,0,0,0-1.28-.83,4.89,4.89,0,0,0-1.84-.31H300.7Z" style="fill: rgb(255, 153, 0);"/><path class="cls-1_store-closed-54" d="M373,272.66a.72.72,0,0,1-.67-.47,100.31,100.31,0,0,1-4.49-42.95.7.7,0,1,1,1.38.21,99,99,0,0,0,4.44,42.28.71.71,0,0,1-.43.89A1,1,0,0,1,373,272.66Z"/><path class="cls-1_store-closed-54" d="M358.12,292.83a.7.7,0,0,1-.56-.28c-.21-.28-20.43-28.47-16.57-92.77a.66.66,0,0,1,.74-.66.69.69,0,0,1,.65.74c-2,33.31,2.55,56.52,6.71,70.11,4.5,14.73,9.54,21.68,9.59,21.75a.7.7,0,0,1-.56,1.11Z"/><path class="cls-1_store-closed-54" d="M128.6,274.29h-.1a.71.71,0,0,1-.59-.8c6.59-46.48-5.24-75.48-5.36-75.76a.7.7,0,0,1,.37-.92.71.71,0,0,1,.92.37c.12.3,12.11,29.62,5.46,76.51A.7.7,0,0,1,128.6,274.29Z"/><path class="cls-1_store-closed-54" d="M182.21,222.1a.8.8,0,0,1-.33-.08.71.71,0,0,1-.29-1c7-13.12,7.07-23.12,7.07-23.22a.7.7,0,0,1,.7-.7h0a.7.7,0,0,1,.7.7c0,.42-.08,10.43-7.23,23.88A.72.72,0,0,1,182.21,222.1Z"/><path class="cls-1_store-closed-54" d="M131.47,296a.73.73,0,0,1-.44-.15.71.71,0,0,1-.11-1c.23-.29,23.34-29.95,20.24-75.16a.7.7,0,0,1,1.4-.09c3.13,45.77-20.31,75.83-20.54,76.12A.7.7,0,0,1,131.47,296Z"/></g><g id="Shop_store-closed-54"><path class="cls-4_store-closed-54 targetColor" d="M112.81,98.7H387.19a9.21,9.21,0,0,1,9.21,9.21v9a0,0,0,0,1,0,0H103.59a0,0,0,0,1,0,0v-9A9.21,9.21,0,0,1,112.81,98.7Z" style="fill: rgb(255, 153, 0);"/><path class="cls-3_store-closed-54" d="M396.41,117.59H103.59A.64.64,0,0,1,103,117v-5.36a13.55,13.55,0,0,1,13.54-13.53h267a13.55,13.55,0,0,1,13.54,13.53V117A.64.64,0,0,1,396.41,117.59Zm-292.18-1.28H395.77v-4.72a12.27,12.27,0,0,0-12.26-12.25h-267a12.27,12.27,0,0,0-12.26,12.25Z"/><polygon class="cls-2_store-closed-54" points="102.06 116.95 65.62 157.48 91.96 157.48 123.19 116.95 102.06 116.95"/><path class="cls-3_store-closed-54" d="M92,158.12H65.62a.64.64,0,0,1-.58-.38.63.63,0,0,1,.1-.68l36.44-40.54a.61.61,0,0,1,.48-.21h21.13a.64.64,0,0,1,.51,1L92.47,157.87A.63.63,0,0,1,92,158.12Zm-24.91-1.28h24.6l30.24-39.25H102.34Z"/><polygon class="cls-4_store-closed-54 targetColor" points="123.19 116.95 91.96 157.48 118.3 157.48 144.33 116.95 123.19 116.95" style="fill: rgb(255, 153, 0);"/><path class="cls-3_store-closed-54" d="M118.3,158.12H92a.64.64,0,0,1-.57-.35.67.67,0,0,1,.06-.68l31.23-40.53a.65.65,0,0,1,.51-.25h21.14a.63.63,0,0,1,.53,1l-26,40.54A.65.65,0,0,1,118.3,158.12Zm-25-1.28H118l25.21-39.25H123.51Z"/><polygon class="cls-2_store-closed-54" points="144.33 116.95 118.3 157.48 144.64 157.48 165.46 116.95 144.33 116.95"/><path class="cls-3_store-closed-54" d="M144.64,158.12H118.3a.63.63,0,0,1-.56-.33.61.61,0,0,1,0-.65l26-40.54a.63.63,0,0,1,.54-.29h21.13a.65.65,0,0,1,.55.3.67.67,0,0,1,0,.63l-20.82,40.54A.64.64,0,0,1,144.64,158.12Zm-25.17-1.28h24.78l20.16-39.25H144.68Z"/><polygon class="cls-4_store-closed-54 targetColor" points="165.46 116.95 144.64 157.48 170.98 157.48 186.59 116.95 165.46 116.95" style="fill: rgb(255, 153, 0);"/><path class="cls-3_store-closed-54" d="M171,158.12H144.64a.65.65,0,0,1-.55-.3.67.67,0,0,1,0-.63l20.82-40.54a.64.64,0,0,1,.57-.34H186.6a.63.63,0,0,1,.59.86l-15.61,40.54A.65.65,0,0,1,171,158.12Zm-25.29-1.28h24.85l15.12-39.25H165.85Z"/><polygon class="cls-2_store-closed-54" points="186.59 116.95 170.98 157.48 197.32 157.48 207.73 116.95 186.59 116.95"/><path class="cls-3_store-closed-54" d="M197.32,158.12H171a.65.65,0,0,1-.53-.27.67.67,0,0,1-.07-.6L186,116.72a.63.63,0,0,1,.6-.41h21.13a.67.67,0,0,1,.51.24.64.64,0,0,1,.11.55l-10.41,40.54A.63.63,0,0,1,197.32,158.12Zm-25.41-1.28h24.91l10.09-39.25H187Z"/><polygon class="cls-4_store-closed-54 targetColor" points="207.73 116.95 197.32 157.48 223.66 157.48 228.87 116.95 207.73 116.95" style="fill: rgb(255, 153, 0);"/><path class="cls-3_store-closed-54" d="M223.66,158.12H197.32a.67.67,0,0,1-.51-.24.64.64,0,0,1-.11-.55l10.41-40.54a.63.63,0,0,1,.62-.48h21.13a.61.61,0,0,1,.48.21.63.63,0,0,1,.16.51l-5.21,40.54A.64.64,0,0,1,223.66,158.12Zm-25.52-1.28h25l5-39.25H208.23Z"/><polygon class="cls-2_store-closed-54" points="228.87 116.95 223.66 157.48 250 157.48 250 116.95 228.87 116.95"/><path class="cls-3_store-closed-54" d="M250,158.12H223.66a.67.67,0,0,1-.48-.21.64.64,0,0,1-.15-.51l5.2-40.54a.63.63,0,0,1,.63-.55H250a.64.64,0,0,1,.64.64v40.53A.64.64,0,0,1,250,158.12Zm-25.61-1.28h25V117.59H229.43Z"/><polygon class="cls-4_store-closed-54 targetColor" points="250 116.95 250 157.48 276.34 157.48 271.13 116.95 250 116.95" style="fill: rgb(255, 153, 0);"/><path class="cls-3_store-closed-54" d="M276.34,158.12H250a.64.64,0,0,1-.64-.64V117a.64.64,0,0,1,.64-.64h21.14a.63.63,0,0,1,.63.55L277,157.4a.64.64,0,0,1-.15.51A.67.67,0,0,1,276.34,158.12Zm-25.7-1.28h25l-5-39.25H250.64Z"/><polygon class="cls-2_store-closed-54" points="271.13 116.95 276.34 157.48 302.68 157.48 292.27 116.95 271.13 116.95"/><path class="cls-3_store-closed-54" d="M302.68,158.12H276.34a.64.64,0,0,1-.63-.55L270.5,117a.63.63,0,0,1,.16-.51.61.61,0,0,1,.48-.21h21.13a.63.63,0,0,1,.62.48l10.41,40.54a.64.64,0,0,1-.11.55A.67.67,0,0,1,302.68,158.12Zm-25.78-1.28h25l-10.09-39.25H271.86Z"/><polygon class="cls-4_store-closed-54 targetColor" points="292.27 116.95 302.68 157.48 329.02 157.48 313.4 116.95 292.27 116.95" style="fill: rgb(255, 153, 0);"/><path class="cls-3_store-closed-54" d="M329,158.12H302.68a.63.63,0,0,1-.62-.48L291.65,117.1a.64.64,0,0,1,.11-.55.67.67,0,0,1,.51-.24H313.4a.63.63,0,0,1,.6.41l15.62,40.53a.67.67,0,0,1-.07.6A.65.65,0,0,1,329,158.12Zm-25.84-1.28h24.91L313,117.59H293.09Z"/><polygon class="cls-2_store-closed-54" points="313.4 116.95 329.02 157.48 355.36 157.48 334.54 116.95 313.4 116.95"/><path class="cls-3_store-closed-54" d="M355.36,158.12H329a.65.65,0,0,1-.6-.41l-15.61-40.54a.63.63,0,0,1,.59-.86h21.14a.64.64,0,0,1,.57.34l20.82,40.54a.67.67,0,0,1,0,.63A.65.65,0,0,1,355.36,158.12Zm-25.9-1.28h24.85l-20.16-39.25H314.34Z"/><polygon class="cls-4_store-closed-54 targetColor" points="334.54 116.95 355.36 157.48 381.7 157.48 355.67 116.95 334.54 116.95" style="fill: rgb(255, 153, 0);"/><path class="cls-3_store-closed-54" d="M381.7,158.12H355.36a.64.64,0,0,1-.57-.34L334,117.24a.67.67,0,0,1,0-.63.65.65,0,0,1,.55-.3h21.13a.63.63,0,0,1,.54.29l26,40.54a.65.65,0,0,1,0,.65A.63.63,0,0,1,381.7,158.12Zm-25.95-1.28h24.78l-25.21-39.25H335.59Z"/><polygon class="cls-2_store-closed-54" points="355.67 116.95 381.7 157.48 408.04 157.48 376.81 116.95 355.67 116.95"/><path class="cls-3_store-closed-54" d="M408,158.12H381.7a.65.65,0,0,1-.54-.29l-26-40.54a.63.63,0,0,1,.53-1h21.14a.67.67,0,0,1,.51.24l31.23,40.54a.67.67,0,0,1,.06.68A.64.64,0,0,1,408,158.12Zm-26-1.28h24.69l-30.25-39.25H356.84Z"/><polygon class="cls-4_store-closed-54 targetColor" points="376.81 116.95 408.04 157.48 434.38 157.48 397.94 116.95 376.81 116.95" style="fill: rgb(255, 153, 0);"/><path class="cls-3_store-closed-54" d="M434.38,158.12H408a.63.63,0,0,1-.51-.25L376.3,117.33a.65.65,0,0,1-.07-.67.64.64,0,0,1,.58-.35h21.13a.61.61,0,0,1,.48.21l36.44,40.54a.63.63,0,0,1,.1.68A.64.64,0,0,1,434.38,158.12Zm-26-1.28H433l-35.29-39.25H378.11Z"/><path class="cls-2_store-closed-54" d="M65.62,157.48H92a0,0,0,0,1,0,0v25.92a9.19,9.19,0,0,1-9.19,9.19h-8a9.19,9.19,0,0,1-9.19-9.19V157.48A0,0,0,0,1,65.62,157.48Z"/><path class="cls-3_store-closed-54" d="M79.09,193.24h-.6A13.52,13.52,0,0,1,65,179.73V157.48a.64.64,0,0,1,.64-.64H92a.64.64,0,0,1,.64.64v22.25A13.52,13.52,0,0,1,79.09,193.24ZM66.26,158.12v21.61A12.24,12.24,0,0,0,78.49,192h.6a12.24,12.24,0,0,0,12.23-12.23V158.12Z"/><path class="cls-4_store-closed-54 targetColor" d="M92,157.48H118.3a0,0,0,0,1,0,0v25.92a9.19,9.19,0,0,1-9.19,9.19h-8A9.19,9.19,0,0,1,92,183.41V157.48A0,0,0,0,1,92,157.48Z" style="fill: rgb(255, 153, 0);"/><path class="cls-3_store-closed-54" d="M105.43,193.24h-.6a13.52,13.52,0,0,1-13.51-13.51V157.48a.64.64,0,0,1,.64-.64H118.3a.64.64,0,0,1,.64.64v22.25A13.52,13.52,0,0,1,105.43,193.24ZM92.6,158.12v21.61A12.24,12.24,0,0,0,104.83,192h.6a12.24,12.24,0,0,0,12.23-12.23V158.12Z"/><path class="cls-2_store-closed-54" d="M118.3,157.48h26.34a0,0,0,0,1,0,0v25.92a9.19,9.19,0,0,1-9.19,9.19h-8a9.19,9.19,0,0,1-9.19-9.19V157.48A0,0,0,0,1,118.3,157.48Z"/><path class="cls-3_store-closed-54" d="M131.77,193.24h-.6a13.52,13.52,0,0,1-13.51-13.51V157.48a.64.64,0,0,1,.64-.64h26.34a.64.64,0,0,1,.64.64v22.25A13.52,13.52,0,0,1,131.77,193.24Zm-12.83-35.12v21.61A12.24,12.24,0,0,0,131.17,192h.6A12.24,12.24,0,0,0,144,179.73V158.12Z"/><path class="cls-4_store-closed-54 targetColor" d="M144.64,157.48H171a0,0,0,0,1,0,0v25.92a9.19,9.19,0,0,1-9.19,9.19h-8a9.19,9.19,0,0,1-9.19-9.19V157.48A0,0,0,0,1,144.64,157.48Z" style="fill: rgb(255, 153, 0);"/><path class="cls-3_store-closed-54" d="M158.11,193.24h-.6A13.52,13.52,0,0,1,144,179.73V157.48a.64.64,0,0,1,.64-.64H171a.64.64,0,0,1,.64.64v22.25A13.52,13.52,0,0,1,158.11,193.24Zm-12.83-35.12v21.61A12.24,12.24,0,0,0,157.51,192h.6a12.24,12.24,0,0,0,12.23-12.23V158.12Z"/><path class="cls-2_store-closed-54" d="M171,157.48h26.34a0,0,0,0,1,0,0v25.92a9.19,9.19,0,0,1-9.19,9.19h-8a9.19,9.19,0,0,1-9.19-9.19V157.48A0,0,0,0,1,171,157.48Z"/><path class="cls-3_store-closed-54" d="M184.45,193.24h-.6a13.52,13.52,0,0,1-13.51-13.51V157.48a.64.64,0,0,1,.64-.64h26.34a.64.64,0,0,1,.64.64v22.25A13.52,13.52,0,0,1,184.45,193.24Zm-12.83-35.12v21.61A12.24,12.24,0,0,0,183.85,192h.6a12.24,12.24,0,0,0,12.23-12.23V158.12Z"/><path class="cls-4_store-closed-54 targetColor" d="M197.32,157.48h26.34a0,0,0,0,1,0,0v25.92a9.19,9.19,0,0,1-9.19,9.19h-8a9.19,9.19,0,0,1-9.19-9.19V157.48A0,0,0,0,1,197.32,157.48Z" style="fill: rgb(255, 153, 0);"/><path class="cls-3_store-closed-54" d="M210.79,193.24h-.6a13.52,13.52,0,0,1-13.51-13.51V157.48a.64.64,0,0,1,.64-.64h26.34a.64.64,0,0,1,.64.64v22.25A13.52,13.52,0,0,1,210.79,193.24ZM198,158.12v21.61A12.24,12.24,0,0,0,210.19,192h.6A12.24,12.24,0,0,0,223,179.73V158.12Z"/><path class="cls-2_store-closed-54" d="M223.66,157.48H250a0,0,0,0,1,0,0v25.92a9.19,9.19,0,0,1-9.19,9.19h-8a9.19,9.19,0,0,1-9.19-9.19V157.48A0,0,0,0,1,223.66,157.48Z"/><path class="cls-3_store-closed-54" d="M237.13,193.24h-.6A13.52,13.52,0,0,1,223,179.73V157.48a.64.64,0,0,1,.64-.64H250a.64.64,0,0,1,.64.64v22.25A13.52,13.52,0,0,1,237.13,193.24ZM224.3,158.12v21.61A12.24,12.24,0,0,0,236.53,192h.6a12.24,12.24,0,0,0,12.23-12.23V158.12Z"/><path class="cls-4_store-closed-54 targetColor" d="M250,157.48h26.34a0,0,0,0,1,0,0v25.92a9.19,9.19,0,0,1-9.19,9.19h-8a9.19,9.19,0,0,1-9.19-9.19V157.48A0,0,0,0,1,250,157.48Z" style="fill: rgb(255, 153, 0);"/><path class="cls-3_store-closed-54" d="M263.47,193.24h-.6a13.52,13.52,0,0,1-13.51-13.51V157.48a.64.64,0,0,1,.64-.64h26.34a.64.64,0,0,1,.64.64v22.25A13.52,13.52,0,0,1,263.47,193.24Zm-12.83-35.12v21.61A12.24,12.24,0,0,0,262.87,192h.6a12.24,12.24,0,0,0,12.23-12.23V158.12Z"/><path class="cls-2_store-closed-54" d="M276.34,157.48h26.34a0,0,0,0,1,0,0v25.92a9.19,9.19,0,0,1-9.19,9.19h-8a9.19,9.19,0,0,1-9.19-9.19V157.48a0,0,0,0,1,0,0Z"/><path class="cls-3_store-closed-54" d="M289.81,193.24h-.6a13.52,13.52,0,0,1-13.51-13.51V157.48a.64.64,0,0,1,.64-.64h26.34a.64.64,0,0,1,.64.64v22.25A13.52,13.52,0,0,1,289.81,193.24ZM277,158.12v21.61A12.24,12.24,0,0,0,289.21,192h.6A12.24,12.24,0,0,0,302,179.73V158.12Z"/><path class="cls-4_store-closed-54 targetColor" d="M302.68,157.48H329a0,0,0,0,1,0,0v25.92a9.19,9.19,0,0,1-9.19,9.19h-8a9.19,9.19,0,0,1-9.19-9.19V157.48A0,0,0,0,1,302.68,157.48Z" style="fill: rgb(255, 153, 0);"/><path class="cls-3_store-closed-54" d="M316.15,193.24h-.6A13.52,13.52,0,0,1,302,179.73V157.48a.64.64,0,0,1,.64-.64H329a.64.64,0,0,1,.64.64v22.25A13.52,13.52,0,0,1,316.15,193.24Zm-12.83-35.12v21.61A12.24,12.24,0,0,0,315.55,192h.6a12.24,12.24,0,0,0,12.23-12.23V158.12Z"/><path class="cls-2_store-closed-54" d="M329,157.48h26.34a0,0,0,0,1,0,0v25.92a9.19,9.19,0,0,1-9.19,9.19h-8a9.19,9.19,0,0,1-9.19-9.19V157.48A0,0,0,0,1,329,157.48Z"/><path class="cls-3_store-closed-54" d="M342.49,193.24h-.6a13.52,13.52,0,0,1-13.51-13.51V157.48a.64.64,0,0,1,.64-.64h26.34a.64.64,0,0,1,.64.64v22.25A13.52,13.52,0,0,1,342.49,193.24Zm-12.83-35.12v21.61A12.24,12.24,0,0,0,341.89,192h.6a12.24,12.24,0,0,0,12.23-12.23V158.12Z"/><path class="cls-4_store-closed-54 targetColor" d="M355.36,157.48H381.7a0,0,0,0,1,0,0v25.92a9.19,9.19,0,0,1-9.19,9.19h-8a9.19,9.19,0,0,1-9.19-9.19V157.48A0,0,0,0,1,355.36,157.48Z" style="fill: rgb(255, 153, 0);"/><path class="cls-3_store-closed-54" d="M368.83,193.24h-.6a13.52,13.52,0,0,1-13.51-13.51V157.48a.64.64,0,0,1,.64-.64H381.7a.64.64,0,0,1,.64.64v22.25A13.52,13.52,0,0,1,368.83,193.24ZM356,158.12v21.61A12.24,12.24,0,0,0,368.23,192h.6a12.24,12.24,0,0,0,12.23-12.23V158.12Z"/><path class="cls-2_store-closed-54" d="M381.7,157.48H408a0,0,0,0,1,0,0v25.92a9.19,9.19,0,0,1-9.19,9.19h-8a9.19,9.19,0,0,1-9.19-9.19V157.48A0,0,0,0,1,381.7,157.48Z"/><path class="cls-3_store-closed-54" d="M395.17,193.24h-.6a13.52,13.52,0,0,1-13.51-13.51V157.48a.64.64,0,0,1,.64-.64H408a.64.64,0,0,1,.64.64v22.25A13.52,13.52,0,0,1,395.17,193.24Zm-12.83-35.12v21.61A12.24,12.24,0,0,0,394.57,192h.6a12.24,12.24,0,0,0,12.23-12.23V158.12Z"/><path class="cls-4_store-closed-54 targetColor" d="M408,157.48h26.34a0,0,0,0,1,0,0v25.92a9.19,9.19,0,0,1-9.19,9.19h-8a9.19,9.19,0,0,1-9.19-9.19V157.48A0,0,0,0,1,408,157.48Z" style="fill: rgb(255, 153, 0);"/><path class="cls-3_store-closed-54" d="M421.51,193.24h-.6a13.52,13.52,0,0,1-13.51-13.51V157.48a.64.64,0,0,1,.64-.64h26.34a.64.64,0,0,1,.64.64v22.25A13.52,13.52,0,0,1,421.51,193.24Zm-12.83-35.12v21.61A12.24,12.24,0,0,0,420.91,192h.6a12.24,12.24,0,0,0,12.23-12.23V158.12Z"/></g></svg>