<svg version="1.1" id="Layer_1" xmlns="http://www.w3.org/2000/svg" xmlns:xlink="http://www.w3.org/1999/xlink" x="0px" y="0px" viewBox="0 0 500 500" style="width: 166px;" xml:space="preserve" data-imageid="store-closed-44" imageName="Store Closed" class="illustrations_image">
<style type="text/css">
	.st0_store-closed-44{fill:#69CCA6;}
	.st1_store-closed-44{opacity:0.63;fill:url(#SVGID_1_);enable-background:new    ;}
	.st2_store-closed-44{fill:#124577;}
	.st3_store-closed-44{fill:#AA2B2B;}
	.st4_store-closed-44{fill:#8CCC00;}
	.st5_store-closed-44{fill:#68E1FD;}
	.st6_store-closed-44{opacity:0.63;fill:url(#SVGID_00000108299548411496513430000012660752132537112503_);enable-background:new    ;}
	.st7_store-closed-44{fill:#E04F4F;}
	.st8_store-closed-44{fill:#FFA364;}
	.st9_store-closed-44{opacity:0.5;fill:#AA2B2B;enable-background:new    ;}
	.st10_store-closed-44{opacity:0.63;fill:url(#SVGID_00000018916067019988119110000018210778606842379406_);enable-background:new    ;}
	.st11_store-closed-44{opacity:0.3;fill:#AA2B2B;enable-background:new    ;}
	.st12_store-closed-44{opacity:0.3;fill:#FFFFFF;enable-background:new    ;}
	.st13_store-closed-44{fill:#C13D3D;}
	.st14_store-closed-44{fill:#FFFFFF;}
</style>
<path id="field_store-closed-44" class="st0_store-closed-44" d="M243.1,425.7L25,296.8c-6.9-3.9-12.9-10.3-6.1-14.5l218.8-126.2c3.3-2,8.3-3.4,11.6-1.4l228.9,132.9&#10;&#9;c7,4,8.2,15.3,1.2,19.3L271.8,425.5C262.9,430.6,252,430.7,243.1,425.7z"/>
<g id="plant_store-closed-44">
	
		<linearGradient id="SVGID_1_-store-closed-44" gradientUnits="userSpaceOnUse" x1="410.6974" y1="177.9315" x2="414.5574" y2="185.8415" gradientTransform="matrix(1 0 0 -1 0 502)">
		<stop offset="0" style="stop-color:#69CCA6;stop-opacity:0"/>
		<stop offset="1" style="stop-color:#F15A24"/>
	</linearGradient>
	<path class="st1_store-closed-44" d="M414.3,303.6c-6.3,5-12.9,9.5-19.6,14l16.5,9.6l24.8-15.7L414.3,303.6z"/>
	<path class="st2_store-closed-44" d="M408.1,279.8c0,0-3.4,29.1,12,34.8s23.7-9,23.9-34.8"/>
	<ellipse class="st3_store-closed-44" cx="426.1" cy="279.8" rx="18" ry="10.4"/>
	<path class="st4_store-closed-44" d="M430.7,256.7c0,0-7-10.2-4-17.2c0,0,2.5-4.5,6.1-5.2c0,0-0.4,9.6,3.2,8.4s0-10.1,0-10.1s3.8-5.1,7.9-5&#10;&#9;&#9;s0,9,2.9,7.6s0.2-9,3.4-9.9c3-0.7,6-1.2,9-1.4c0,0,3,8.8,0,10.1s-7.5,1.7-5.4,3.6s8.3-0.3,8.3-0.3s0.4,4.9-1.7,7.1&#10;&#9;&#9;s-14.3-2.6-12.1,1.7s10.2,2.1,10.2,2.1s-4.1,5.9-9,8.6C444.6,259.3,430.7,256.7,430.7,256.7z"/>
	<path class="st4_store-closed-44" d="M432.3,282.1c0,0-5.1-5-4.1-9.4c0,0,1-2.8,2.9-3.6c0,0,0.8,5.5,2.7,4.4s-1.1-5.7-1.1-5.7s1.6-3.3,4-3.6&#10;&#9;&#9;s1,5.1,2.4,4s-0.9-5.1,0.9-6c1.6-0.7,3.3-1.3,4.9-1.8c0,0,2.7,4.7,1.1,5.7s-4.1,1.8-2.7,2.6s4.7-1,4.7-1s0.8,2.8-0.2,4.2&#10;&#9;&#9;s-8.4,0-6.7,2.2s6,0.1,6,0.1c-1,2.2-2.4,4.2-4.2,5.8C440.6,282.2,432.3,282.1,432.3,282.1z"/>
	<path class="st4_store-closed-44" d="M413.6,271.3c0,0-12.4,0.5-16.6-5.9c0,0-2.5-4.6-1.1-8c0,0,8,5.5,8.8,1.8s-8.5-5.4-8.5-5.4s-2.3-5.9,0.1-9.3&#10;&#9;&#9;s7.6,4.9,7.9,1.6s-7.5-5-6.5-8.2c1-2.9,2.2-5.7,3.6-8.4c0,0,9.1,2.2,8.5,5.4s-2.6,7.3,0.2,6.5s4.2-7.1,4.2-7.1s4.4,2.3,5.1,5.2&#10;&#9;&#9;s-9.9,10.7-5.1,11.1s7.3-7.5,7.3-7.5s2.8,6.7,2.4,12.2C423.4,260.9,413.6,271.3,413.6,271.3z"/>
	<path class="st2_store-closed-44" d="M456.6,227.7c-1.3,1.1-2.6,2.2-4,3.4c0.1-1.4,0.3-2.8,0.5-4.2c0.1-0.7-1-1-1.1-0.3c-0.3,1.9-0.5,3.7-0.7,5.6&#10;&#9;&#9;c-3.5,3-6.9,6.2-10.1,9.6c-0.3-2.4-0.3-4.8-0.2-7.1c0-0.8-1.1-0.8-1.2,0c-0.2,2.8,0,5.5,0.4,8.2c-2.1,2.2-4,4.6-5.8,7&#10;&#9;&#9;c-2-2.8-3.4-6-4-9.3c-0.1-0.7-1.3-0.4-1.1,0.3c0.7,3.6,2.1,7,4.3,9.9c0,0,0.1,0.1,0.1,0.1c-5.1,7.3-8.7,15.5-9,24.9&#10;&#9;&#9;c0,0.3,0.3,0.6,0.7,0.5c0.3,0,0.5-0.2,0.5-0.5c0.3-9.1,3.7-17,8.6-24.1c4.7,1.2,9.6,1.7,14.5,1.4c0.8-0.1,0.8-1.2,0-1.2&#10;&#9;&#9;c-4.6,0.3-9.3-0.1-13.8-1.3c2.5-3.4,5.2-6.5,8.1-9.5c0,0,0.1,0,0.1,0c2.7,0.2,5.5,0.5,8.2,0.6c1.8,0.1,3.5,0.2,5.1-0.6&#10;&#9;&#9;c0.7-0.3,0.1-1.3-0.6-1c-1.9,1-4.5,0.4-6.5,0.3c-1.7-0.1-3.5-0.2-5.2-0.4c4.2-4.1,8.6-8,13-11.6C458,228,457.1,227.2,456.6,227.7z"/>
	<path class="st2_store-closed-44" d="M420.3,250.4c0.2-0.7-0.9-1-1.1-0.3c-1.3,4.3-3.9,8.1-7.5,10.8c-1.3-3.7-2.5-7.4-3.6-11.1&#10;&#9;&#9;c2.8-2.8,5.1-6.1,6.9-9.7c0.3-0.7-0.7-1.3-1-0.6c-1.6,3.3-3.7,6.4-6.2,9c-1.2-4.3-2.3-8.6-3.2-13c-0.2-0.7-1.3-0.4-1.1,0.3&#10;&#9;&#9;c1.2,6,2.8,11.9,4.6,17.8c-2.2-0.4-4.3-1.1-6.4-2.1c-0.7-0.3-1.3,0.7-0.6,1c2.3,1.1,4.8,1.9,7.4,2.4l0,0c1.2,3.8,2.6,7.7,4.1,11.4&#10;&#9;&#9;c-3.5-0.1-6.9-0.9-10.2-2.3c-0.7-0.3-1.3,0.7-0.6,1c3.5,1.5,7.4,2.3,11.2,2.4c1.9,4.7,3.9,9.3,6.2,13.8c0.3,0.7,1.3,0.1,1-0.6&#10;&#9;&#9;c-3-6-5.7-12.2-8-18.6l0,0C416.1,259.2,419,255.1,420.3,250.4z"/>
	<path class="st2_store-closed-44" d="M441.5,265.6l-3.2,5.4c-0.4-0.5-0.7-1.1-1-1.7c-0.3-0.7-1.3-0.1-1,0.6c0.4,0.7,0.8,1.4,1.3,2.1l0,0l-3.5,5.9&#10;&#9;&#9;c-0.4-0.4-0.6-0.9-0.7-1.4c-0.1-0.7-1.3-0.8-1.2,0c0.1,0.9,0.6,1.8,1.3,2.4l-4.4,7.3c-0.1,0.3,0,0.6,0.3,0.8c0.2,0.1,0.5,0,0.7-0.2&#10;&#9;&#9;l5.8-9.6c1,0,1.9-0.1,2.9-0.4c0.7-0.2,0.4-1.4-0.3-1.1c-0.6,0.2-1.2,0.3-1.8,0.3l5.8-9.8c0.1-0.3-0.1-0.6-0.5-0.7&#10;&#9;&#9;C441.8,265.4,441.6,265.5,441.5,265.6z"/>
</g>
<g id="wifi_store-closed-44">
	<path class="st5_store-closed-44 targetColor" d="M70.1,207.5c2-1,4-1.1,5.5,0c3,2.2,3.1,8.3,0,13.6c-1.2,2.4-3.1,4.3-5.5,5.6c-2,1-4,1.1-5.5,0&#10;&#9;&#9;c-3-2.2-3.1-8.3,0-13.6C65.8,210.8,67.7,208.8,70.1,207.5z" style="fill: rgb(255, 153, 0);"/>
	<path class="st5_store-closed-44 targetColor" d="M70,174.9c8.7-4.5,17.5-4.8,24.1,0.1c1,0.7,1,2.7,0,4.4c-0.4,0.8-1,1.4-1.8,1.8c-0.5,0.3-1.2,0.3-1.7,0&#10;&#9;&#9;c-5.7-4.2-13.2-3.9-20.6-0.1s-14.9,11.2-20.6,21.2c-0.4,0.8-1,1.4-1.8,1.8c-0.5,0.3-1.2,0.3-1.8,0c-1-0.7-1-2.7,0-4.4&#10;&#9;&#9;C52.5,188,61.2,179.4,70,174.9z" style="fill: rgb(255, 153, 0);"/>
	<path class="st5_store-closed-44 targetColor" d="M69.9,158c12-6.2,24.1-6.5,33.5,0.4c1.6,1.1,0.4,5-1.7,6.2c-0.5,0.3-1.2,0.3-1.7,0c-8.4-6.2-19.2-5.9-29.9-0.4&#10;&#9;&#9;s-21.5,16.2-29.9,31c-0.4,0.8-1,1.4-1.7,1.8c-0.5,0.3-1.2,0.3-1.8,0c-1-0.7-1-2.7,0-4.4C45.9,176.2,57.9,164.2,69.9,158z" style="fill: rgb(255, 153, 0);"/>
	<path class="st5_store-closed-44 targetColor" d="M70,190.6c5.5-2.8,11-3,15.2,0.1c1.6,1.1,0.4,5-1.7,6.1c-0.5,0.3-1.2,0.3-1.8,0c-3.2-2.4-7.4-2.2-11.7,0&#10;&#9;&#9;s-8.4,6.3-11.7,12c-0.4,0.8-1,1.4-1.7,1.8c-0.5,0.3-1.2,0.3-1.8,0c-1-0.7-1-2.7,0-4.4C59,198.9,64.5,193.5,70,190.6z" style="fill: rgb(255, 153, 0);"/>
</g>
<g id="bag_store-closed-44">
	
		<linearGradient id="SVGID_00000066518155812774372470000013575047645948093613_-store-closed-44" gradientUnits="userSpaceOnUse" x1="124.8813" y1="232.7381" x2="148.1413" y2="249.2081" gradientTransform="matrix(1 0 0 -1 0 502)">
		<stop offset="0" style="stop-color:#69CCA6;stop-opacity:0"/>
		<stop offset="1" style="stop-color:#F15A24"/>
	</linearGradient>
	<path style="opacity:0.63;fill:url(#SVGID_00000066518155812774372470000013575047645948093613_);enable-background:new    ;" d="&#10;&#9;&#9;M134.2,274.3l50.4-29.8l-36.2-2.6l-36.2,18.8C118,264.6,128.5,270.4,134.2,274.3z"/>
	<path class="st4_store-closed-44" d="M154.9,170.7c-11.5,0.8-10.9,19.4-11.7,27.2c-0.2,1.9,2.8,2.6,3,0.6c0.6-6.4,0.2-15.2,3.8-20.9&#10;&#9;&#9;c1.1-1.8,2.4-3.5,4.7-3.6c1.4-0.1,2.8,0.5,3.8,1.5c1,0.9,1.6,4.5,1.7,5.6c0.6,4,0.7,8,0.2,12.1c-0.2,1.9,2.8,2.6,3,0.6&#10;&#9;&#9;C164,187.7,165.2,170,154.9,170.7z"/>
	<polyline class="st7_store-closed-44" points="172.2,183.2 175.6,189 182.6,190.4 177.4,208.4 162.6,198.8 &#9;"/>
	<polygon class="st3_store-closed-44" points="136.6,202.9 172.2,183.2 171,212.4 143.9,215 &#9;"/>
	<polygon class="st8_store-closed-44" points="149.3,207.2 154.8,262.4 188.1,242.4 182.6,190.4 &#9;"/>
	<polygon class="st8_store-closed-44" points="149.3,207.2 145.6,202.9 136.6,202.9 132.9,251.1 142.5,255.6 154.8,262.4 &#9;"/>
	<polygon class="st9_store-closed-44" points="149.3,207.2 145.6,202.9 136.6,202.9 132.9,251.1 142.5,255.6 154.8,262.4 &#9;"/>
	<path class="st4_store-closed-44" d="M169.8,180c-11.6,0.1-12.1,18.7-13.3,26.4c-0.3,1.9,2.6,2.8,3,0.8c1-6.4,1.1-15.1,5-20.6&#10;&#9;&#9;c1.6-2.2,4.4-4.1,7.2-2.6c2.5,1.3,2.5,4.2,2.8,6.7c0.4,4,0.2,8-0.5,12c-0.3,1.9,2.6,2.8,3,0.8C177.8,197.5,180.1,179.9,169.8,180z"/>
</g>
<g id="online-store-closed_store-closed-44">
	
		<linearGradient id="SVGID_00000085946048195488771800000010728382809475693207_-store-closed-44" gradientUnits="userSpaceOnUse" x1="191.0631" y1="98.3977" x2="238.5531" y2="161.2777" gradientTransform="matrix(1 0 0 -1 0 502)">
		<stop offset="0" style="stop-color:#69CCA6;stop-opacity:0"/>
		<stop offset="1" style="stop-color:#F15A24"/>
	</linearGradient>
	
		<polyline style="opacity:0.63;fill:url(#SVGID_00000085946048195488771800000010728382809475693207_);enable-background:new    ;" points="&#10;&#9;&#9;297.2,385.7 244.1,420.8 134.3,356.2 192.7,324.3 &#9;"/>
	<path class="st5_store-closed-44 targetColor" d="M242.9,71.8c20.8,13,73,43.2,90.8,54.2c4,2.5,4.6,6.2,4.7,10.9v221.1c-2.3,2.6-6.1,3.2-9.1,1.4l-87.7-49.5&#10;&#9;&#9;c-4.4-2.6-7.8-5.2-7.8-10.3l0.8-223.7C234.6,71,238.8,69.2,242.9,71.8z" style="fill: rgb(255, 153, 0);"/>
	<path class="st2_store-closed-44" d="M234.8,74.2l28.5,16.5v6.2c0,1.1,0.6,2,1.5,2.6l22.1,12.7c1,0.5,2.2,0.1,2.7-0.9c0.1-0.3,0.2-0.5,0.2-0.8V106&#10;&#9;&#9;l41.4,24.3c0.8,0.5,1.3,1.3,1.3,2.3v221c0,1-0.8,1.8-1.8,1.8c-0.3,0-0.6-0.1-0.9-0.2l-95.9-55.6c-0.3,3.5,1.3,6.9,4.2,8.8&#10;&#9;&#9;c5,3.2,92.3,52.6,92.3,52.6s6.9,3.1,8.9-5.1V133.4c0-2.9-1.4-5.7-3.8-7.4c-4-2.9-93.1-54.7-93.1-54.7S236.2,68.4,234.8,74.2z"/>
	<path class="st7_store-closed-44" d="M218.6,119.8V140c0,0,0.6,5.5,6,6.7s6.2-6,6.2-6v-14.9L218.6,119.8z"/>
	<path class="st8_store-closed-44" d="M230.5,127.8l0.5,21.3c0,0,0.6,5.5,6,6.7s6.2-6,6.2-6v-14.9L230.5,127.8z"/>
	<path class="st7_store-closed-44" d="M243.2,135.1v20.2c0,0,0.6,5.5,6,6.7s6.2-6,6.2-6v-14.9L243.2,135.1z"/>
	<path class="st8_store-closed-44" d="M255.5,142.4v20.2c0.4,3.3,2.8,5.9,6,6.7c5.5,1.2,6.2-6,6.2-6v-14.9L255.5,142.4z"/>
	<path class="st7_store-closed-44" d="M267.7,148.6v20.2c0.4,3.3,2.8,5.9,6,6.7c5.5,1.2,6.2-6,6.2-6v-14.9L267.7,148.6z"/>
	<path class="st8_store-closed-44" d="M279.8,156.9v20.2c0.4,3.3,2.8,5.9,6,6.7c5.5,1.2,6.2-6,6.2-6v-14.9L279.8,156.9z"/>
	<path class="st3_store-closed-44" d="M331.2,130.2c0,0,1.3,0.3,1.3,2.5v39l-31.8,18.2l4.4-27.8L331.2,130.2z"/>
	<path class="st7_store-closed-44" d="M292,165.1v18.1c0.4,3.3,2.8,5.9,6,6.7c5.5,1.2,6.2-6,6.2-6l-0.2-11.9L292,165.1z"/>
	<path class="st9_store-closed-44" d="M218.6,119.8V140c0,0,0.6,5.5,6,6.7s6.2-6,6.2-6v-14.9L218.6,119.8z"/>
	<path class="st9_store-closed-44" d="M243.2,135.1v20.2c0,0,0.6,5.5,6,6.7s6.2-6,6.2-6v-14.9L243.2,135.1z"/>
	<path class="st9_store-closed-44" d="M267.7,148.6v20.2c0.4,3.3,2.8,5.9,6,6.7c5.5,1.2,6.2-6,6.2-6v-14.9L267.7,148.6z"/>
	<path class="st9_store-closed-44" d="M292,165.1v18.1c0.4,3.3,2.8,5.9,6,6.7c5.5,1.2,6.2-6,6.2-6l-0.2-11.9L292,165.1z"/>
	<path class="st8_store-closed-44" d="M206.3,113.9v21.2c0,0,0.6,5.5,6,6.7s6.2-6,6.2-6v-14.9L206.3,113.9z"/>
	<path class="st11_store-closed-44" d="M230.5,127.8l0.5,21.3c0,0,0.6,5.5,6,6.7s6.2-6,6.2-6v-14.9L230.5,127.8z"/>
	<path class="st11_store-closed-44" d="M255.5,142.4v20.2c0.4,3.3,2.8,5.9,6,6.7c5.5,1.2,6.2-6,6.2-6v-14.9L255.5,142.4z"/>
	<path class="st11_store-closed-44" d="M279.8,156.9v20.2c0.4,3.3,2.8,5.9,6,6.7c5.5,1.2,6.2-6,6.2-6v-14.9L279.8,156.9z"/>
	<path class="st11_store-closed-44" d="M206.3,113.9v21.2c0,0,0.6,5.5,6,6.7s6.2-6,6.2-6v-14.9L206.3,113.9z"/>
	<polyline class="st7_store-closed-44" points="267.7,150.7 296.2,109.8 308.8,116.9 279.8,157.9 &#9;"/>
	<polyline class="st7_store-closed-44" points="243.2,136.1 272,95.5 285.1,102.9 255.5,143.4 &#9;"/>
	<polyline class="st7_store-closed-44" points="218.6,121 245.9,80.6 258.4,87.9 230.8,128.4 &#9;"/>
	<polyline class="st7_store-closed-44" points="304,172.1 331.2,130.2 320,123.8 292,165.1 &#9;"/>
	<polyline class="st8_store-closed-44" points="279.8,157.9 308.8,116.9 320,123.8 292,165.1 &#9;"/>
	<polyline class="st8_store-closed-44" points="255.5,143.5 285.1,102.9 296.2,109.8 267.7,150.8 &#9;"/>
	<polyline class="st8_store-closed-44" points="230.8,128.4 258.4,87.9 272,95.5 243.2,136.1 &#9;"/>
	<polyline class="st8_store-closed-44" points="206.3,113.9 234.8,74.2 245.9,80.6 218.6,121 &#9;"/>
	<path class="st8_store-closed-44" d="M229.1,248.2L332.5,308l-35.7,21l-105.1-59.5L229.1,248.2z"/>
	<polygon class="st8_store-closed-44" points="296.8,329 296.8,387.7 332.5,365.2 332.5,308 &#9;"/>
	<polygon class="st12_store-closed-44" points="296.8,329 296.8,387.7 332.5,365.2 332.5,308 &#9;"/>
	<polygon class="st8_store-closed-44" points="191.7,269.5 191.7,323.6 296.8,387.7 296.8,329 &#9;"/>
	<polygon class="st9_store-closed-44" points="191.7,269.5 191.7,323.6 296.8,387.7 296.8,329 &#9;"/>
	<path class="st2_store-closed-44" d="M259.1,201.3l9.5-6.8l5.8-4.1c0.4-0.2,1.2-0.6,1.4-1s-0.2-0.1-0.2,0c0.1,0.1,0.2,0.2,0.4,0.3&#10;&#9;&#9;c1,1.1,1.8,2.3,2.6,3.6c1.3,2,2.6,4.1,3.9,6.2c2.9,4.7,5.7,9.5,8.5,14.3c1.7,2.9,3.3,5.8,5,8.7c0.1,0.2,0.4,0.2,0.5,0.1&#10;&#9;&#9;c0.1-0.1,0.2-0.3,0.1-0.4c-4.2-7.4-8.4-14.7-12.8-22c-2-3.7-4.4-7.2-6.9-10.6c-0.6-0.7-0.9-1.1-1.7-0.5l-4.8,3.4l-11.5,8.2&#10;&#9;&#9;C258.4,200.9,258.8,201.6,259.1,201.3L259.1,201.3z"/>
	<ellipse class="st13_store-closed-44" cx="275.7" cy="190.7" rx="2.7" ry="3.1"/>
	<polygon class="st14_store-closed-44" points="299.1,223.1 255.9,199.5 255.9,232.4 299.1,256.1 &#9;"/>
	<path class="st13_store-closed-44" d="M263.8,215.8c0.6,0.3,1.2,0.8,1.7,1.3l-0.3,1.1c-0.4-0.4-0.8-0.8-1.3-1.1c-1.4-0.8-2.4-0.2-2.4,2&#10;&#9;&#9;c-0.1,1.8,0.8,3.6,2.4,4.5c0.4,0.3,0.9,0.4,1.4,0.4l0.2,1.4c-0.6,0-1.2-0.2-1.8-0.6c-2.2-1.4-3.5-3.8-3.5-6.4&#10;&#9;&#9;C260.1,215.6,261.7,214.6,263.8,215.8z"/>
	<polygon class="st13_store-closed-44" points="267.7,218.1 267.6,225.6 270.5,227.2 270.4,228.5 266.4,226.3 266.5,217.4 &#9;"/>
	<path class="st13_store-closed-44" d="M273.9,221.4c2,1.1,3.1,3.7,3.1,6.2c0,3-1.4,3.9-3.3,2.9s-3.1-3.6-3.1-6.3S272,220.3,273.9,221.4z&#10;&#9;&#9; M273.8,229.2c1.2,0.7,1.9-0.4,1.9-2.3c0-1.7-0.6-3.6-1.9-4.3s-1.9,0.4-1.9,2.3S272.6,228.6,273.8,229.2"/>
	<path class="st13_store-closed-44" d="M280.4,224.9c0.6,0.3,1.2,0.8,1.6,1.4l-0.3,1.1c-0.4-0.5-0.8-0.9-1.4-1.2c-0.8-0.4-1.1-0.1-1.1,0.4&#10;&#9;&#9;c0,0.7,0.4,1.2,1.3,2.2c1.1,0.9,1.7,2.2,1.7,3.6c0,1.4-0.8,2.2-2.6,1.2c-0.7-0.4-1.3-0.9-1.8-1.6l0.3-1.2c0.4,0.6,1,1.1,1.6,1.5&#10;&#9;&#9;c0.8,0.4,1.2,0.2,1.2-0.5s-0.3-1.3-1.2-2.1c-1.1-0.9-1.7-2.2-1.8-3.6C278,224.7,278.9,224.1,280.4,224.9z"/>
	<polygon class="st13_store-closed-44" points="287.3,228.9 287.3,230.3 284.6,228.8 284.6,231.1 287.2,232.5 287.2,233.8 284.6,232.4 284.6,235 &#10;&#9;&#9;287.5,236.6 287.4,237.9 283.3,235.7 283.4,226.7 &#9;"/>
	<path class="st13_store-closed-44" d="M293.3,233.2c0.7,1.2,1,2.5,1,3.9c0,1.6-0.4,2.6-1.1,3s-1.8,0.2-3.1-0.5c-0.6-0.3-1.1-0.6-1.7-1v-8.8&#10;&#9;&#9;c0.7,0.2,1.4,0.5,2,0.9C291.6,231.3,292.6,232.1,293.3,233.2z M290.5,238.4c1.6,0.9,2.6,0.2,2.6-2c0.1-1.8-0.8-3.5-2.4-4.4&#10;&#9;&#9;c-0.3-0.2-0.5-0.3-0.8-0.4v6.4C290,238.1,290.3,238.3,290.5,238.4L290.5,238.4"/>
</g>
</svg>